<?xml version="1.0" encoding="UTF-8" standalone="no"?>
<svg xmlns="http://www.w3.org/2000/svg"
     xmlns:svg="http://www.w3.org/2000/svg"
     version="1.1"
     width="56.8889in" height="32in"
     viewBox="0 0 4096 2304">
  <path id="path1"
        fill="none" stroke="black" stroke-width="1"
        d="M 2534.28,491.53
           C 2542.73,492.00 2551.48,501.22 2559.98,498.67
             2564.19,497.41 2614.28,471.55 2617.55,468.70
             2626.54,460.86 2651.81,452.52 2648.48,438.72
             2648.48,438.72 2675.13,423.97 2675.13,423.97
             2675.13,423.97 2695.59,410.64 2695.59,410.64
             2695.59,410.64 2703.68,395.42 2703.68,395.42
             2711.29,387.80 2711.77,384.47 2715.10,377.34
             2721.29,385.42 2725.57,390.66 2728.42,395.89
             2734.61,407.79 2734.13,406.84 2738.89,411.12
             2738.89,411.12 2753.64,420.64 2753.64,420.64
             2753.64,420.64 2768.39,427.30 2768.39,427.30
             2768.39,427.30 2824.07,455.85 2824.07,455.85
             2824.07,455.85 2899.25,495.82 2899.25,495.82
             2899.25,495.82 2908.28,509.90 2908.29,513.42
             2908.29,513.42 2905.63,535.40 2901.63,543.40
             2901.63,543.40 2906.93,555.65 2904.49,559.00
             2904.49,559.00 2890.98,576.35 2886.71,579.13
             2886.71,579.13 2862.19,591.23 2856.00,593.00
             2861.07,599.96 2879.05,611.66 2887.00,615.74
             2887.00,615.74 2956.00,652.86 2956.00,652.86
             2956.00,652.86 2977.00,666.08 2977.00,666.08
             2977.00,666.08 2999.00,677.26 2999.00,677.26
             2999.00,677.26 3027.76,692.44 3034.00,694.08
             3034.00,694.08 3058.65,702.33 3058.65,702.33
             3061.51,704.71 3059.60,758.00 3059.60,758.00
             3058.34,766.34 3059.77,797.55 3059.76,806.04
             3059.76,806.04 3058.18,831.76 3058.18,851.26
             3055.98,853.67 3011.07,871.25 3011.07,871.25
             3011.07,871.25 2978.95,886.16 2978.95,886.16
             2978.95,886.16 2937.00,911.12 2937.00,911.12
             2918.41,921.34 2906.86,922.64 2889.73,940.25
             2872.12,936.91 2875.46,973.55 2875.46,973.55
             2875.46,973.55 2878.31,1024.94 2878.31,1024.94
             2878.36,1035.07 2878.31,1092.04 2878.31,1092.04
             2878.31,1106.14 2865.18,1123.86 2863.08,1126.30
             2854.96,1135.76 2852.06,1137.37 2838.34,1150.09
             2835.99,1152.27 2829.63,1159.90 2828.35,1162.93
             2827.14,1165.78 2816.38,1166.12 2810.74,1163.89
             2805.95,1162.42 2751.74,1131.05 2751.74,1131.05
             2746.89,1126.98 2738.56,1120.97 2732.71,1118.21
             2724.31,1114.24 2718.85,1110.82 2710.03,1108.40
             2706.88,1107.53 2697.82,1107.42 2694.64,1108.21
             2691.55,1108.98 2673.88,1125.50 2668.94,1128.67
             2668.94,1128.67 2650.39,1144.38 2650.39,1144.38
             2650.39,1144.38 2615.61,1167.52 2609.00,1173.20
             2609.00,1173.20 2580.00,1195.64 2567.59,1195.29
             2556.79,1194.99 2551.80,1189.75 2543.41,1183.61
             2534.39,1177.02 2519.85,1171.90 2509.00,1168.88
             2502.70,1167.12 2494.09,1167.93 2487.02,1164.08
             2477.90,1159.12 2403.91,1122.01 2403.91,1122.01
             2403.91,1122.01 2376.78,1117.25 2376.78,1117.25
             2376.78,1117.25 2350.00,1104.40 2350.00,1104.40
             2350.00,1104.40 2332.53,1092.04 2332.53,1092.04
             2326.57,1090.57 2290.66,1071.83 2290.66,1067.29
             2290.66,1067.29 2292.09,1002.58 2292.09,1002.58
             2292.09,1002.58 2292.24,909.55 2291.61,906.46
             2291.61,906.46 2291.90,766.00 2291.61,744.20
             2291.49,735.50 2292.58,655.89 2292.56,644.28
             2292.56,644.28 2286.85,624.77 2286.85,624.77
             2286.87,613.41 2281.09,623.00 2281.14,612.87
             2281.14,612.87 2282.09,569.10 2282.09,569.10
             2282.16,556.57 2296.37,560.05 2301.60,552.92
             2304.54,549.70 2325.09,540.94 2328.72,538.64
             2334.03,535.29 2335.82,530.81 2341.57,528.65
             2341.57,528.65 2365.36,516.75 2365.36,516.75
             2365.36,516.75 2426.61,481.04 2429.12,480.11
             2432.43,478.90 2465.42,445.90 2479.56,443.00
             2479.56,443.00 2497.94,439.80 2505.26,442.05
             2513.11,444.46 2526.19,455.37 2533.33,458.70
             2539.99,464.89 2553.30,470.68 2553.32,474.88
             2553.32,474.88 2534.28,491.53 2534.28,491.53 Z" />
</svg>
