<?xml version="1.0" encoding="UTF-8" standalone="no"?>
<svg xmlns="http://www.w3.org/2000/svg"
     xmlns:svg="http://www.w3.org/2000/svg"
     version="1.1"
     width="56.8889in" height="32in"
     viewBox="0 0 4096 2304">
  <path id="path1"
        fill="none" stroke="black" stroke-width="1"
        d="M 2209.77,457.75
           C 2209.77,457.75 2209.75,522.65 2209.77,530.55
             2209.77,530.55 2213.97,661.72 2200.73,661.88
             2200.73,661.88 2176.46,689.01 2176.46,689.01
             2167.37,688.96 2156.88,685.34 2148.86,680.92
             2148.86,680.92 2116.03,663.31 2116.03,663.31
             2116.03,663.31 2079.39,642.85 2079.39,642.85
             2079.39,642.85 2001.35,603.36 2001.35,603.36
             2001.35,603.36 1956.15,619.06 1956.15,619.06
             1956.15,619.06 1827.67,678.54 1827.67,678.54
             1827.67,678.54 1770.57,712.80 1755.82,721.36
             1755.16,718.51 1725.21,744.10 1727.27,735.64
             1727.75,721.36 1726.53,715.34 1727.75,705.18
             1727.75,705.18 1728.87,602.64 1728.87,602.64
             1728.87,602.64 1726.69,575.64 1726.69,575.64
             1726.69,575.64 1726.69,563.64 1726.69,563.64
             1726.69,563.64 1724.82,554.64 1724.82,554.64
             1724.82,554.64 1724.82,540.64 1724.82,540.64
             1724.71,535.21 1722.98,516.98 1720.76,512.64
             1718.76,508.73 1711.28,502.41 1707.78,499.36
             1698.96,491.69 1661.78,473.38 1661.78,473.38
             1661.78,473.38 1596.78,439.96 1596.78,439.96
             1596.78,439.96 1537.78,411.27 1537.78,411.27
             1537.78,411.27 1444.15,363.54 1444.15,363.54
             1402.75,342.12 1407.99,327.85 1417.51,319.28
             1432.26,311.19 1475.56,267.42 1475.56,267.42
             1475.56,267.42 1520.28,257.90 1520.28,257.90
             1520.28,257.90 1556.78,238.29 1556.78,238.29
             1556.78,238.29 1609.27,206.04 1609.27,206.04
             1609.27,206.04 1640.67,187.00 1640.67,187.00
             1640.67,187.00 1665.41,170.35 1665.41,170.35
             1665.41,170.35 1758.20,111.34 1758.20,111.34
             1758.20,111.34 1917.13,23.32 1917.13,23.32
             1917.13,23.32 1926.78,-7.73 1926.78,-7.73
             1929.38,-8.46 1932.10,-8.36 1934.78,-8.36
             1934.78,-8.36 2126.78,-8.36 2126.78,-8.36
             2129.45,-8.36 2132.15,-8.43 2134.78,-7.83
             2134.78,-7.83 2145.53,50.44 2145.53,50.44
             2156.34,55.84 2199.77,60.09 2205.01,65.19
             2209.77,73.75 2219.28,99.92 2238.32,99.45
             2238.32,99.45 2270.73,114.15 2277.81,118.96
             2277.81,118.96 2332.53,147.03 2332.53,147.03
             2332.53,147.03 2386.30,166.07 2386.30,166.07
             2397.54,170.66 2397.09,178.21 2400.57,190.33
             2401.55,193.72 2414.42,201.56 2414.37,205.08
             2414.27,214.00 2415.73,215.83 2413.42,224.12
             2413.42,224.12 2397.72,236.01 2397.72,236.01
             2395.46,245.58 2393.93,276.07 2393.91,285.98
             2393.88,308.45 2398.81,379.66 2388.68,383.52
             2388.68,383.52 2289.08,419.21 2282.09,423.97
             2274.45,429.17 2218.81,455.17 2209.77,457.75 Z" />
</svg>
