<?xml version="1.0" encoding="UTF-8"?>
<svg version="1.1" xmlns="http://www.w3.org/2000/svg" width="600" height="766">
<path d="M0 0 C15.33503552 9.98206039 15.33503552 9.98206039 20.125 18.125 C21.45551335 19.85633745 22.78919099 21.58524512 24.125 23.3125 C32.32595677 34.66884348 35.2874715 49.1989704 33.8125 63.125 C32.59728721 68.8837154 29.81036456 73.66493208 26.93066406 78.72265625 C23.14720962 85.57998108 20.60269689 92.73078296 18.0625 100.125 C13.88364538 112.24584945 9.15958774 123.71767557 3.0390625 134.98046875 C2.70672607 135.6058252 2.37438965 136.23118164 2.03198242 136.87548828 C1.13382926 138.55418201 0.2067721 140.21732427 -0.72265625 141.87890625 C-3.2161328 148.9029029 -0.30961982 154.95500165 2.15966797 161.59667969 C9.53907515 181.88189621 11.17239479 202.76186328 13.125 224.125 C13.27220751 225.69699443 13.41996974 227.26893703 13.56835938 228.84082031 C14.08972658 234.37115515 14.60481817 239.90200816 15.10742188 245.43408203 C16.40934023 259.62830207 18.1677879 273.46217707 21.5625 287.3125 C26.66853001 308.42024045 28.31355365 330.62980943 29.35424805 352.28173828 C29.68447317 358.17766052 29.99721606 363.02940498 33.125 368.125 C38.30379426 371.41534858 45.08162935 373.07921642 51.125 372.125 C58.97891561 369.43516224 64.77778989 367.23784038 68.8125 359.75 C74.67635304 346.1330282 71.17193527 329.97236213 67.99267578 316.09130859 C65.26492923 304.12664414 64.96354371 292.03534041 64.5546875 279.8046875 C64.5210932 278.8139945 64.5210932 278.8139945 64.48682022 277.80328751 C64.36805513 274.29685451 64.25263455 270.79033088 64.14013672 267.28369141 C64.04881034 264.45273472 63.95174241 261.62207334 63.84912109 258.79150391 C62.97619785 234.63648685 62.6519922 210.55561111 66.0625 186.5625 C66.33888691 184.52682781 66.61140176 182.49066027 66.88369751 180.45443726 C67.14383159 178.5127549 67.40754871 176.57155362 67.67138672 174.63037109 C68.16789205 170.79354463 68.55836166 166.95629663 68.91503906 163.10449219 C70.2113985 149.3389638 74.41840654 133.99814122 84.8125 124.1875 C95.02019265 116.23499526 105.54233262 112.71525286 118.3125 113.25 C119.32908691 113.28202515 119.32908691 113.28202515 120.36621094 113.31469727 C126.85627958 113.74083702 130.37408467 116.28589042 134.76171875 120.89453125 C137.40704347 124.2763684 139.21952136 127.89249123 140.9375 131.8125 C141.27152832 132.56998535 141.60555664 133.3274707 141.94970703 134.10791016 C144.96936155 141.24770926 147.28481203 148.57674744 149.5 156 C149.83362549 157.11592529 150.16725098 158.23185059 150.51098633 159.3815918 C154.20506977 172.20692544 155.60150773 184.99515611 156.625 198.25 C156.75514721 199.88493325 156.8853567 201.51986155 157.015625 203.15478516 C157.80666879 213.22989373 158.45628067 223.30773359 159.00942993 233.3984375 C160.62773595 262.8262235 163.06173008 291.58939209 171.95092773 319.8659668 C173.77667328 325.73039253 175.24059137 331.61384551 176.5 337.625 C176.75148804 338.81863159 176.75148804 338.81863159 177.00805664 340.03637695 C177.70481226 343.49010627 178.125 346.58717353 178.125 350.125 C179.115 350.455 180.105 350.785 181.125 351.125 C182.6953125 353.8125 182.6953125 353.8125 184.25 357.125 C185.81012787 360.87301121 185.81012787 360.87301121 188.125 364.125 C191.97336761 364.49503535 194.33795977 364.60057835 197.69140625 362.57421875 C200.68134821 359.56507973 201.70598895 356.60996075 202.8125 352.625 C203.11124023 351.65820312 203.11124023 351.65820312 203.41601562 350.671875 C206.52568012 340.14999382 207.43394195 329.54604288 207.64572144 318.6224823 C207.68896051 316.39345927 207.74291125 314.16489023 207.79907227 311.93615723 C207.8974256 307.96522884 207.98667639 303.99415819 208.07287598 300.02294922 C208.22543278 293.00462154 208.38859195 285.98658049 208.5625 278.96875 C208.59093837 277.79977362 208.59093837 277.79977362 208.61995125 276.60718155 C208.90595741 265.12410315 209.45105156 253.67548475 210.15234375 242.2109375 C211.25716187 224.04514252 211.52299912 205.90018717 211.66760254 187.70471191 C211.98090183 149.05357456 211.98090183 149.05357456 212.46484375 135.3671875 C212.4856752 134.53551056 212.50650665 133.70383362 212.52796936 132.84695435 C212.82277991 126.00836825 213.98955945 119.52737062 218.625 114.3125 C222.97019243 111.19342623 228.05013761 109.64816063 233.125 108.125 C233.86105469 107.89683594 234.59710938 107.66867188 235.35546875 107.43359375 C247.11147789 104.45817905 263.47424339 103.79932702 274.125 110.125 C284.58731425 117.0305434 289.42203953 133.51892328 292.125 145.125 C292.80987038 148.88236226 293.36922117 152.65727033 293.91333008 156.43725586 C294.83159601 162.68719193 296.13598679 168.78596334 297.5625 174.9375 C300.43771396 187.54901361 302.00399612 200.2828953 303.58886719 213.10864258 C304.07134666 216.85044109 304.65889538 220.57247884 305.24935913 224.29852295 C306.9385707 235.03884449 307.93792583 245.7164241 308.625 256.5625 C308.74680608 258.37568526 308.86913593 260.18883541 308.99194336 262.00195312 C309.71560915 272.86272088 310.33054658 283.72833822 310.91015625 294.59765625 C310.97548553 295.80820175 311.04081482 297.01874725 311.10812378 298.26597595 C311.43012158 304.24243207 311.74200369 310.21907904 312.03515625 316.19702148 C312.14942994 318.38136388 312.26399852 320.56569087 312.37890625 322.75 C312.424673 323.7573671 312.47043976 324.76473419 312.51759338 325.80262756 C312.56794235 326.72627609 312.61829132 327.64992462 312.67016602 328.6015625 C312.72987328 329.8093335 312.72987328 329.8093335 312.79078674 331.04150391 C313.02509585 333.42571741 313.02509585 333.42571741 315.125 336.125 C315.41210938 338.17797852 315.41210938 338.17797852 315.46875 340.50390625 C315.51322266 341.76170898 315.51322266 341.76170898 315.55859375 343.04492188 C315.60296268 344.81054441 315.64723308 346.57616943 315.69140625 348.34179688 C315.72105469 349.17904297 315.75070312 350.01628906 315.78125 350.87890625 C315.79994141 351.64533447 315.81863281 352.4117627 315.83789062 353.20141602 C315.965382 355.36203194 315.965382 355.36203194 318.125 357.125 C318.50390625 358.98730469 318.50390625 358.98730469 318.6875 361.296875 C318.7611377 362.17182617 318.83477539 363.04677734 318.91064453 363.94824219 C318.98138184 364.91407227 319.05211914 365.87990234 319.125 366.875 C319.20476074 367.90012695 319.28452148 368.92525391 319.36669922 369.98144531 C319.53748341 372.20996257 319.70380193 374.43882548 319.86621094 376.66796875 C320.11952037 380.05180045 320.40504845 383.43166179 320.6953125 386.8125 C323.5419833 421.82458082 323.94402546 458.26304101 319.125 493.125 C320.445 493.785 321.765 494.445 323.125 495.125 C322.8643786 499.37954003 322.59774099 503.63364646 322.32543945 507.88745117 C322.23360002 509.33558841 322.14342625 510.78383225 322.05493164 512.23217773 C321.92768694 514.31003399 321.79452119 516.38743733 321.66015625 518.46484375 C321.581604 519.71644287 321.50305176 520.96804199 321.42211914 522.25756836 C321.125 525.125 321.125 525.125 320.125 526.125 C319.9137786 527.59724102 319.76505229 529.07852648 319.64257812 530.56079102 C319.5632605 531.50647446 319.48394287 532.4521579 319.40222168 533.42649841 C319.32105103 534.462668 319.23988037 535.49883759 319.15625 536.56640625 C319.02627625 538.17860802 319.02627625 538.17860802 318.89367676 539.82337952 C317.94616182 551.8920179 317.27750441 563.97499057 316.625 576.0625 C314.09651638 622.82551597 314.09651638 622.82551597 310.6875 644.375 C310.46269667 645.83548216 310.23875425 647.29609707 310.015625 648.75683594 C309.68529729 650.91896455 309.35446489 653.08099214 309.02005005 655.24249268 C308.26946717 660.10618865 307.59855856 664.97624007 306.95874023 669.85546875 C305.77955418 678.75759023 304.04565717 687.42947948 301.95874023 696.16333008 C300.78921419 701.07639348 299.77848064 705.95430007 299.01245117 710.94604492 C296.93885764 724.45166653 292.2086625 740.76984631 281.1875 749.625 C274.98369778 754.15601478 267.95883819 754.4857262 260.5625 754.4375 C259.68424561 754.43331055 258.80599121 754.42912109 257.90112305 754.42480469 C245.72328334 754.2158194 231.02948404 752.29931689 222.125 743.125 C217.92563116 734.30632543 218.97149249 723.10979425 218.92535782 713.5703373 C218.9096263 710.45838347 218.88186365 707.34656415 218.85510063 704.23468876 C218.83363327 701.72084833 218.81364139 699.20699871 218.79370117 696.69314575 C218.54893782 666.8628769 217.77032894 637.12930322 216.21582031 607.33959961 C215.27351338 589.19091481 214.67936255 571.06395977 214.41601562 552.89282227 C214.34134186 532.73926877 214.34134186 532.73926877 210.75 513 C210.54117187 512.20335937 210.33234375 511.40671875 210.1171875 510.5859375 C208.7184357 505.46855286 207.14305005 501.14305005 203.3125 497.3125 C200.30742361 495.68117282 198.49313149 495.56364475 195.125 496.125 C191.33849091 499.68877326 189.25567485 504.44237619 187.125 509.125 C186.63773437 510.1459375 186.15046875 511.166875 185.6484375 512.21875 C183.65927786 516.89641724 182.79883049 521.78364411 181.8125 526.75 C180.20435452 534.52942703 178.3437079 542.14141604 176.0625 549.75 C167.87898092 577.61911176 166.46461675 606.35072547 164.81460571 635.1942749 C161.1412859 699.23762733 161.1412859 699.23762733 148.125 726.125 C147.57972656 727.32640625 147.03445313 728.5278125 146.47265625 729.765625 C145.87984688 731.03230202 145.28481987 732.29794371 144.6875 733.5625 C144.15253906 734.69558594 143.61757813 735.82867188 143.06640625 736.99609375 C140.39250819 741.3055351 137.50642657 744.24036349 132.6328125 746.05078125 C117.98337123 748.42831352 106.85574396 745.79727203 94.125 738.125 C88.5289406 733.06072987 84.64651234 727.71100691 81.5 720.875 C81.05140625 719.94880859 81.05140625 719.94880859 80.59375 719.00390625 C75.83912028 708.80038671 75.28883267 697.67686411 74.125 686.625 C73.87598559 684.30313515 73.62552623 681.98143079 73.37457275 679.65977478 C73.20789618 678.11302312 73.04265859 676.56611574 72.87884521 675.01905823 C72.47572011 671.2366102 72.04878486 667.46010444 71.56347656 663.68725586 C70.40683779 654.65065025 69.80811052 645.81439393 69.875 636.6875 C69.87743713 636.01409576 69.87987427 635.34069153 69.88238525 634.6468811 C69.94738366 618.69704571 70.4854561 602.75279658 71 586.8125 C71.03911499 585.53948029 71.07822998 584.26646057 71.11853027 582.9548645 C71.2342649 579.26512435 71.36144184 575.57595435 71.4921875 571.88671875 C71.54235519 570.24607956 71.54235519 570.24607956 71.59353638 568.57229614 C71.97576266 558.49046246 73.43919374 548.64148286 75.6875 538.8125 C78.39219722 526.39548095 80.53165111 513.08661749 75.125 501.125 C74.444375 499.2996875 74.444375 499.2996875 73.75 497.4375 C70.50479211 492.05397684 63.78849236 490.05372243 58.125 488.125 C51.82678621 486.70979244 45.60685029 489.03395668 40.125 492.125 C36.38221825 496.66170515 36.01339742 501.44804348 35.73046875 507.171875 C35.66432373 508.39342285 35.59817871 509.6149707 35.5300293 510.87353516 C35.49517426 511.52445129 35.46031921 512.17536743 35.42440796 512.8460083 C34.23374998 534.43370569 32.46461203 556.16799187 26.9855957 577.13427734 C22.41285274 595.23860664 21.21104268 614.30454787 19.5625 632.875 C19.50121918 633.56376221 19.43993835 634.25252441 19.37680054 634.9621582 C19.19340046 637.02681082 19.01063177 639.09151824 18.828125 641.15625 C18.76877274 641.82724731 18.70942047 642.49824463 18.64826965 643.1895752 C18.36337802 646.41389138 18.08074455 649.63836326 17.80273438 652.86328125 C16.4435813 668.25589824 14.08598415 682.47880929 9.125 697.125 C8.67398926 698.49978516 8.67398926 698.49978516 8.21386719 699.90234375 C2.31836842 717.7541344 -5.529218 739.14380284 -21.875 750.125 C-27.51368872 752.80035808 -32.7430876 753.04126277 -38.875 752.125 C-49.43801088 748.30241148 -57.59632294 743.21758588 -62.58666992 732.89208984 C-66.56562541 724.10456505 -69.09674262 715.00501567 -71.27783203 705.63232422 C-71.86164202 703.18108604 -72.50204132 700.75073292 -73.15234375 698.31640625 C-76.61960339 684.68930011 -77.86400057 671.01399141 -79.04663086 657.04748535 C-80.26097054 642.75299039 -81.87936886 628.57302255 -83.9375 614.375 C-84.06156219 613.50861908 -84.18562439 612.64223816 -84.31344604 611.74960327 C-85.47031716 603.71483258 -86.69528171 595.79370116 -88.5546875 587.88671875 C-90.68292045 577.59069154 -90.11934501 567.14975952 -89.9375 556.6875 C-88.47677141 525.24751665 -88.47677141 525.24751665 -102.25 498.2890625 C-110.48613266 491.49915551 -122.32746085 488.52939974 -132.875 489.125 C-135.96856403 489.84478444 -138.93860583 490.83451628 -141.9375 491.875 C-142.71416016 492.12765625 -143.49082031 492.3803125 -144.29101562 492.640625 C-152.813836 495.52727034 -157.70625985 499.19873034 -161.875 507.125 C-169.23792273 523.72041623 -173.10012116 541.11084704 -174.45703125 559.14453125 C-174.57920095 560.66826038 -174.70171785 562.1919617 -174.82455444 563.71563721 C-176.1427398 580.4198064 -177.04649645 597.14920354 -177.87594223 613.88365555 C-178.00220045 616.41918974 -178.13100925 618.9545839 -178.26040649 621.48995972 C-179.45325521 644.93433009 -180.377491 668.35791045 -180.6673584 691.83345032 C-181.08741841 724.56976495 -181.08741841 724.56976495 -192.46875 736.84375 C-198.61838285 742.54613683 -205.12764373 744.80285354 -213.49609375 744.53515625 C-228.92207966 742.66263773 -244.08745028 737.66249471 -255.19140625 726.41015625 C-259.24758014 720.9046766 -261.68691115 714.46210764 -263.82421875 708.01171875 C-264.07862228 707.24445969 -264.33302582 706.47720062 -264.59513855 705.68669128 C-267.71153852 695.94238017 -269.67996107 685.95626372 -271.6875 675.9375 C-272.08432785 674.00696417 -272.48211056 672.07662435 -272.88085938 670.14648438 C-275.31979057 658.25442787 -277.03484602 647.09373516 -277.078125 634.91015625 C-277.08500336 633.60769958 -277.09188171 632.30524292 -277.09896851 630.96331787 C-277.11828281 626.70470994 -277.12264855 622.44614609 -277.125 618.1875 C-277.12588371 617.45952084 -277.12676743 616.73154167 -277.12767792 615.98150253 C-277.15374012 591.79082054 -276.25062198 567.81164139 -274.45936584 543.68215942 C-273.73268757 533.65107497 -273.32656875 523.60976196 -272.93087769 513.56106567 C-271.32847766 472.97147584 -268.28013867 446.9080455 -238.25 417.4375 C-235.87936696 415.1037278 -233.51234769 412.76636242 -231.1484375 410.42578125 C-230.3060704 409.5936335 -230.3060704 409.5936335 -229.44668579 408.74467468 C-226.47156484 405.78577336 -223.63354789 402.77694962 -220.921875 399.5703125 C-211.99624053 389.10658274 -197.83232839 384.12757309 -185.39599609 379.14306641 C-183.73465761 378.47215981 -182.08091221 377.78208762 -180.43603516 377.07177734 C-174.00648076 374.34451581 -167.59566942 372.71447336 -160.75 371.375 C-159.65921143 371.1589209 -158.56842285 370.9428418 -157.44458008 370.72021484 C-138.40344261 367.15904853 -138.40344261 367.15904853 -129.8125 369.74609375 C-123.79338322 370.92321941 -116.02667166 366.49276053 -111 363.4375 C-102.40416158 357.22420375 -99.16114143 348.24102765 -97.33618164 338.14379883 C-96.64610443 333.19134295 -96.8469955 328.25673035 -96.953125 323.26953125 C-96.98478735 321.11347076 -97.01449858 318.95738093 -97.04248047 316.80126953 C-97.05712341 315.68061096 -97.07176636 314.55995239 -97.08685303 313.40533447 C-97.27859697 295.97442994 -97.11681834 279.52234971 -93.37890625 262.44921875 C-91.22836966 252.58179969 -90.00915615 242.5682619 -88.6875 232.5625 C-88.55574371 231.57868347 -88.42398743 230.59486694 -88.28823853 229.58123779 C-86.79052638 218.34694823 -85.53536384 207.19595385 -84.9375 195.875 C-84.37716034 185.53984629 -82.61536916 175.65744252 -80.4375 165.5625 C-80.28588409 164.85967896 -80.13426819 164.15685791 -79.97805786 163.43273926 C-78.41320989 156.26473276 -76.75315731 149.18615743 -74.30834961 142.25805664 C-73.36790159 137.62893308 -75.30308724 133.90738227 -77.3515625 129.8359375 C-77.85413574 128.82152588 -78.35670898 127.80711426 -78.87451172 126.76196289 C-79.41092285 125.68551514 -79.94733398 124.60906738 -80.5 123.5 C-85.32688293 113.62592293 -89.58626845 103.77144971 -93.11035156 93.36474609 C-93.88914082 91.08357984 -94.70334276 88.81739173 -95.5234375 86.55078125 C-102.93857833 65.73537389 -106.51184118 44.8792752 -96.875 24.125 C-88.5658046 7.48371885 -72.54812004 -2.6810475 -55.2578125 -8.54296875 C-35.83415669 -14.09415712 -16.89572119 -9.89494783 0 0 Z M-78.875 10.125 C-83.06615726 18.35351058 -83.02691891 28.10592473 -81 36.9375 C-73.67504805 47.92492792 -60.66102411 56.08070854 -47.875 59.125 C-29.63022747 62.69520009 -16.4464342 58.94143577 -0.859375 49.25 C6.02437116 44.32652592 9.81453871 38.20661352 12.125 30.125 C12.85118683 24.43420901 13.61067986 18.09976744 9.9375 13.3125 C-13.47142065 -8.98961589 -54.66133461 -14.08866539 -78.875 10.125 Z M-87.875 19.125 C-94.12230253 27.23023637 -97.43259878 36.96820528 -97.875 47.125 C-97.9265625 47.78371094 -97.978125 48.44242188 -98.03125 49.12109375 C-98.63059003 62.33154682 -94.10971893 75.5818996 -89.75 87.875 C-89.50856262 88.56577637 -89.26712524 89.25655273 -89.01837158 89.96826172 C-83.51984336 105.67963378 -77.1890326 120.74881467 -68.70458984 135.10546875 C-65.94111442 139.7950028 -65.94111442 139.7950028 -65.42578125 142.3671875 C-64.53966769 145.19520952 -62.59625207 145.86531718 -60.0625 147.25 C-46.19238869 154.31893704 -30.18785419 153.26648485 -15.41015625 149.87890625 C-5.98782974 145.20418293 -1.79663552 135.85057097 2.25 126.625 C2.76715576 125.47588135 3.28431152 124.3267627 3.81713867 123.14282227 C7.18217401 115.56312399 10.14906286 107.93181129 12.7734375 100.0703125 C14.20929687 95.79269271 15.85420257 91.61287066 17.5625 87.4375 C17.85044434 86.72634033 18.13838867 86.01518066 18.43505859 85.2824707 C19.82417354 81.93491239 21.28639891 78.73908125 23.125 75.61328125 C29.83326925 63.96848321 29.79861828 52.00942596 26.69799805 39.14038086 C24.98696841 33.12225147 22.03220634 27.12346443 17.125 23.125 C17.05023438 23.77984375 16.97546875 24.4346875 16.8984375 25.109375 C15.44007357 35.2321364 11.92272018 44.98275032 3.65625 51.46875 C-7.2655521 58.61511434 -18.61491002 64.73853254 -31.9375 64.5625 C-32.75605469 64.55492676 -33.57460937 64.54735352 -34.41796875 64.53955078 C-52.27273869 64.06623354 -66.8382981 57.33093168 -79.875 45.125 C-85.30407606 39.10737366 -85.92194944 33.69305854 -86.4375 25.8125 C-86.56318359 23.93111328 -86.56318359 23.93111328 -86.69140625 22.01171875 C-86.75199219 21.05910156 -86.81257812 20.10648438 -86.875 19.125 C-87.205 19.125 -87.535 19.125 -87.875 19.125 Z M241.25 115.9375 C240.36441406 116.10314453 239.47882813 116.26878906 238.56640625 116.43945312 C230.04662979 117.98138611 230.04662979 117.98138611 223.50733948 123.2480011 C221.80508239 126.79082964 221.57145166 129.97505096 221.45288086 133.83276367 C221.41994147 134.57809199 221.38700209 135.32342031 221.35306454 136.09133434 C221.04854794 143.54143775 220.94534171 150.99695751 220.89520454 158.45253944 C220.87824531 160.89600951 220.85500068 163.339357 220.83030701 165.78276062 C220.7610694 172.71863197 220.70061656 179.6545576 220.64819336 186.59057617 C220.50345911 205.27766231 220.16157961 223.89875644 219.01617622 242.55366516 C218.31445101 253.98870285 217.84252315 265.41007298 217.5625 276.86328125 C217.54335478 277.6322983 217.52420956 278.40131535 217.50448418 279.19363594 C217.3314096 286.19857185 217.17385968 293.2038366 217.02050781 300.20922852 C216.93431295 304.12184502 216.84002132 308.0342058 216.74124146 311.94652367 C216.68961445 314.08807131 216.64720386 316.22965968 216.60522461 318.37141418 C216.32529427 330.43759327 215.34668273 342.52739067 211.8125 354.125 C211.62494141 354.80949219 211.43738281 355.49398437 211.24414062 356.19921875 C209.34423606 362.61368755 206.29099156 367.43552659 201 371.5625 C195.71692535 374.23864262 189.711428 373.87720962 184.0390625 372.6875 C179.08843676 370.95802376 176.34130664 367.68237227 174.125 363.125 C170.32835151 353.32296097 168.19656363 343.16810861 166.07250977 332.90283203 C164.91956974 327.43747445 163.61113673 322.09364139 161.92919922 316.76611328 C161.50018311 315.39688721 161.50018311 315.39688721 161.0625 314 C160.83832901 313.28642838 160.61415802 312.57285675 160.38319397 311.83766174 C158.60672028 306.04826248 157.19506697 300.27418646 156.07421875 294.32421875 C155.81845566 292.96799156 155.81845566 292.96799156 155.55752563 291.58436584 C153.78308158 281.79347339 152.82789655 271.97113429 152 262.0625 C151.83173861 260.14385589 151.66319493 258.22523653 151.49438477 256.30664062 C150.45462391 244.25614671 149.67183696 232.20416063 149.0625 220.125 C147.95966433 198.40083578 146.66935315 176.99349836 140.125 156.125 C139.73994958 154.81537896 139.35580892 153.50549002 138.97265625 152.1953125 C136.83421982 145.26879449 134.19560001 138.80946629 131 132.3125 C130.49472778 131.27959839 130.49472778 131.27959839 129.97924805 130.22583008 C128.29598915 126.92967359 127.26240425 125.21660284 124.125 123.125 C114.22413352 120.21298045 105.33219621 122.86060645 96.4375 127.375 C87.31367541 132.7605909 82.26503902 142.05479014 79.58007812 152.17993164 C77.81076871 160.33028646 77.03707817 168.65725878 76.125 176.9375 C75.94959342 178.51099181 75.77413731 180.08447809 75.59863281 181.65795898 C75.17501758 185.47293833 74.75857581 189.28866016 74.3449707 193.10473633 C74.14876717 194.90671664 73.94867478 196.70827255 73.74804688 198.50976562 C71.93937177 214.83116315 71.88922973 230.71624707 72.70068359 247.10302734 C73.01252585 253.64745739 73.20830924 260.18831253 73.34375 266.73828125 C73.36212418 267.58923874 73.38049835 268.44019623 73.39942932 269.31694031 C73.54752921 276.21213617 73.54752921 276.21213617 73.60372925 279.63900757 C73.82272911 292.96108743 74.84391644 305.78810876 77.72460938 318.84423828 C81.85780345 337.77011859 82.20873079 354.1987376 72.125 371.125 C72.125 371.785 72.125 372.445 72.125 373.125 C71.05958984 373.54072266 71.05958984 373.54072266 69.97265625 373.96484375 C66.16844207 375.51470878 62.46679175 377.26482827 58.74609375 379.00390625 C50.08651309 382.70778054 42.62544598 381.29777302 33.921875 378.29296875 C29.31332752 376.36844962 25.9922518 374.86160248 23.875 370.1875 C23.56046875 369.51847656 23.2459375 368.84945312 22.921875 368.16015625 C21.16282486 363.66768015 20.82948892 359.22381217 20.51171875 354.44140625 C20.39981749 352.87243673 20.28732513 351.30350928 20.17431641 349.73461914 C20.11576477 348.91156281 20.05721313 348.08850647 19.99688721 347.24050903 C18.4605583 325.96863425 16.51105191 304.80440263 11.625 284 C8.21930362 269.39786627 6.88352306 254.51412527 5.37756348 239.62219238 C5.1139592 237.01583533 4.84769102 234.40975945 4.58105469 231.80371094 C3.77088548 223.86929247 2.9700007 215.93400071 2.19050598 207.99650574 C2.03738582 206.43863496 1.88327587 204.88086109 1.72807312 203.32319641 C1.41407864 200.15934188 1.11482409 196.99801749 0.86083984 193.82861328 C0.7498999 192.47678955 0.7498999 192.47678955 0.63671875 191.09765625 C0.58346436 190.359104 0.53020996 189.62055176 0.4753418 188.85961914 C0.24022931 186.87148041 0.24022931 186.87148041 -1.875 185.125 C-3.51503722 188.79491935 -4.19044431 192.01657286 -4.625 196 C-5.57012243 201.87274546 -7.10387695 205.48307665 -11.875 209.125 C-17.41894534 212.46571383 -22.51897679 213.44256382 -28.875 214.125 C-28.93034912 214.68372803 -28.98569824 215.24245605 -29.04272461 215.81811523 C-29.29877135 218.39963121 -29.5556318 220.98106564 -29.8125 223.5625 C-29.94301758 224.88024414 -29.94301758 224.88024414 -30.07617188 226.22460938 C-30.6379026 231.8627215 -31.23923385 237.49474661 -31.875 243.125 C-36.40453881 245.3897694 -39.90547769 245.44052523 -44.875 245.125 C-46.195 244.465 -47.515 243.805 -48.875 243.125 C-48.875 233.225 -48.875 223.325 -48.875 213.125 C-53.165 211.805 -57.455 210.485 -61.875 209.125 C-68.36945721 205.22832568 -71.33747006 200.95997786 -73.1875 193.625 C-73.414375 192.47 -73.64125 191.315 -73.875 190.125 C-74.205 190.125 -74.535 190.125 -74.875 190.125 C-75.02195313 191.66027344 -75.02195313 191.66027344 -75.171875 193.2265625 C-76.56027945 207.25556807 -78.42938176 221.21283045 -80.33837891 235.17919922 C-80.87286865 239.10932809 -81.39643961 243.04078859 -81.91796875 246.97265625 C-82.25754035 249.50264071 -82.59737464 252.03258993 -82.9375 254.5625 C-83.08751465 255.70315918 -83.2375293 256.84381836 -83.39208984 258.01904297 C-84.17088727 263.74942272 -85.15317036 269.29265565 -86.49609375 274.91796875 C-88.95356218 286.8741572 -88.03950259 299.1651664 -87.81347656 311.30419922 C-87.16937148 349.32334949 -87.16937148 349.32334949 -99.1875 365.5 C-109.52167937 375.59384962 -123.60322685 379.79239512 -137.875 380.125 C-137.875 379.465 -137.875 378.805 -137.875 378.125 C-145.35437274 377.7932206 -152.0923409 378.71676471 -159.375 380.375 C-160.82712891 380.68244141 -160.82712891 380.68244141 -162.30859375 380.99609375 C-168.81214296 382.43647713 -174.77664878 384.46354409 -180.875 387.125 C-181.82713379 387.53347168 -182.77926758 387.94194336 -183.76025391 388.36279297 C-186.83119572 389.69576513 -189.88509433 391.06266409 -192.9375 392.4375 C-194.47374023 393.10942383 -194.47374023 393.10942383 -196.04101562 393.79492188 C-206.16552543 398.36874196 -213.58726904 404.37999502 -220.9375 412.625 C-228.1750824 420.57188475 -228.1750824 420.57188475 -232 423.75 C-249.41795845 438.32726136 -260.07948411 454.74292254 -262.18896484 477.51416016 C-262.45292198 481.17481518 -262.67246141 484.83543249 -262.875 488.5 C-262.9569117 489.90381557 -263.03894727 491.30762393 -263.12109375 492.71142578 C-263.90820707 506.4944398 -264.44420532 520.28897882 -264.99899292 534.08288574 C-265.50873485 546.70016061 -266.16417949 559.26974611 -267.19091797 571.85668945 C-268.6184041 589.81802657 -269.26728436 607.96746367 -268.91650391 625.98828125 C-268.887876 627.46211343 -268.86720083 628.9361142 -268.85302734 630.41015625 C-268.6882979 643.96822722 -266.45836321 656.71881676 -263.55566406 669.94042969 C-262.88445914 673.08074427 -262.27284349 676.22690575 -261.6796875 679.3828125 C-257.64171865 703.94870596 -257.64171865 703.94870596 -244.46484375 724.1015625 C-233.41957701 730.96622018 -220.19698366 736.68932384 -206.875 735.125 C-200.55626936 733.01875645 -196.69492154 728.5684071 -193.64453125 722.796875 C-189.34267863 712.91969715 -189.76942116 702.55584266 -189.63525391 691.95458984 C-189.33531339 668.31549419 -188.30271203 644.72157417 -187.12918472 621.11286163 C-187.00227081 618.54592891 -186.8778003 615.97888869 -186.7539978 613.4118042 C-185.92159653 596.23320362 -184.98112756 579.06305488 -183.63433456 561.91614151 C-183.51622813 560.40502902 -183.4013751 558.89365763 -183.2902565 557.38201523 C-181.70030807 536.01842776 -177.22309349 506.47309349 -161.5 490.75 C-155.30362396 486.91414817 -149.31904132 484.51425771 -142.375 482.4375 C-141.66311523 482.22295166 -140.95123047 482.00840332 -140.21777344 481.78735352 C-135.43401022 480.40995962 -130.82979827 479.62047983 -125.875 479.125 C-124.98554688 479.03476562 -124.09609375 478.94453125 -123.1796875 478.8515625 C-115.40686035 478.52665333 -107.65939385 480.25502886 -100.875 484.125 C-100.20703125 486.6015625 -100.20703125 486.6015625 -99.875 489.125 C-98.25327397 490.86473018 -98.25327397 490.86473018 -96.1875 492.3125 C-86.39592493 500.51009773 -82.94591173 512.19054223 -81.61376953 524.54833984 C-80.84737401 534.05568759 -80.8245886 543.57478278 -81 553.10546875 C-81.30112073 570.99691839 -79.92267493 587.47224653 -76.58935547 605.12548828 C-75.23906391 612.50477553 -74.25520157 619.94243152 -73.25 627.375 C-73.08966278 628.54364594 -73.08966278 628.54364594 -72.92608643 629.73590088 C-71.78699583 638.09031118 -70.78354651 646.4287414 -70.17578125 654.83984375 C-70.12479782 655.54451782 -70.07381439 656.24919189 -70.02128601 656.97521973 C-69.9456115 658.0265509 -69.9456115 658.0265509 -69.8684082 659.09912109 C-68.90740059 672.43529367 -67.14931059 685.22621878 -64.0625 698.25 C-63.9016391 698.93798676 -63.7407782 699.62597351 -63.57504272 700.33480835 C-59.42790015 720.44790054 -59.42790015 720.44790054 -48.875 737.125 C-39.98559901 742.77664985 -39.98559901 742.77664985 -29.91796875 743.6640625 C-15.29164959 736.4586758 -7.73045544 718.72161303 -2.67024231 704.05831909 C-2.16780248 702.56353291 -1.6706924 701.06694457 -1.17895508 699.56860352 C-0.43002713 697.2897615 0.34453806 695.02084058 1.12304688 692.75195312 C5.75313618 679.09326857 7.60954523 665.68286524 9.0625 651.375 C9.23794325 649.68461658 9.41372944 647.99426872 9.58984375 646.30395508 C10.40741222 638.41358965 11.19332441 630.52126957 11.91015625 622.62109375 C13.5545326 604.57628539 15.26833333 586.45602775 19.62792969 568.82568359 C24.46179594 549.24805042 26.34009574 527.97959373 26.79760742 507.84204102 C27.02744551 499.54603011 28.45063943 491.46017218 34.125 485.125 C40.71689953 480.36810462 50.08916399 477.96681011 58.125 479.125 C61.92979611 480.16934315 65.50519294 481.56260464 69.125 483.125 C69.94742187 483.46402344 70.76984375 483.80304688 71.6171875 484.15234375 C79.1320798 487.70736856 82.36471206 493.30421144 85.15625 500.94921875 C88.65399313 513.07796691 87.30805016 524.92098152 85.07421875 537.1171875 C84.86381958 538.27142212 84.86381958 538.27142212 84.64916992 539.44897461 C84.26552362 541.40758992 83.8404973 543.35822399 83.3918457 545.30297852 C80.53272781 558.53328639 80.31703721 571.81952219 79.9375 585.3125 C79.85929845 587.87101501 79.7810099 590.42952735 79.70263672 592.98803711 C79.48426393 600.36645682 79.30055039 607.74545629 79.125 615.125 C79.09988342 616.11125366 79.07476685 617.09750732 79.04888916 618.11364746 C78.51252495 639.2693511 79.49277943 659.55861262 82.61230469 680.49658203 C83.10772673 684.00275457 83.51425923 687.50578172 83.8828125 691.02734375 C85.43049562 706.14354229 85.43049562 706.14354229 91.125 720.125 C91.55554688 720.94871094 91.98609375 721.77242187 92.4296875 722.62109375 C97.15861379 730.75645 104.97290919 735.01025956 113.83203125 737.66015625 C119.94506584 738.89942561 126.46975464 738.95262268 132.125 736.125 C156.62660728 709.43663669 154.58497547 659.89007289 156.5859375 626.4140625 C158.41660405 596.15489151 161.21258073 567.18505318 169.8894043 538.05908203 C172.10471534 530.52175163 173.78421083 522.90771588 175.30078125 515.20117188 C177.19596328 505.87983333 179.58019736 496.27862149 186.125 489.125 C191.42789305 486.73349921 197.38178729 486.24419429 203.125 487.125 C208.36485808 489.30003543 211.90687536 492.46650506 215.125 497.125 C216.12912747 499.70743833 216.98630503 502.16456579 217.75 504.8125 C217.96237305 505.52873535 218.17474609 506.2449707 218.39355469 506.98291016 C218.98881354 509.02570934 219.56241295 511.07299297 220.125 513.125 C220.36476563 513.99511719 220.60453125 514.86523438 220.8515625 515.76171875 C222.0371714 520.83152398 222.3666381 525.94297998 222.6484375 531.12890625 C222.69151031 531.91647812 222.73458313 532.70404999 222.77896118 533.51548767 C223.21793073 542.09707388 223.33304834 550.67945674 223.45629883 559.27020264 C223.73974815 578.19202818 224.45607366 597.06658306 225.41928101 615.965271 C225.45316799 616.63016289 225.48705498 617.29505478 225.52196884 617.98009491 C225.59062337 619.3260531 225.65939208 620.67200546 225.7282753 622.01795197 C226.61810578 639.47036795 227.25167845 656.90420051 227.47265625 674.37890625 C227.48336025 675.22421402 227.49406425 676.06952179 227.50509262 676.94044495 C227.6068593 685.24886917 227.68498882 693.55727713 227.73182011 701.86619282 C227.75031394 704.93645626 227.77549178 708.00664777 227.80138969 711.07685661 C227.81590979 713.17437652 227.81952811 715.27171532 227.82252502 717.36927795 C227.76640099 727.92032959 227.76640099 727.92032959 230.125 738.125 C235.04642501 742.16782649 240.63896494 743.26826543 246.8125 744.4375 C247.69446045 744.60773682 248.5764209 744.77797363 249.48510742 744.95336914 C258.71310774 746.60373385 267.82508552 747.03719429 276.125 742.125 C288.56066879 728.51245404 290.40612587 710.12804305 293.47705078 692.67773438 C294.148403 688.9966803 294.92534446 685.35575461 295.75927734 681.70898438 C298.57648133 669.38616972 300.02019023 656.85328183 301.57495117 644.32055664 C301.95385179 641.34345494 302.38497227 638.3780913 302.84106445 635.41186523 C305.21841512 619.64898027 306.18900939 603.84336047 307.06866455 587.94281006 C307.26449556 584.43223502 307.46940083 580.92219257 307.67382812 577.41210938 C307.91724106 573.22624477 308.15927745 569.04032436 308.39419556 564.85397339 C308.80952566 557.46785362 309.24971268 550.08411318 309.72607422 542.70166016 C309.82441535 541.15884398 309.92267798 539.6160228 310.02085876 538.07319641 C310.16299598 535.8403076 310.30687766 533.60760965 310.45665169 531.37521935 C310.5934275 529.33614094 310.72352789 527.29661801 310.85327148 525.25708008 C310.92996567 524.09420975 311.00665985 522.93133942 311.0856781 521.73323059 C311.09865433 520.8725145 311.11163055 520.0117984 311.125 519.125 C310.795 518.795 310.465 518.465 310.125 518.125 C309.87878549 515.01829271 309.95959292 511.89254432 309.96875 508.77734375 C309.97048218 507.82923325 309.97221436 506.88112274 309.97399902 505.90428162 C310.03875749 497.29896372 310.65814275 488.79214157 311.40838623 480.22436523 C314.10634821 448.62726981 313.96919824 417.06021579 311.75 385.4375 C311.6870575 384.52347412 311.62411499 383.60944824 311.55926514 382.66772461 C311.37747879 380.10676653 311.18083368 377.54753438 310.9765625 374.98828125 C310.92123352 374.23122391 310.86590454 373.47416656 310.80889893 372.69416809 C310.49698551 369.07907273 310.18017376 367.20776064 308.125 364.125 C307.69350833 361.56989249 307.34037601 359.07095718 307.0625 356.5 C306.92818102 351.94087939 306.92818102 351.94087939 305.125 348.125 C304.84340084 344.99949953 304.6229111 341.88967477 304.44140625 338.7578125 C304.38165619 337.7886087 304.32190613 336.81940491 304.26034546 335.8208313 C304.06489842 332.63081011 303.87616757 329.44042873 303.6875 326.25 C303.55382799 324.04782961 303.41979267 321.84568124 303.28540039 319.64355469 C302.59757849 308.31641192 301.93885689 296.98766788 301.3034668 285.6574707 C301.02764213 280.73939917 300.74331674 275.82182762 300.45619202 270.90440369 C300.27604899 267.80565169 300.10346694 264.70681744 299.94384766 261.60693359 C298.34105625 230.56126814 294.39865818 198.33140669 287.125 168.0625 C285.92219333 162.91741229 284.88271801 157.8012173 284.08251953 152.578125 C282.21092708 140.52957681 278.4810353 125.61561939 269 117.25 C259.60040964 113.57189942 250.9273218 114.01739647 241.25 115.9375 Z M-63.875 148.125 C-63.813125 149.15625 -63.75125 150.1875 -63.6875 151.25 C-63.93799143 156.42682293 -65.43301908 159.5832933 -68.96484375 163.359375 C-71.40970775 166.8991781 -71.31661642 168.9847059 -71.1875 173.25 C-71.16913086 173.90943604 -71.15076172 174.56887207 -71.13183594 175.24829102 C-71.06815097 177.20802941 -70.97202747 179.16662924 -70.875 181.125 C-70.84277344 182.16269531 -70.81054688 183.20039063 -70.77734375 184.26953125 C-70.36359795 191.85487087 -68.38011145 197.07824283 -63.5625 202.9375 C-57.88428117 207.55930602 -52.08891869 208.6565644 -45 209.3125 C-44.24847656 209.39435547 -43.49695313 209.47621094 -42.72265625 209.56054688 C-32.24466209 210.62991335 -22.06433734 210.98517742 -12.9375 204.875 C-8.64633596 200.89610377 -8.30715345 195.19297566 -7.48046875 189.68359375 C-6.94105123 186.51321077 -6.07331432 184.0762204 -4.875 181.125 C-3.95271038 173.99821659 -5.48567846 167.79310656 -7.875 161.125 C-8.41447266 159.60326172 -8.41447266 159.60326172 -8.96484375 158.05078125 C-9.91782227 155.4021114 -10.88773537 152.76104667 -11.875 150.125 C-12.53886719 150.32996094 -13.20273437 150.53492188 -13.88671875 150.74609375 C-14.76972656 151.01550781 -15.65273438 151.28492188 -16.5625 151.5625 C-17.43261719 151.82933594 -18.30273438 152.09617188 -19.19921875 152.37109375 C-33.70271567 156.45748047 -50.28201993 154.38654049 -63.875 148.125 Z M-43.875 214.125 C-44.07082583 218.43716481 -44.25527074 222.7497409 -44.4375 227.0625 C-44.49357422 228.29419922 -44.54964844 229.52589844 -44.60742188 230.79492188 C-44.65576172 231.96474609 -44.70410156 233.13457031 -44.75390625 234.33984375 C-44.8010376 235.42386475 -44.84816895 236.50788574 -44.89672852 237.62475586 C-45.16761942 240.06602564 -45.16761942 240.06602564 -43.875 241.125 C-41.54202567 241.16592937 -39.20794775 241.16741723 -36.875 241.125 C-35.28401514 237.58296529 -34.59685436 234.69784927 -34.4609375 230.82421875 C-34.40292969 229.35952148 -34.40292969 229.35952148 -34.34375 227.86523438 C-34.3128125 226.85783203 -34.281875 225.85042969 -34.25 224.8125 C-34.21132812 223.78576172 -34.17265625 222.75902344 -34.1328125 221.70117188 C-34.03885511 219.17606691 -33.95585192 216.65055856 -33.875 214.125 C-37.175 214.125 -40.475 214.125 -43.875 214.125 Z " fill="#000000" transform="translate(276.875,10.875)"/>
<path d="M0 0 C0.99 0.33 1.98 0.66 3 1 C3.495 9.415 3.495 9.415 4 18 C8.62 18 13.24 18 18 18 C18 15.36 18 12.72 18 10 C18.99 10 19.98 10 21 10 C21 12.64 21 15.28 21 18 C25.95 18 30.9 18 36 18 C36 15.36 36 12.72 36 10 C36.99 10 37.98 10 39 10 C39 17.26 39 24.52 39 32 C38.01 32 37.02 32 36 32 C36 28.37 36 24.74 36 21 C31.05 21 26.1 21 21 21 C21 24.63 21 28.26 21 32 C20.01 32 19.02 32 18 32 C18 28.37 18 24.74 18 21 C13.05 21 8.1 21 3 21 C3 24.63 3 28.26 3 32 C2.01 32 1.02 32 0 32 C0 28.7 0 25.4 0 22 C-1.216875 22.185625 -2.43375 22.37125 -3.6875 22.5625 C-7.02977939 22.98993182 -9.71968417 22.92258883 -13 22 C-13 25.3 -13 28.6 -13 32 C-13.99 32 -14.98 32 -16 32 C-16 28.04 -16 24.08 -16 20 C-10.57002841 18.6425071 -5.59779635 18.93915439 0 19 C-0.33 15.04 -0.66 11.08 -1 7 C-1.99 7 -2.98 7 -4 7 C-4 6.01 -4 5.02 -4 4 C-3.34 4 -2.68 4 -2 4 C-1.34 2.68 -0.68 1.36 0 0 Z " fill="#000000" transform="translate(228,15)"/>
<path d="M0 0 C1.98 0 3.96 0 6 0 C5.95875 0.78375 5.9175 1.5675 5.875 2.375 C5.71271266 5.16116119 5.71271266 5.16116119 8 7 C8 7.99 8 8.98 8 10 C7.401875 9.79375 6.80375 9.5875 6.1875 9.375 C3.71549154 8.69328085 3.71549154 8.69328085 1 11 C0.34 10.67 -0.32 10.34 -1 10 C-1.125 2.25 -1.125 2.25 0 0 Z " fill="#000000" transform="translate(209,49)"/>
<path d="M0 0 C2.31 0 4.62 0 7 0 C7 0.99 7 1.98 7 3 C5.35 3.33 3.7 3.66 2 4 C3.32 4.66 4.64 5.32 6 6 C6 7.32 6 8.64 6 10 C3.6875 10.625 3.6875 10.625 1 11 C0.01 10.34 -0.98 9.68 -2 9 C-1.125 2.25 -1.125 2.25 0 0 Z " fill="#000000" transform="translate(262,49)"/>
<path d="M0 0 C1.67542976 0.28604898 3.34385343 0.61781233 5 1 C4.67 2.98 4.34 4.96 4 7 C4.99 7.33 5.98 7.66 7 8 C7 8.66 7 9.32 7 10 C0.375 11.25 0.375 11.25 -3 9 C-2.484375 8.608125 -1.96875 8.21625 -1.4375 7.8125 C-0.963125 7.214375 -0.48875 6.61625 0 6 C-0.32041397 3.39719432 -0.32041397 3.39719432 -1 1 C-0.67 0.67 -0.34 0.34 0 0 Z " fill="#000000" transform="translate(226,49)"/>
<path d="M0 0 C1.98 0 3.96 0 6 0 C6 2.31 6 4.62 6 7 C4.35 7.66 2.7 8.32 1 9 C-0.61949011 6.42786866 -1.04408751 5.32330841 -0.625 2.25 C-0.41875 1.5075 -0.2125 0.765 0 0 Z " fill="#000000" transform="translate(263,15)"/>
<path d="M0 0 C0.66 0 1.32 0 2 0 C4.4294516 3.6441774 4.16179575 5.71241272 4 10 C3.01 10 2.02 10 1 10 C1 9.01 1 8.02 1 7 C-0.32 7 -1.64 7 -3 7 C-2.38722388 4.03824877 -1.74627478 2.61941217 0 0 Z " fill="#000000" transform="translate(245,49)"/>
<path d="M0 0 C1.67542976 0.28604898 3.34385343 0.61781233 5 1 C5.33 2.65 5.66 4.3 6 6 C3.625 7.5625 3.625 7.5625 1 9 C0.34 8.67 -0.32 8.34 -1 8 C-1 7.34 -1 6.68 -1 6 C-0.34 6 0.32 6 1 6 C0.34 4.35 -0.32 2.7 -1 1 C-0.67 0.67 -0.34 0.34 0 0 Z " fill="#000000" transform="translate(245,15)"/>
</svg>
