<?xml version="1.0" standalone="no"?>
<!DOCTYPE svg PUBLIC "-//W3C//DTD SVG 20010904//EN"
 "http://www.w3.org/TR/2001/REC-SVG-20010904/DTD/svg10.dtd">
<svg version="1.0" xmlns="http://www.w3.org/2000/svg"
 width="600.000000pt" height="655.000000pt" viewBox="0 0 600.000000 655.000000"
 preserveAspectRatio="xMidYMid meet">

<g transform="translate(0.000000,655.000000) scale(0.100000,-0.100000)"
fill="#000000" stroke="none">
<path d="M5141 6469 c-137 -29 -203 -67 -222 -127 -7 -24 -14 -217 -19 -547
-5 -280 -13 -578 -19 -660 -6 -83 -15 -328 -21 -545 -9 -377 -10 -400 -35
-495 -14 -54 -33 -114 -42 -132 -17 -36 -68 -73 -101 -73 -25 0 -87 70 -97
108 -3 15 -15 36 -24 47 -11 12 -26 59 -36 115 -10 52 -33 146 -52 209 -76
253 -100 425 -128 911 -24 403 -39 523 -87 695 -30 106 -60 185 -103 270 -55
110 -64 122 -105 143 -40 21 -56 23 -145 20 -91 -3 -107 -7 -176 -40 -88 -43
-144 -98 -187 -185 -50 -98 -62 -150 -82 -338 -10 -100 -24 -210 -29 -246 -21
-133 -23 -258 -11 -645 12 -422 16 -461 51 -619 15 -68 23 -135 23 -210 1
-107 0 -112 -34 -175 -32 -59 -41 -68 -99 -97 -73 -37 -132 -42 -202 -18 -89
32 -104 67 -113 273 -8 176 -42 437 -76 582 -27 119 -62 372 -75 545 -5 80
-27 278 -45 430 -19 148 -122 439 -205 579 -74 123 -114 169 -177 200 -66 33
-111 33 -193 0 -161 -64 -214 -162 -299 -549 -22 -104 -39 -213 -46 -310 -6
-82 -17 -197 -25 -255 -46 -342 -57 -415 -75 -505 -18 -87 -20 -134 -18 -365
2 -342 -11 -405 -105 -507 -69 -75 -203 -129 -253 -103 -34 19 -214 -1 -359
-39 -96 -25 -263 -92 -405 -163 -50 -26 -428 -396 -498 -488 -55 -74 -90 -152
-106 -242 -15 -79 -31 -312 -47 -698 -5 -135 -14 -290 -19 -345 -16 -169 -24
-659 -12 -775 14 -137 93 -506 133 -624 44 -129 74 -180 133 -225 72 -55 138
-85 241 -111 105 -26 186 -28 237 -7 88 37 165 145 187 263 5 27 12 180 16
339 3 160 10 367 15 460 5 94 14 267 20 385 17 336 37 534 65 640 59 219 104
323 160 365 44 34 206 87 265 86 49 0 163 -32 221 -61 41 -21 100 -83 125
-132 44 -84 48 -121 49 -428 2 -234 5 -310 18 -368 9 -40 24 -128 33 -195 8
-67 24 -178 35 -247 10 -69 24 -195 30 -280 21 -304 112 -670 195 -792 31 -45
84 -82 161 -114 73 -30 115 -30 178 0 68 32 112 81 188 208 53 87 76 142 130
305 62 186 67 208 82 358 9 88 18 167 20 175 2 8 9 80 15 160 17 217 46 424
79 567 16 70 37 193 46 273 15 139 18 149 63 239 l47 93 -2 110 -1 110 33 14
c60 25 128 18 203 -20 60 -30 70 -40 97 -92 45 -89 47 -207 5 -414 -29 -144
-32 -178 -41 -480 -14 -451 -13 -627 5 -750 9 -57 23 -174 31 -260 18 -179 33
-238 83 -335 48 -92 94 -135 189 -182 67 -32 90 -38 161 -41 108 -5 145 3 187
39 62 54 159 293 209 509 18 77 43 332 51 520 10 219 44 587 66 700 11 58 35
157 54 220 19 63 46 171 61 240 14 69 32 132 40 140 8 8 27 40 42 70 16 32 39
61 55 70 25 14 30 13 64 -5 52 -28 69 -57 98 -165 24 -87 27 -119 36 -400 5
-168 16 -460 24 -650 8 -190 17 -527 20 -750 5 -408 11 -478 43 -513 53 -59
257 -112 393 -104 91 6 167 36 209 84 63 71 123 226 145 372 8 53 26 144 39
201 14 58 35 176 45 262 11 87 27 197 35 245 24 146 37 310 67 868 7 132 16
230 24 245 7 14 15 85 18 167 4 120 3 144 -10 155 -17 14 -16 78 7 438 11 174
10 201 -17 640 -14 236 -19 278 -35 299 -14 19 -18 42 -18 117 0 51 -4 95 -9
98 -11 7 -18 86 -31 346 -20 389 -41 645 -65 800 -13 85 -29 198 -35 250 -6
52 -17 124 -25 160 -31 143 -54 258 -65 324 -13 80 -69 226 -112 291 -70 106
-216 138 -427 94z m265 -74 c27 -8 62 -27 76 -42 55 -59 109 -198 128 -328 6
-44 24 -136 40 -205 16 -69 34 -168 40 -220 6 -52 22 -165 35 -250 25 -160 46
-420 65 -785 20 -391 46 -642 71 -672 33 -39 54 -767 29 -1028 -7 -77 -14
-250 -15 -385 -5 -444 -49 -1142 -85 -1332 -5 -26 -19 -120 -30 -209 -11 -89
-29 -197 -40 -240 -11 -42 -29 -132 -41 -200 -33 -197 -101 -349 -172 -383
-57 -27 -152 -31 -259 -12 -116 21 -179 51 -191 91 -4 17 -10 208 -13 425 -2
217 -11 548 -19 735 -9 187 -20 486 -25 665 -9 314 -10 329 -38 426 -39 140
-68 186 -137 219 -55 27 -62 28 -153 9 -70 -14 -113 -102 -162 -328 -16 -74
-42 -179 -59 -233 -64 -208 -100 -473 -121 -898 -24 -471 -62 -675 -170 -909
-58 -126 -71 -136 -170 -136 -68 0 -91 5 -148 30 -84 39 -125 78 -167 160 -45
88 -53 124 -70 297 -8 81 -22 198 -31 258 -20 133 -22 318 -6 755 11 293 14
336 38 440 22 94 27 141 28 255 1 139 1 141 -33 212 -39 85 -55 100 -141 144
-79 40 -173 50 -245 26 l-45 -16 -25 52 c-77 163 -272 324 -463 384 -77 24
-93 25 -200 20 -136 -7 -219 -31 -332 -97 -170 -99 -269 -238 -292 -413 l-11
-85 -38 37 c-20 20 -39 45 -40 55 -4 21 -10 25 -89 55 -99 38 -245 24 -421
-40 -132 -48 -195 -145 -268 -411 -33 -121 -42 -178 -55 -330 -22 -252 -48
-792 -64 -1308 -8 -249 -9 -256 -36 -315 -36 -80 -70 -113 -132 -131 -50 -14
-58 -14 -153 10 -55 13 -127 39 -159 56 -135 72 -167 142 -259 565 l-48 220 1
340 c0 222 6 415 16 555 10 118 20 292 23 385 9 272 25 505 40 576 17 84 51
152 114 226 65 77 366 381 411 415 19 15 87 49 150 76 63 28 129 57 147 67 42
21 206 61 312 75 74 10 85 9 93 -4 12 -22 58 -20 147 4 147 41 237 108 294
221 49 98 59 176 58 463 -1 220 2 275 19 365 18 96 32 193 75 511 7 58 19 173
25 255 8 105 23 201 50 321 77 341 117 414 250 465 66 25 90 24 135 -7 51 -34
66 -53 135 -169 48 -80 73 -137 124 -295 57 -172 66 -209 76 -320 6 -69 15
-152 20 -185 5 -33 14 -122 20 -199 15 -199 47 -426 75 -536 29 -116 63 -378
74 -587 8 -140 11 -159 37 -211 26 -50 36 -61 89 -87 53 -26 70 -30 146 -30
82 0 91 2 165 40 l79 41 45 88 45 88 -1 122 c-1 92 -8 150 -28 241 -32 139
-41 282 -51 755 -5 261 -4 335 9 430 9 63 23 183 32 265 19 187 35 251 83 340
62 116 165 175 305 175 96 0 115 -15 171 -136 43 -92 106 -289 124 -390 13
-69 38 -358 46 -524 10 -216 44 -566 66 -675 11 -55 34 -145 50 -200 17 -55
44 -160 60 -235 55 -256 93 -326 193 -350 68 -16 113 -5 167 39 42 35 63 75
91 174 35 128 38 165 48 572 5 220 15 470 21 555 5 85 14 378 17 651 6 403 10
500 22 513 22 27 66 46 153 66 101 23 188 25 253 5z m-2724 -3271 c90 -30 239
-119 286 -172 32 -36 33 -39 28 -106 -4 -51 -14 -87 -37 -134 -36 -74 -70
-101 -214 -175 l-100 -50 -105 0 c-109 1 -189 17 -265 55 -60 30 -167 112
-193 148 -40 54 -47 180 -14 261 6 15 8 29 5 32 -8 9 70 61 149 100 147 73
320 88 460 41z m-670 -289 c-4 -117 7 -145 92 -221 129 -117 254 -164 436
-164 l119 0 118 59 c65 33 136 76 157 97 44 42 96 144 97 189 0 17 4 39 8 49
7 17 10 16 34 -15 42 -56 67 -122 78 -211 14 -105 5 -180 -27 -237 -33 -60
-107 -233 -129 -301 -19 -62 -106 -257 -164 -370 l-38 -75 -84 -33 c-82 -31
-87 -32 -214 -29 -123 3 -134 6 -207 38 -43 19 -78 40 -78 47 0 7 -30 71 -66
143 -65 132 -141 309 -164 384 -6 22 -20 58 -31 80 -43 90 -54 154 -54 305 1
142 1 147 34 223 26 61 73 137 84 137 1 0 1 -43 -1 -95z m-2 -840 c23 -54 68
-151 101 -214 37 -73 64 -139 71 -177 l11 -60 -38 -50 -38 -49 5 -140 c6 -150
15 -186 65 -252 28 -36 96 -73 161 -88 l33 -7 -2 -146 c-1 -169 0 -172 90
-172 71 0 91 17 91 80 0 26 3 88 6 138 l7 92 28 0 c49 0 133 38 171 77 39 41
44 54 52 123 3 25 12 63 22 85 24 58 16 194 -15 254 -29 56 -25 99 17 166 17
28 51 99 77 158 26 59 49 106 50 105 2 -2 -7 -46 -20 -99 -23 -98 -59 -355
-70 -509 -3 -47 -12 -141 -20 -210 -8 -69 -19 -170 -25 -225 -16 -153 -112
-432 -196 -573 -74 -122 -95 -147 -146 -173 -49 -25 -72 -24 -138 7 -123 57
-157 121 -231 439 -30 129 -43 215 -55 355 -8 102 -24 246 -35 320 -11 74 -24
173 -30 220 -5 47 -21 143 -35 215 -24 119 -26 142 -19 273 4 79 9 142 11 140
2 -2 22 -48 44 -103z m263 -399 c91 -53 299 -63 415 -21 38 14 72 25 76 25 3
0 6 -19 6 -42 0 -27 8 -57 22 -78 32 -52 36 -175 9 -254 -12 -33 -21 -76 -21
-96 0 -46 -27 -83 -83 -113 -38 -20 -56 -22 -182 -22 -123 0 -148 3 -203 24
-113 43 -143 100 -150 286 l-4 130 37 45 c34 41 37 49 33 92 -3 26 -3 48 -1
48 3 0 23 -11 46 -24z m257 -683 c0 -21 -3 -82 -7 -135 l-6 -98 -55 0 c-45 0
-53 3 -48 16 3 9 6 69 6 135 l0 119 55 0 55 0 0 -37z"/>
<path d="M2368 3025 c-22 -29 -23 -39 -4 -32 18 7 24 -24 17 -88 l-6 -50 -71
-3 c-64 -3 -73 -5 -78 -25 -9 -35 -7 -85 4 -92 6 -4 10 13 10 44 l0 49 70 4
70 3 0 -47 c0 -26 5 -50 10 -53 6 -4 10 14 10 48 l0 54 53 7 c108 13 107 13
107 -48 0 -30 5 -58 10 -61 6 -4 10 17 10 54 l0 61 49 0 c27 0 63 -3 80 -6 30
-6 31 -9 31 -55 0 -26 5 -51 10 -54 6 -4 10 33 10 104 0 67 -4 111 -10 111 -5
0 -10 -21 -10 -46 l0 -47 -37 7 c-21 3 -57 6 -80 6 l-43 0 0 41 c0 24 -4 38
-10 34 -5 -3 -10 -21 -10 -39 0 -33 -1 -33 -52 -40 -29 -3 -65 -6 -80 -6 l-28
0 0 95 c0 52 -3 95 -7 95 -5 0 -16 -11 -25 -25z"/>
<path d="M2550 3043 c0 -5 7 -19 16 -31 14 -20 14 -22 0 -22 -9 0 -16 -4 -16
-10 0 -12 20 -13 40 0 11 7 12 15 4 37 -9 25 -44 46 -44 26z"/>
<path d="M2726 3034 c-9 -23 -8 -24 17 -34 17 -7 18 -9 5 -9 -18 -1 -26 -21
-9 -21 39 0 58 44 24 53 -17 4 -17 5 0 6 26 2 20 21 -7 21 -13 0 -27 -7 -30
-16z"/>
<path d="M2197 2703 c-5 -8 -10 -58 -8 -80 1 -19 21 -16 21 2 0 13 4 14 21 5
28 -15 39 -2 15 16 -11 8 -14 14 -7 14 22 0 8 45 -16 48 -11 2 -23 0 -26 -5z"/>
<path d="M2354 2695 c-3 -8 -2 -20 2 -26 5 -9 10 -7 15 7 6 14 8 15 8 3 1 -9
-8 -24 -19 -34 -29 -27 -25 -35 20 -35 22 0 40 5 40 10 0 6 -9 10 -20 10 -19
0 -19 1 -5 24 8 13 13 31 9 40 -8 20 -43 21 -50 1z"/>
<path d="M2538 2680 c-17 -29 -17 -31 0 -37 9 -4 22 -14 29 -22 11 -14 12 -11
13 14 0 36 -10 75 -19 75 -3 0 -14 -14 -23 -30z"/>
<path d="M2715 2678 c-18 -43 -4 -70 33 -66 33 4 36 29 4 43 -27 12 -24 29 6
33 27 4 19 22 -9 22 -13 0 -25 -11 -34 -32z"/>
</g>
</svg>
