<?xml version="1.0" encoding="UTF-8"?>
<svg version="1.1" xmlns="http://www.w3.org/2000/svg" width="600" height="775">
<path d="M0 0 C15.33503552 9.98206039 15.33503552 9.98206039 20.125 18.125 C21.45551335 19.85633745 22.78919099 21.58524512 24.125 23.3125 C32.32595677 34.66884348 35.2874715 49.1989704 33.8125 63.125 C32.59728721 68.8837154 29.81036456 73.66493208 26.93066406 78.72265625 C23.14722261 85.57995754 20.60255444 92.73075025 18.0625 100.125 C13.94300352 112.08011545 9.32559884 123.43711156 3.26171875 134.53515625 C2.70097656 135.57542969 2.14023437 136.61570313 1.5625 137.6875 C1.06621094 138.55503906 0.56992187 139.42257813 0.05859375 140.31640625 C-1.96281829 146.39755794 0.45642543 152.59874411 2.1940918 158.52490234 C8.97870266 181.99254451 9.38492469 206.48552517 10.81533813 230.72549438 C12.60898365 261.09287344 14.77163058 290.66658439 23.95092773 319.8659668 C25.77667328 325.73039253 27.24059137 331.61384551 28.5 337.625 C28.75148804 338.81863159 28.75148804 338.81863159 29.00805664 340.03637695 C29.70481226 343.49010627 30.125 346.58717353 30.125 350.125 C31.115 350.455 32.105 350.785 33.125 351.125 C34.6953125 353.8125 34.6953125 353.8125 36.25 357.125 C37.81012787 360.87301121 37.81012787 360.87301121 40.125 364.125 C43.97336761 364.49503535 46.33795977 364.60057835 49.69140625 362.57421875 C52.68134821 359.56507973 53.70598895 356.60996075 54.8125 352.625 C55.11124023 351.65820312 55.11124023 351.65820312 55.41601562 350.671875 C58.52568012 340.14999382 59.43394195 329.54604288 59.64572144 318.6224823 C59.68896051 316.39345927 59.74291125 314.16489023 59.79907227 311.93615723 C59.8974256 307.96522884 59.98667639 303.99415819 60.07287598 300.02294922 C60.22543278 293.00462154 60.38859195 285.98658049 60.5625 278.96875 C60.59093837 277.79977362 60.59093837 277.79977362 60.61995125 276.60718155 C60.90595741 265.12410315 61.45105156 253.67548475 62.15234375 242.2109375 C63.25716187 224.04514252 63.52299912 205.90018717 63.66760254 187.70471191 C63.98090183 149.05357456 63.98090183 149.05357456 64.46484375 135.3671875 C64.4856752 134.53551056 64.50650665 133.70383362 64.52796936 132.84695435 C64.82277991 126.00836825 65.98955945 119.52737062 70.625 114.3125 C74.97019243 111.19342623 80.05013761 109.64816063 85.125 108.125 C85.86105469 107.89683594 86.59710938 107.66867188 87.35546875 107.43359375 C99.11147789 104.45817905 115.47424339 103.79932702 126.125 110.125 C136.58731425 117.0305434 141.42203953 133.51892328 144.125 145.125 C144.80987038 148.88236226 145.36922117 152.65727033 145.91333008 156.43725586 C146.83159601 162.68719193 148.13598679 168.78596334 149.5625 174.9375 C152.43771396 187.54901361 154.00399612 200.2828953 155.58886719 213.10864258 C156.07134666 216.85044109 156.65889538 220.57247884 157.24935913 224.29852295 C158.9385707 235.03884449 159.93792583 245.7164241 160.625 256.5625 C160.74680608 258.37568526 160.86913593 260.18883541 160.99194336 262.00195312 C161.71560915 272.86272088 162.33054658 283.72833822 162.91015625 294.59765625 C162.97548553 295.80820175 163.04081482 297.01874725 163.10812378 298.26597595 C163.43012158 304.24243207 163.74200369 310.21907904 164.03515625 316.19702148 C164.14942994 318.38136388 164.26399852 320.56569087 164.37890625 322.75 C164.424673 323.7573671 164.47043976 324.76473419 164.51759338 325.80262756 C164.56794235 326.72627609 164.61829132 327.64992462 164.67016602 328.6015625 C164.72987328 329.8093335 164.72987328 329.8093335 164.79078674 331.04150391 C165.02509585 333.42571741 165.02509585 333.42571741 167.125 336.125 C167.41210938 338.17797852 167.41210938 338.17797852 167.46875 340.50390625 C167.51322266 341.76170898 167.51322266 341.76170898 167.55859375 343.04492188 C167.60296268 344.81054441 167.64723308 346.57616943 167.69140625 348.34179688 C167.72105469 349.17904297 167.75070312 350.01628906 167.78125 350.87890625 C167.79994141 351.64533447 167.81863281 352.4117627 167.83789062 353.20141602 C167.965382 355.36203194 167.965382 355.36203194 170.125 357.125 C170.50390625 358.98730469 170.50390625 358.98730469 170.6875 361.296875 C170.7611377 362.17182617 170.83477539 363.04677734 170.91064453 363.94824219 C170.98138184 364.91407227 171.05211914 365.87990234 171.125 366.875 C171.20476074 367.90012695 171.28452148 368.92525391 171.36669922 369.98144531 C171.53748341 372.20996257 171.70380193 374.43882548 171.86621094 376.66796875 C172.11952037 380.05180045 172.40504845 383.43166179 172.6953125 386.8125 C175.5419833 421.82458082 175.94402546 458.26304101 171.125 493.125 C172.445 493.785 173.765 494.445 175.125 495.125 C174.8643786 499.37954003 174.59774099 503.63364646 174.32543945 507.88745117 C174.23360002 509.33558841 174.14342625 510.78383225 174.05493164 512.23217773 C173.92768694 514.31003399 173.79452119 516.38743733 173.66015625 518.46484375 C173.581604 519.71644287 173.50305176 520.96804199 173.42211914 522.25756836 C173.125 525.125 173.125 525.125 172.125 526.125 C171.9137786 527.59724102 171.76505229 529.07852648 171.64257812 530.56079102 C171.5632605 531.50647446 171.48394287 532.4521579 171.40222168 533.42649841 C171.32105103 534.462668 171.23988037 535.49883759 171.15625 536.56640625 C171.02627625 538.17860802 171.02627625 538.17860802 170.89367676 539.82337952 C169.94616182 551.8920179 169.27750441 563.97499057 168.625 576.0625 C166.09651638 622.82551597 166.09651638 622.82551597 162.6875 644.375 C162.46269667 645.83548216 162.23875425 647.29609707 162.015625 648.75683594 C161.68529729 650.91896455 161.35446489 653.08099214 161.02005005 655.24249268 C160.26946717 660.10618865 159.59855856 664.97624007 158.95874023 669.85546875 C157.77955418 678.75759023 156.04565717 687.42947948 153.95874023 696.16333008 C152.78921419 701.07639348 151.77848064 705.95430007 151.01245117 710.94604492 C148.93885764 724.45166653 144.2086625 740.76984631 133.1875 749.625 C126.98369778 754.15601478 119.95883819 754.4857262 112.5625 754.4375 C111.68424561 754.43331055 110.80599121 754.42912109 109.90112305 754.42480469 C97.72328334 754.2158194 83.02948404 752.29931689 74.125 743.125 C69.92563116 734.30632543 70.97149249 723.10979425 70.92535782 713.5703373 C70.9096263 710.45838347 70.88186365 707.34656415 70.85510063 704.23468876 C70.83363327 701.72084833 70.81364139 699.20699871 70.79370117 696.69314575 C70.54893782 666.8628769 69.77032894 637.12930322 68.21582031 607.33959961 C67.27351338 589.19091481 66.67936255 571.06395977 66.41601562 552.89282227 C66.34134186 532.73926877 66.34134186 532.73926877 62.75 513 C62.54117187 512.20335937 62.33234375 511.40671875 62.1171875 510.5859375 C60.7184357 505.46855286 59.14305005 501.14305005 55.3125 497.3125 C52.30742361 495.68117282 50.49313149 495.56364475 47.125 496.125 C43.33849091 499.68877326 41.25567485 504.44237619 39.125 509.125 C38.63773437 510.1459375 38.15046875 511.166875 37.6484375 512.21875 C35.65927786 516.89641724 34.79883049 521.78364411 33.8125 526.75 C32.20435452 534.52942703 30.3437079 542.14141604 28.0625 549.75 C19.87898092 577.61911176 18.46461675 606.35072547 16.81460571 635.1942749 C13.1412859 699.23762733 13.1412859 699.23762733 0.125 726.125 C-0.42027344 727.32640625 -0.96554687 728.5278125 -1.52734375 729.765625 C-2.12015312 731.03230202 -2.71518013 732.29794371 -3.3125 733.5625 C-3.84746094 734.69558594 -4.38242187 735.82867188 -4.93359375 736.99609375 C-7.60749181 741.3055351 -10.49357343 744.24036349 -15.3671875 746.05078125 C-30.01662877 748.42831352 -41.14425604 745.79727203 -53.875 738.125 C-59.4710594 733.06072987 -63.35348766 727.71100691 -66.5 720.875 C-66.94859375 719.94880859 -66.94859375 719.94880859 -67.40625 719.00390625 C-72.16087972 708.80038671 -72.71116733 697.67686411 -73.875 686.625 C-74.12401441 684.30313515 -74.37447377 681.98143079 -74.62542725 679.65977478 C-74.79210382 678.11302312 -74.95734141 676.56611574 -75.12115479 675.01905823 C-75.52427989 671.2366102 -75.95121514 667.46010444 -76.43652344 663.68725586 C-77.59316221 654.65065025 -78.19188948 645.81439393 -78.125 636.6875 C-78.12256287 636.01409576 -78.12012573 635.34069153 -78.11761475 634.6468811 C-78.05261634 618.69704571 -77.5145439 602.75279658 -77 586.8125 C-76.96088501 585.53948029 -76.92177002 584.26646057 -76.88146973 582.9548645 C-76.7657351 579.26512435 -76.63855816 575.57595435 -76.5078125 571.88671875 C-76.45764481 570.24607956 -76.45764481 570.24607956 -76.40646362 568.57229614 C-76.02423734 558.49046246 -74.56080626 548.64148286 -72.3125 538.8125 C-69.60780278 526.39548095 -67.46834889 513.08661749 -72.875 501.125 C-73.555625 499.2996875 -73.555625 499.2996875 -74.25 497.4375 C-77.49520789 492.05397684 -84.21150764 490.05372243 -89.875 488.125 C-96.17321379 486.70979244 -102.39314971 489.03395668 -107.875 492.125 C-111.61778175 496.66170515 -111.98660258 501.44804348 -112.26953125 507.171875 C-112.33567627 508.39342285 -112.40182129 509.6149707 -112.4699707 510.87353516 C-112.50482574 511.52445129 -112.53968079 512.17536743 -112.57559204 512.8460083 C-113.76625002 534.43370569 -115.53538797 556.16799187 -121.0144043 577.13427734 C-125.58714726 595.23860664 -126.78895732 614.30454787 -128.4375 632.875 C-128.49878082 633.56376221 -128.56006165 634.25252441 -128.62319946 634.9621582 C-128.80659954 637.02681082 -128.98936823 639.09151824 -129.171875 641.15625 C-129.23122726 641.82724731 -129.29057953 642.49824463 -129.35173035 643.1895752 C-129.63662198 646.41389138 -129.91925545 649.63836326 -130.19726562 652.86328125 C-131.5564187 668.25589824 -133.91401585 682.47880929 -138.875 697.125 C-139.32601074 698.49978516 -139.32601074 698.49978516 -139.78613281 699.90234375 C-145.68163158 717.7541344 -153.529218 739.14380284 -169.875 750.125 C-175.51368872 752.80035808 -180.7430876 753.04126277 -186.875 752.125 C-197.43801088 748.30241148 -205.59632294 743.21758588 -210.58666992 732.89208984 C-214.56562541 724.10456505 -217.09674262 715.00501567 -219.27783203 705.63232422 C-219.86164202 703.18108604 -220.50204132 700.75073292 -221.15234375 698.31640625 C-224.61960339 684.68930011 -225.86400057 671.01399141 -227.04663086 657.04748535 C-228.26097054 642.75299039 -229.87936886 628.57302255 -231.9375 614.375 C-232.06156219 613.50861908 -232.18562439 612.64223816 -232.31344604 611.74960327 C-233.47031716 603.71483258 -234.69528171 595.79370116 -236.5546875 587.88671875 C-238.68292045 577.59069154 -238.11934501 567.14975952 -237.9375 556.6875 C-236.47677141 525.24751665 -236.47677141 525.24751665 -250.25 498.2890625 C-258.48613266 491.49915551 -270.32746085 488.52939974 -280.875 489.125 C-283.96856403 489.84478444 -286.93860583 490.83451628 -289.9375 491.875 C-290.71416016 492.12765625 -291.49082031 492.3803125 -292.29101562 492.640625 C-300.813836 495.52727034 -305.70625985 499.19873034 -309.875 507.125 C-317.23792273 523.72041623 -321.10012116 541.11084704 -322.45703125 559.14453125 C-322.57920095 560.66826038 -322.70171785 562.1919617 -322.82455444 563.71563721 C-324.1427398 580.4198064 -325.04649645 597.14920354 -325.87594223 613.88365555 C-326.00220045 616.41918974 -326.13100925 618.9545839 -326.26040649 621.48995972 C-327.45325521 644.93433009 -328.377491 668.35791045 -328.6673584 691.83345032 C-329.08741841 724.56976495 -329.08741841 724.56976495 -340.46875 736.84375 C-346.61838285 742.54613683 -353.12764373 744.80285354 -361.49609375 744.53515625 C-376.92207966 742.66263773 -392.08745028 737.66249471 -403.19140625 726.41015625 C-407.24758014 720.9046766 -409.68691115 714.46210764 -411.82421875 708.01171875 C-412.07862228 707.24445969 -412.33302582 706.47720062 -412.59513855 705.68669128 C-415.71153852 695.94238017 -417.67996107 685.95626372 -419.6875 675.9375 C-420.08432785 674.00696417 -420.48211056 672.07662435 -420.88085938 670.14648438 C-423.31979057 658.25442787 -425.03484602 647.09373516 -425.078125 634.91015625 C-425.08500336 633.60769958 -425.09188171 632.30524292 -425.09896851 630.96331787 C-425.11828281 626.70470994 -425.12264855 622.44614609 -425.125 618.1875 C-425.12588371 617.45952084 -425.12676743 616.73154167 -425.12767792 615.98150253 C-425.15374012 591.79082054 -424.25062198 567.81164139 -422.45936584 543.68215942 C-421.73268757 533.65107497 -421.32656875 523.60976196 -420.93087769 513.56106567 C-419.32847766 472.97147584 -416.28013867 446.9080455 -386.25 417.4375 C-383.87936696 415.1037278 -381.51234769 412.76636242 -379.1484375 410.42578125 C-378.3060704 409.5936335 -378.3060704 409.5936335 -377.44668579 408.74467468 C-374.47156484 405.78577336 -371.63354789 402.77694962 -368.921875 399.5703125 C-359.99624053 389.10658274 -345.83232839 384.12757309 -333.39599609 379.14306641 C-331.73465761 378.47215981 -330.08091221 377.78208762 -328.43603516 377.07177734 C-322.00648076 374.34451581 -315.59566942 372.71447336 -308.75 371.375 C-307.65921143 371.1589209 -306.56842285 370.9428418 -305.44458008 370.72021484 C-286.40344261 367.15904853 -286.40344261 367.15904853 -277.8125 369.74609375 C-271.79338322 370.92321941 -264.02667166 366.49276053 -259 363.4375 C-250.40416158 357.22420375 -247.16114143 348.24102765 -245.33618164 338.14379883 C-244.64610443 333.19134295 -244.8469955 328.25673035 -244.953125 323.26953125 C-244.98478735 321.11347076 -245.01449858 318.95738093 -245.04248047 316.80126953 C-245.05712341 315.68061096 -245.07176636 314.55995239 -245.08685303 313.40533447 C-245.27859697 295.97442994 -245.11681834 279.52234971 -241.37890625 262.44921875 C-239.22836966 252.58179969 -238.00915615 242.5682619 -236.6875 232.5625 C-236.55574371 231.57868347 -236.42398743 230.59486694 -236.28823853 229.58123779 C-234.79048446 218.34663382 -233.53835081 207.19597253 -232.9375 195.875 C-231.55793774 171.51231367 -226.92913617 133.46470468 -208.75 115.8125 C-201.70059779 110.36241151 -193.3275507 107.20705297 -184.3984375 107.71875 C-175.9365032 109.08104283 -170.07677281 114.58299587 -164.875 121.125 C-157.23857255 132.18834634 -151.85209181 143.97802509 -147.69433594 156.71337891 C-146.89143732 159.07661865 -145.99577355 161.38161538 -145.0703125 163.69921875 C-137.76131995 182.91070263 -136.8110972 203.82988734 -134.875 224.125 C-134.7602533 225.32576172 -134.7602533 225.32576172 -134.64318848 226.55078125 C-134.04463884 232.84334515 -133.4644233 239.13753044 -132.89306641 245.43261719 C-131.58977275 259.62730499 -129.83236883 273.46153761 -126.4375 287.3125 C-121.33146999 308.42024045 -119.68644635 330.62980943 -118.64575195 352.28173828 C-118.31552683 358.17766052 -118.00278394 363.02940498 -114.875 368.125 C-109.69620574 371.41534858 -102.91837065 373.07921642 -96.875 372.125 C-89.02108439 369.43516224 -83.22221011 367.23784038 -79.1875 359.75 C-73.32364696 346.1330282 -76.82806473 329.97236213 -80.00732422 316.09130859 C-82.73507077 304.12664414 -83.03645629 292.03534041 -83.4453125 279.8046875 C-83.4789068 278.8139945 -83.4789068 278.8139945 -83.51317978 277.80328751 C-83.63194487 274.29685451 -83.74736545 270.79033088 -83.85986328 267.28369141 C-83.95118966 264.45273472 -84.04825759 261.62207334 -84.15087891 258.79150391 C-85.02380215 234.63648685 -85.3480078 210.55561111 -81.9375 186.5625 C-81.66111309 184.52682781 -81.38859824 182.49066027 -81.11630249 180.45443726 C-80.85616841 178.5127549 -80.59245129 176.57155362 -80.32861328 174.63037109 C-79.83203371 170.7929709 -79.44257337 166.95488218 -79.08300781 163.1027832 C-78.44305509 156.24882945 -77.23378994 150.11232269 -74.58203125 143.703125 C-73.18559201 138.6111366 -75.04955648 134.28701567 -77.3515625 129.73828125 C-77.85413574 128.72709229 -78.35670898 127.71590332 -78.87451172 126.67407227 C-79.41092285 125.60600342 -79.94733398 124.53793457 -80.5 123.4375 C-85.33617995 113.58440841 -89.59107061 103.75726882 -93.11035156 93.36474609 C-93.88914082 91.08357984 -94.70334276 88.81739173 -95.5234375 86.55078125 C-102.93857833 65.73537389 -106.51184118 44.8792752 -96.875 24.125 C-88.5658046 7.48371885 -72.54812004 -2.6810475 -55.2578125 -8.54296875 C-35.83415669 -14.09415712 -16.89572119 -9.89494783 0 0 Z M-78.875 10.125 C-83.06615726 18.35351058 -83.02691891 28.10592473 -81 36.9375 C-73.67504805 47.92492792 -60.66102411 56.08070854 -47.875 59.125 C-29.63022747 62.69520009 -16.4464342 58.94143577 -0.859375 49.25 C6.02437116 44.32652592 9.81453871 38.20661352 12.125 30.125 C12.85118683 24.43420901 13.61067986 18.09976744 9.9375 13.3125 C-13.47142065 -8.98961589 -54.66133461 -14.08866539 -78.875 10.125 Z M-87.875 19.125 C-94.12230253 27.23023637 -97.43259878 36.96820528 -97.875 47.125 C-97.9265625 47.78371094 -97.978125 48.44242188 -98.03125 49.12109375 C-98.63060646 62.33190896 -94.10926968 75.58148613 -89.75 87.875 C-89.50856262 88.5661087 -89.26712524 89.25721741 -89.01837158 89.9692688 C-83.19523923 106.61749171 -76.07186487 122.3343077 -67.625 137.81640625 C-65.875 141.125 -65.875 141.125 -64.875 144.125 C-57.84277502 149.31011148 -50.47088382 151.44692664 -41.875 152.125 C-40.7096875 152.21910156 -39.544375 152.31320313 -38.34375 152.41015625 C-31.27453147 152.69975659 -25.04234326 151.98065543 -18.3125 149.9375 C-17.65797852 149.74148193 -17.00345703 149.54546387 -16.32910156 149.34350586 C-10.51901888 147.39259324 -6.44553549 144.95043086 -3.47436523 139.60522461 C-2.01761703 136.49775271 -0.68067384 133.36135642 0.625 130.1875 C1.10275879 129.06102051 1.58051758 127.93454102 2.07275391 126.77392578 C3.01480955 124.55036675 3.9507276 122.32419537 4.87988281 120.09521484 C5.89154793 117.68189763 6.92558081 115.28385075 7.9921875 112.89453125 C10.49924989 107.25039337 12.64218485 101.64122964 14.5 95.75 C16.76329583 88.71026815 19.83377109 82.32267696 23.2578125 75.78125 C23.88182573 74.56332733 24.50427681 73.34460275 25.125 72.125 C25.69347656 71.00867188 26.26195312 69.89234375 26.84765625 68.7421875 C28.43189637 64.25592955 28.53162326 60.46369308 28.4375 55.75 C28.44233398 54.55117187 28.44233398 54.55117187 28.44726562 53.328125 C28.35341711 42.78296429 25.9328277 32.58253414 18.8125 24.5 C18.255625 24.04625 17.69875 23.5925 17.125 23.125 C17.05023438 23.77984375 16.97546875 24.4346875 16.8984375 25.109375 C15.44007357 35.2321364 11.92272018 44.98275032 3.65625 51.46875 C-7.2655521 58.61511434 -18.61491002 64.73853254 -31.9375 64.5625 C-32.75605469 64.55492676 -33.57460938 64.54735352 -34.41796875 64.53955078 C-52.27273869 64.06623354 -66.8382981 57.33093168 -79.875 45.125 C-85.30407606 39.10737366 -85.92194944 33.69305854 -86.4375 25.8125 C-86.56318359 23.93111328 -86.56318359 23.93111328 -86.69140625 22.01171875 C-86.75199219 21.05910156 -86.81257813 20.10648438 -86.875 19.125 C-87.205 19.125 -87.535 19.125 -87.875 19.125 Z M93.25 115.9375 C92.36441406 116.10314453 91.47882813 116.26878906 90.56640625 116.43945312 C82.04662979 117.98138611 82.04662979 117.98138611 75.50733948 123.2480011 C73.80508239 126.79082964 73.57145166 129.97505096 73.45288086 133.83276367 C73.41994147 134.57809199 73.38700209 135.32342031 73.35306454 136.09133434 C73.04854794 143.54143775 72.94534171 150.99695751 72.89520454 158.45253944 C72.87824531 160.89600951 72.85500068 163.339357 72.83030701 165.78276062 C72.7610694 172.71863197 72.70061656 179.6545576 72.64819336 186.59057617 C72.50345911 205.27766231 72.16157961 223.89875644 71.01617622 242.55366516 C70.31445101 253.98870285 69.84252315 265.41007298 69.5625 276.86328125 C69.54335478 277.6322983 69.52420956 278.40131535 69.50448418 279.19363594 C69.3314096 286.19857185 69.17385968 293.2038366 69.02050781 300.20922852 C68.93431295 304.12184502 68.84002132 308.0342058 68.74124146 311.94652367 C68.68961445 314.08807131 68.64720386 316.22965968 68.60522461 318.37141418 C68.32529427 330.43759327 67.34668273 342.52739067 63.8125 354.125 C63.62494141 354.80949219 63.43738281 355.49398437 63.24414062 356.19921875 C61.34423606 362.61368755 58.29099156 367.43552659 53 371.5625 C47.71692535 374.23864262 41.711428 373.87720962 36.0390625 372.6875 C31.08843676 370.95802376 28.34130664 367.68237227 26.125 363.125 C22.32835151 353.32296097 20.19656363 343.16810861 18.07250977 332.90283203 C16.91956974 327.43747445 15.61113673 322.09364139 13.92919922 316.76611328 C13.50018311 315.39688721 13.50018311 315.39688721 13.0625 314 C12.83832901 313.28642838 12.61415802 312.57285675 12.38319397 311.83766174 C10.60672028 306.04826248 9.19506697 300.27418646 8.07421875 294.32421875 C7.81845566 292.96799156 7.81845566 292.96799156 7.55752563 291.58436584 C5.7830814 281.7934724 4.82789948 271.97113785 4 262.0625 C3.83247388 260.1526447 3.66466275 258.24281438 3.49658203 256.33300781 C2.31182017 242.60386112 1.41736775 228.86406634 0.80810547 215.09741211 C0.37659924 205.69125769 -0.58066015 196.44486848 -1.875 187.125 C-4.06175436 190.40513153 -4.21509868 192.02973526 -4.625 195.875 C-5.56432249 201.81209179 -7.05221065 205.44363841 -11.875 209.125 C-17.41894534 212.46571383 -22.51897679 213.44256382 -28.875 214.125 C-28.93034912 214.68372803 -28.98569824 215.24245605 -29.04272461 215.81811523 C-29.29877135 218.39963121 -29.5556318 220.98106564 -29.8125 223.5625 C-29.89951172 224.44099609 -29.98652344 225.31949219 -30.07617188 226.22460938 C-30.6379026 231.8627215 -31.23923385 237.49474661 -31.875 243.125 C-36.40453881 245.3897694 -39.90547769 245.44052523 -44.875 245.125 C-46.195 244.465 -47.515 243.805 -48.875 243.125 C-48.875 233.225 -48.875 223.325 -48.875 213.125 C-53.165 211.805 -57.455 210.485 -61.875 209.125 C-67.49388313 205.75367012 -67.49388313 205.75367012 -69.5625 202.125 C-69.95824219 201.444375 -70.35398437 200.76375 -70.76171875 200.0625 C-71.12910156 199.423125 -71.49648438 198.78375 -71.875 198.125 C-72.535 197.135 -73.195 196.145 -73.875 195.125 C-75.80857164 212.63072896 -76.16955181 229.52919219 -75.29931641 247.10302734 C-74.98747415 253.64745739 -74.79169076 260.18831253 -74.65625 266.73828125 C-74.63787582 267.58923874 -74.61950165 268.44019623 -74.60057068 269.31694031 C-74.45247079 276.21213617 -74.45247079 276.21213617 -74.39627075 279.63900757 C-74.17727089 292.96108743 -73.15608356 305.78810876 -70.27539062 318.84423828 C-66.14219655 337.77011859 -65.79126921 354.1987376 -75.875 371.125 C-75.875 371.785 -75.875 372.445 -75.875 373.125 C-76.94041016 373.54072266 -76.94041016 373.54072266 -78.02734375 373.96484375 C-81.83155793 375.51470878 -85.53320825 377.26482827 -89.25390625 379.00390625 C-97.91348691 382.70778054 -105.37455402 381.29777302 -114.078125 378.29296875 C-118.68667248 376.36844962 -122.0077482 374.86160248 -124.125 370.1875 C-124.43953125 369.51847656 -124.7540625 368.84945312 -125.078125 368.16015625 C-126.83717514 363.66768015 -127.17051108 359.22381217 -127.48828125 354.44140625 C-127.60018251 352.87243673 -127.71267487 351.30350928 -127.82568359 349.73461914 C-127.88423523 348.91156281 -127.94278687 348.08850647 -128.00311279 347.24050903 C-129.5394417 325.96863425 -131.48894809 304.80440263 -136.375 284 C-139.96869994 268.59178937 -141.29574856 252.8398083 -142.875 237.125 C-142.96114563 236.27017029 -143.04729126 235.41534058 -143.13604736 234.53460693 C-144.72339086 218.76539695 -144.72339086 218.76539695 -145.48071289 210.88891602 C-145.85478886 207.01093788 -146.24622919 203.13512082 -146.65328979 199.26046753 C-146.86274716 197.24301682 -147.05886494 195.22419406 -147.25415039 193.20532227 C-148.25014511 184.25899803 -150.42395445 176.13449127 -153.34106445 167.66333008 C-154.06139446 165.56571936 -154.75562343 163.46073678 -155.44726562 161.35351562 C-160.5804164 145.99090946 -167.92604056 125.1744397 -182.875 117.125 C-188.68397451 115.39083632 -192.62994592 117.59929178 -197.875 120.125 C-208.31343795 126.1174366 -211.7750608 136.43635139 -214.79638672 147.49853516 C-216.9748804 156.00530098 -218.97104173 164.55299119 -220.875 173.125 C-221.07456299 173.97102783 -221.27412598 174.81705566 -221.47973633 175.6887207 C-223.01048399 182.5524877 -223.43226138 189.46797872 -223.90771484 196.46670532 C-225.04075633 212.72312527 -227.04865586 228.81184018 -229.375 244.9375 C-229.5244809 245.98253693 -229.67396179 247.02757385 -229.82797241 248.10427856 C-230.26442355 251.13949605 -230.7078112 254.17356275 -231.15625 257.20703125 C-231.29924026 258.1754747 -231.44223053 259.14391815 -231.58955383 260.14170837 C-232.19679743 264.1370088 -232.82160945 268.09745852 -233.76171875 272.02929688 C-236.85741524 285.01523496 -236.06049212 298.03789521 -235.81347656 311.30419922 C-235.16937148 349.32334949 -235.16937148 349.32334949 -247.1875 365.5 C-257.52167937 375.59384962 -271.60322685 379.79239512 -285.875 380.125 C-285.875 379.465 -285.875 378.805 -285.875 378.125 C-293.35437274 377.7932206 -300.0923409 378.71676471 -307.375 380.375 C-308.82712891 380.68244141 -308.82712891 380.68244141 -310.30859375 380.99609375 C-316.81214296 382.43647713 -322.77664878 384.46354409 -328.875 387.125 C-329.82713379 387.53347168 -330.77926758 387.94194336 -331.76025391 388.36279297 C-334.83119572 389.69576513 -337.88509433 391.06266409 -340.9375 392.4375 C-342.47374023 393.10942383 -342.47374023 393.10942383 -344.04101562 393.79492188 C-354.16552543 398.36874196 -361.58726904 404.37999502 -368.9375 412.625 C-376.1750824 420.57188475 -376.1750824 420.57188475 -380 423.75 C-397.41795845 438.32726136 -408.07948411 454.74292254 -410.18896484 477.51416016 C-410.45292198 481.17481518 -410.67246141 484.83543249 -410.875 488.5 C-410.9569117 489.90381557 -411.03894727 491.30762393 -411.12109375 492.71142578 C-411.90820707 506.4944398 -412.44420532 520.28897882 -412.99899292 534.08288574 C-413.50873485 546.70016061 -414.16417949 559.26974611 -415.19091797 571.85668945 C-416.6184041 589.81802657 -417.26728436 607.96746367 -416.91650391 625.98828125 C-416.887876 627.46211343 -416.86720083 628.9361142 -416.85302734 630.41015625 C-416.6882979 643.96822722 -414.45836321 656.71881676 -411.55566406 669.94042969 C-410.88445914 673.08074427 -410.27284349 676.22690575 -409.6796875 679.3828125 C-405.64171865 703.94870596 -405.64171865 703.94870596 -392.46484375 724.1015625 C-381.41957701 730.96622018 -368.19698366 736.68932384 -354.875 735.125 C-348.55626936 733.01875645 -344.69492154 728.5684071 -341.64453125 722.796875 C-337.34267863 712.91969715 -337.76942116 702.55584266 -337.63525391 691.95458984 C-337.33531339 668.31549419 -336.30271203 644.72157417 -335.12918472 621.11286163 C-335.00227081 618.54592891 -334.8778003 615.97888869 -334.7539978 613.4118042 C-333.92159653 596.23320362 -332.98112756 579.06305488 -331.63433456 561.91614151 C-331.51622813 560.40502902 -331.4013751 558.89365763 -331.2902565 557.38201523 C-329.70030807 536.01842776 -325.22309349 506.47309349 -309.5 490.75 C-303.30362396 486.91414817 -297.31904132 484.51425771 -290.375 482.4375 C-289.66311523 482.22295166 -288.95123047 482.00840332 -288.21777344 481.78735352 C-283.43401022 480.40995962 -278.82979827 479.62047983 -273.875 479.125 C-272.98554688 479.03476562 -272.09609375 478.94453125 -271.1796875 478.8515625 C-263.40686035 478.52665333 -255.65939385 480.25502886 -248.875 484.125 C-248.20703125 486.6015625 -248.20703125 486.6015625 -247.875 489.125 C-246.25327397 490.86473018 -246.25327397 490.86473018 -244.1875 492.3125 C-234.39592493 500.51009773 -230.94591173 512.19054223 -229.61376953 524.54833984 C-228.84737401 534.05568759 -228.8245886 543.57478278 -229 553.10546875 C-229.30112073 570.99691839 -227.92267493 587.47224653 -224.58935547 605.12548828 C-223.23906391 612.50477553 -222.25520157 619.94243152 -221.25 627.375 C-221.08966278 628.54364594 -221.08966278 628.54364594 -220.92608643 629.73590088 C-219.78699583 638.09031118 -218.78354651 646.4287414 -218.17578125 654.83984375 C-218.12479782 655.54451782 -218.07381439 656.24919189 -218.02128601 656.97521973 C-217.9456115 658.0265509 -217.9456115 658.0265509 -217.8684082 659.09912109 C-216.90740059 672.43529367 -215.14931059 685.22621878 -212.0625 698.25 C-211.9016391 698.93798676 -211.7407782 699.62597351 -211.57504272 700.33480835 C-207.42790015 720.44790054 -207.42790015 720.44790054 -196.875 737.125 C-187.98559901 742.77664985 -187.98559901 742.77664985 -177.91796875 743.6640625 C-163.29164959 736.4586758 -155.73045544 718.72161303 -150.67024231 704.05831909 C-150.16780248 702.56353291 -149.6706924 701.06694457 -149.17895508 699.56860352 C-148.43002713 697.2897615 -147.65546194 695.02084058 -146.87695312 692.75195312 C-142.24686382 679.09326857 -140.39045477 665.68286524 -138.9375 651.375 C-138.76205675 649.68461658 -138.58627056 647.99426872 -138.41015625 646.30395508 C-137.59258778 638.41358965 -136.80667559 630.52126957 -136.08984375 622.62109375 C-134.4454674 604.57628539 -132.73166667 586.45602775 -128.37207031 568.82568359 C-123.53820406 549.24805042 -121.65990426 527.97959373 -121.20239258 507.84204102 C-120.97255449 499.54603011 -119.54936057 491.46017218 -113.875 485.125 C-107.28310047 480.36810462 -97.91083601 477.96681011 -89.875 479.125 C-86.07020389 480.16934315 -82.49480706 481.56260464 -78.875 483.125 C-78.05257813 483.46402344 -77.23015625 483.80304688 -76.3828125 484.15234375 C-68.8679202 487.70736856 -65.63528794 493.30421144 -62.84375 500.94921875 C-59.34600687 513.07796691 -60.69194984 524.92098152 -62.92578125 537.1171875 C-63.13618042 538.27142212 -63.13618042 538.27142212 -63.35083008 539.44897461 C-63.73447638 541.40758992 -64.1595027 543.35822399 -64.6081543 545.30297852 C-67.46727219 558.53328639 -67.68296279 571.81952219 -68.0625 585.3125 C-68.14070155 587.87101501 -68.2189901 590.42952735 -68.29736328 592.98803711 C-68.51573607 600.36645682 -68.69944961 607.74545629 -68.875 615.125 C-68.90011658 616.11125366 -68.92523315 617.09750732 -68.95111084 618.11364746 C-69.48747505 639.2693511 -68.50722057 659.55861262 -65.38769531 680.49658203 C-64.89227327 684.00275457 -64.48574077 687.50578172 -64.1171875 691.02734375 C-62.56950438 706.14354229 -62.56950438 706.14354229 -56.875 720.125 C-56.44445312 720.94871094 -56.01390625 721.77242187 -55.5703125 722.62109375 C-50.84138621 730.75645 -43.02709081 735.01025956 -34.16796875 737.66015625 C-28.05493416 738.89942561 -21.53024536 738.95262268 -15.875 736.125 C8.62660728 709.43663669 6.58497547 659.89007289 8.5859375 626.4140625 C10.41660405 596.15489151 13.21258073 567.18505318 21.8894043 538.05908203 C24.10471534 530.52175163 25.78421083 522.90771588 27.30078125 515.20117188 C29.19596328 505.87983333 31.58019736 496.27862149 38.125 489.125 C43.42789305 486.73349921 49.38178729 486.24419429 55.125 487.125 C60.36485808 489.30003543 63.90687536 492.46650506 67.125 497.125 C68.12912747 499.70743833 68.98630503 502.16456579 69.75 504.8125 C69.96237305 505.52873535 70.17474609 506.2449707 70.39355469 506.98291016 C70.98881354 509.02570934 71.56241295 511.07299297 72.125 513.125 C72.36476563 513.99511719 72.60453125 514.86523438 72.8515625 515.76171875 C74.0371714 520.83152398 74.3666381 525.94297998 74.6484375 531.12890625 C74.69151031 531.91647812 74.73458313 532.70404999 74.77896118 533.51548767 C75.21793073 542.09707388 75.33304834 550.67945674 75.45629883 559.27020264 C75.73974815 578.19202818 76.45607366 597.06658306 77.41928101 615.965271 C77.45316799 616.63016289 77.48705498 617.29505478 77.52196884 617.98009491 C77.59062337 619.3260531 77.65939208 620.67200546 77.7282753 622.01795197 C78.61810578 639.47036795 79.25167845 656.90420051 79.47265625 674.37890625 C79.48336025 675.22421402 79.49406425 676.06952179 79.50509262 676.94044495 C79.6068593 685.24886917 79.68498882 693.55727713 79.73182011 701.86619282 C79.75031394 704.93645626 79.77549178 708.00664777 79.80138969 711.07685661 C79.81590979 713.17437652 79.81952811 715.27171532 79.82252502 717.36927795 C79.76640099 727.92032959 79.76640099 727.92032959 82.125 738.125 C87.04642501 742.16782649 92.63896494 743.26826543 98.8125 744.4375 C99.69446045 744.60773682 100.5764209 744.77797363 101.48510742 744.95336914 C110.71310774 746.60373385 119.82508552 747.03719429 128.125 742.125 C140.56066879 728.51245404 142.40612587 710.12804305 145.47705078 692.67773438 C146.148403 688.9966803 146.92534446 685.35575461 147.75927734 681.70898438 C150.57648133 669.38616972 152.02019023 656.85328183 153.57495117 644.32055664 C153.95385179 641.34345494 154.38497227 638.3780913 154.84106445 635.41186523 C157.21841512 619.64898027 158.18900939 603.84336047 159.06866455 587.94281006 C159.26449556 584.43223502 159.46940083 580.92219257 159.67382812 577.41210938 C159.91724106 573.22624477 160.15927745 569.04032436 160.39419556 564.85397339 C160.80952566 557.46785362 161.24971268 550.08411318 161.72607422 542.70166016 C161.82441535 541.15884398 161.92267798 539.6160228 162.02085876 538.07319641 C162.16299598 535.8403076 162.30687766 533.60760965 162.45665169 531.37521935 C162.5934275 529.33614094 162.72352789 527.29661801 162.85327148 525.25708008 C162.92996567 524.09420975 163.00665985 522.93133942 163.0856781 521.73323059 C163.09865433 520.8725145 163.11163055 520.0117984 163.125 519.125 C162.795 518.795 162.465 518.465 162.125 518.125 C161.87878549 515.01829271 161.95959292 511.89254432 161.96875 508.77734375 C161.97048218 507.82923325 161.97221436 506.88112274 161.97399902 505.90428162 C162.03875749 497.29896372 162.65814275 488.79214157 163.40838623 480.22436523 C166.10634821 448.62726981 165.96919824 417.06021579 163.75 385.4375 C163.6870575 384.52347412 163.62411499 383.60944824 163.55926514 382.66772461 C163.37747879 380.10676653 163.18083368 377.54753438 162.9765625 374.98828125 C162.92123352 374.23122391 162.86590454 373.47416656 162.80889893 372.69416809 C162.49698551 369.07907273 162.18017376 367.20776064 160.125 364.125 C159.69350833 361.56989249 159.34037601 359.07095718 159.0625 356.5 C158.92818102 351.94087939 158.92818102 351.94087939 157.125 348.125 C156.84340084 344.99949953 156.6229111 341.88967477 156.44140625 338.7578125 C156.38165619 337.7886087 156.32190613 336.81940491 156.26034546 335.8208313 C156.06489842 332.63081011 155.87616757 329.44042873 155.6875 326.25 C155.55382799 324.04782961 155.41979267 321.84568124 155.28540039 319.64355469 C154.59757849 308.31641192 153.93885689 296.98766788 153.3034668 285.6574707 C153.02764213 280.73939917 152.74331674 275.82182762 152.45619202 270.90440369 C152.27604899 267.80565169 152.10346694 264.70681744 151.94384766 261.60693359 C150.34105625 230.56126814 146.39865818 198.33140669 139.125 168.0625 C137.92219333 162.91741229 136.88271801 157.8012173 136.08251953 152.578125 C134.21092708 140.52957681 130.4810353 125.61561939 121 117.25 C111.60040964 113.57189942 102.9273218 114.01739647 93.25 115.9375 Z M-63.875 148.125 C-63.813125 149.15625 -63.75125 150.1875 -63.6875 151.25 C-63.91385956 155.92809757 -64.99104438 159.38596404 -68.5 162.625 C-72.90547672 167.4309746 -70.97135207 177.90158542 -70.7890625 184 C-70.33906517 191.71423992 -68.46934271 196.96971833 -63.5625 202.9375 C-57.88428117 207.55930602 -52.08891869 208.6565644 -45 209.3125 C-44.24847656 209.39435547 -43.49695313 209.47621094 -42.72265625 209.56054688 C-32.24466209 210.62991335 -22.06433734 210.98517742 -12.9375 204.875 C-8.64633596 200.89610377 -8.30715345 195.19297566 -7.48046875 189.68359375 C-6.94100067 186.51291363 -6.06550386 184.07903032 -4.875 181.125 C-4.02409125 173.45430786 -5.30536167 166.56613019 -8.5 159.5625 C-10.00472184 155.80069539 -9.97985408 153.13328553 -9.875 149.125 C-10.93976563 149.4859375 -12.00453125 149.846875 -13.1015625 150.21875 C-30.20385815 155.7866626 -47.29701983 155.76156635 -63.875 148.125 Z M-43.875 214.125 C-44.07082583 218.43716481 -44.25527074 222.7497409 -44.4375 227.0625 C-44.49357422 228.29419922 -44.54964844 229.52589844 -44.60742188 230.79492188 C-44.65576172 231.96474609 -44.70410156 233.13457031 -44.75390625 234.33984375 C-44.8010376 235.42386475 -44.84816895 236.50788574 -44.89672852 237.62475586 C-45.16761942 240.06602564 -45.16761942 240.06602564 -43.875 241.125 C-41.54202567 241.16592937 -39.20794775 241.16741723 -36.875 241.125 C-35.28401514 237.58296529 -34.59685436 234.69784927 -34.4609375 230.82421875 C-34.40292969 229.35952148 -34.40292969 229.35952148 -34.34375 227.86523438 C-34.3128125 226.85783203 -34.281875 225.85042969 -34.25 224.8125 C-34.21132813 223.78576172 -34.17265625 222.75902344 -34.1328125 221.70117188 C-34.03885511 219.17606691 -33.95585192 216.65055856 -33.875 214.125 C-37.175 214.125 -40.475 214.125 -43.875 214.125 Z " fill="#000000" transform="translate(424.875,19.875)"/>
<path d="M0 0 C0.99 0.33 1.98 0.66 3 1 C3.495 9.415 3.495 9.415 4 18 C8.62 18 13.24 18 18 18 C18 15.36 18 12.72 18 10 C18.99 10 19.98 10 21 10 C21 12.64 21 15.28 21 18 C25.95 18 30.9 18 36 18 C36 15.36 36 12.72 36 10 C36.99 10 37.98 10 39 10 C39 17.26 39 24.52 39 32 C38.01 32 37.02 32 36 32 C36 28.37 36 24.74 36 21 C31.05 21 26.1 21 21 21 C21 24.63 21 28.26 21 32 C20.01 32 19.02 32 18 32 C18 28.37 18 24.74 18 21 C13.05 21 8.1 21 3 21 C3 24.63 3 28.26 3 32 C2.01 32 1.02 32 0 32 C0 28.7 0 25.4 0 22 C-1.216875 22.185625 -2.43375 22.37125 -3.6875 22.5625 C-7.02977939 22.98993182 -9.71968417 22.92258883 -13 22 C-13 25.3 -13 28.6 -13 32 C-13.99 32 -14.98 32 -16 32 C-16 28.04 -16 24.08 -16 20 C-10.57002841 18.6425071 -5.59779635 18.93915439 0 19 C-0.33 15.04 -0.66 11.08 -1 7 C-1.99 7 -2.98 7 -4 7 C-4 6.01 -4 5.02 -4 4 C-3.34 4 -2.68 4 -2 4 C-1.34 2.68 -0.68 1.36 0 0 Z " fill="#000000" transform="translate(376,24)"/>
<path d="M0 0 C1.98 0 3.96 0 6 0 C5.95875 0.78375 5.9175 1.5675 5.875 2.375 C5.71271266 5.16116119 5.71271266 5.16116119 8 7 C8 7.99 8 8.98 8 10 C7.401875 9.79375 6.80375 9.5875 6.1875 9.375 C3.71549154 8.69328085 3.71549154 8.69328085 1 11 C0.34 10.67 -0.32 10.34 -1 10 C-1.125 2.25 -1.125 2.25 0 0 Z " fill="#000000" transform="translate(357,58)"/>
<path d="M0 0 C2.31 0 4.62 0 7 0 C7 0.99 7 1.98 7 3 C5.35 3.33 3.7 3.66 2 4 C3.32 4.66 4.64 5.32 6 6 C6 7.32 6 8.64 6 10 C3.6875 10.625 3.6875 10.625 1 11 C0.01 10.34 -0.98 9.68 -2 9 C-1.125 2.25 -1.125 2.25 0 0 Z " fill="#000000" transform="translate(410,58)"/>
<path d="M0 0 C1.67542976 0.28604898 3.34385343 0.61781233 5 1 C4.67 2.98 4.34 4.96 4 7 C4.99 7.33 5.98 7.66 7 8 C7 8.66 7 9.32 7 10 C0.375 11.25 0.375 11.25 -3 9 C-2.484375 8.608125 -1.96875 8.21625 -1.4375 7.8125 C-0.963125 7.214375 -0.48875 6.61625 0 6 C-0.32041397 3.39719432 -0.32041397 3.39719432 -1 1 C-0.67 0.67 -0.34 0.34 0 0 Z " fill="#000000" transform="translate(374,58)"/>
<path d="M0 0 C1.98 0 3.96 0 6 0 C6 2.31 6 4.62 6 7 C4.35 7.66 2.7 8.32 1 9 C-0.61949011 6.42786866 -1.04408751 5.32330841 -0.625 2.25 C-0.41875 1.5075 -0.2125 0.765 0 0 Z " fill="#000000" transform="translate(411,24)"/>
<path d="M0 0 C0.66 0 1.32 0 2 0 C4.4294516 3.6441774 4.16179575 5.71241272 4 10 C3.01 10 2.02 10 1 10 C1 9.01 1 8.02 1 7 C-0.32 7 -1.64 7 -3 7 C-2.38722388 4.03824877 -1.74627478 2.61941217 0 0 Z " fill="#000000" transform="translate(393,58)"/>
<path d="M0 0 C1.67542976 0.28604898 3.34385343 0.61781233 5 1 C5.33 2.65 5.66 4.3 6 6 C3.625 7.5625 3.625 7.5625 1 9 C0.34 8.67 -0.32 8.34 -1 8 C-1 7.34 -1 6.68 -1 6 C-0.34 6 0.32 6 1 6 C0.34 4.35 -0.32 2.7 -1 1 C-0.67 0.67 -0.34 0.34 0 0 Z " fill="#000000" transform="translate(393,24)"/>
</svg>
