<?xml version="1.0" encoding="UTF-8"?>
<svg version="1.1" xmlns="http://www.w3.org/2000/svg" width="600" height="655">
<path d="M0 0 C11.93301519 10.13131267 15.71920946 30.3967337 17.82348633 45.01538086 C18.74175226 51.26531693 20.04614304 57.36408834 21.47265625 63.515625 C24.34787021 76.12713861 25.91415237 88.8610203 27.49902344 101.68676758 C27.98150291 105.42856609 28.56905163 109.15060384 29.15951538 112.87664795 C30.84872695 123.61696949 31.84808208 134.2945491 32.53515625 145.140625 C32.65696233 146.95381026 32.77929218 148.76696041 32.90209961 150.58007812 C33.6257654 161.44084588 34.24070283 172.30646322 34.8203125 183.17578125 C34.91830643 184.9915995 34.91830643 184.9915995 35.01828003 186.84410095 C35.34027783 192.82055707 35.65215994 198.79720404 35.9453125 204.77514648 C36.05958619 206.95948888 36.17415477 209.14381587 36.2890625 211.328125 C36.33482925 212.3354921 36.38059601 213.34285919 36.42774963 214.38075256 C36.4780986 215.30440109 36.52844757 216.22804962 36.58032227 217.1796875 C36.64002953 218.3874585 36.64002953 218.3874585 36.70094299 219.61962891 C36.9352521 222.00384241 36.9352521 222.00384241 39.03515625 224.703125 C39.32226562 226.75610352 39.32226562 226.75610352 39.37890625 229.08203125 C39.42337891 230.33983398 39.42337891 230.33983398 39.46875 231.62304688 C39.51311893 233.38866941 39.55738933 235.15429443 39.6015625 236.91992188 C39.64603516 238.17579102 39.64603516 238.17579102 39.69140625 239.45703125 C39.71944336 240.60667358 39.71944336 240.60667358 39.74804688 241.77954102 C39.87553825 243.94015694 39.87553825 243.94015694 42.03515625 245.703125 C42.4140625 247.56542969 42.4140625 247.56542969 42.59765625 249.875 C42.67129395 250.74995117 42.74493164 251.62490234 42.82080078 252.52636719 C42.89153809 253.49219727 42.96227539 254.45802734 43.03515625 255.453125 C43.11491699 256.47825195 43.19467773 257.50337891 43.27685547 258.55957031 C43.44763966 260.78808757 43.61395818 263.01695048 43.77636719 265.24609375 C44.02967662 268.62992545 44.3152047 272.00978679 44.60546875 275.390625 C47.45213955 310.40270582 47.85418171 346.84116601 43.03515625 381.703125 C44.35515625 382.363125 45.67515625 383.023125 47.03515625 383.703125 C46.77453485 387.95766503 46.50789724 392.21177146 46.2355957 396.46557617 C46.14375627 397.91371341 46.0535825 399.36195725 45.96508789 400.81030273 C45.83784319 402.88815899 45.70467744 404.96556233 45.5703125 407.04296875 C45.49176025 408.29456787 45.41320801 409.54616699 45.33227539 410.83569336 C45.03515625 413.703125 45.03515625 413.703125 44.03515625 414.703125 C43.82393485 416.17536602 43.67520854 417.65665148 43.55273438 419.13891602 C43.47341675 420.08459946 43.39409912 421.0302829 43.31237793 422.00462341 C43.19062195 423.55887779 43.19062195 423.55887779 43.06640625 425.14453125 C42.9364325 426.75673302 42.9364325 426.75673302 42.80383301 428.40150452 C41.85631807 440.4701429 41.18766066 452.55311557 40.53515625 464.640625 C38.00667263 511.40364097 38.00667263 511.40364097 34.59765625 532.953125 C34.37285292 534.41360716 34.1489105 535.87422207 33.92578125 537.33496094 C33.59545354 539.49708955 33.26462114 541.65911714 32.9302063 543.82061768 C32.17962342 548.68431365 31.50871481 553.55436507 30.86889648 558.43359375 C29.68971043 567.33571523 27.95581342 576.00760448 25.86889648 584.74145508 C24.69937044 589.65451848 23.68863689 594.53242507 22.92260742 599.52416992 C20.84901389 613.02979153 16.11881875 629.34797131 5.09765625 638.203125 C-1.10614597 642.73413978 -8.13100556 643.0638512 -15.52734375 643.015625 C-16.40559814 643.01143555 -17.28385254 643.00724609 -18.1887207 643.00292969 C-30.36656041 642.7939444 -45.06035971 640.87744189 -53.96484375 631.703125 C-58.16421259 622.88445043 -57.11835126 611.68791925 -57.16448593 602.1484623 C-57.18021745 599.03650847 -57.2079801 595.92468915 -57.23474312 592.81281376 C-57.25621048 590.29897333 -57.27620236 587.78512371 -57.29614258 585.27127075 C-57.54090593 555.4410019 -58.31951481 525.70742822 -59.87402344 495.91772461 C-60.81633037 477.76903981 -61.4104812 459.64208477 -61.67382812 441.47094727 C-61.74850189 421.31739377 -61.74850189 421.31739377 -65.33984375 401.578125 C-65.54867188 400.78148437 -65.7575 399.98484375 -65.97265625 399.1640625 C-67.37140805 394.04667786 -68.9467937 389.72117505 -72.77734375 385.890625 C-75.78242014 384.25929782 -77.59671226 384.14176975 -80.96484375 384.703125 C-84.75135284 388.26689826 -86.8341689 393.02050119 -88.96484375 397.703125 C-89.45210938 398.7240625 -89.939375 399.745 -90.44140625 400.796875 C-92.43056589 405.47454224 -93.29101326 410.36176911 -94.27734375 415.328125 C-95.88548923 423.10755203 -97.74613585 430.71954104 -100.02734375 438.328125 C-108.21086283 466.19723676 -109.625227 494.92885047 -111.27523804 523.7723999 C-114.94855785 587.81575233 -114.94855785 587.81575233 -127.96484375 614.703125 C-128.51011719 615.90453125 -129.05539062 617.1059375 -129.6171875 618.34375 C-130.20999687 619.61042702 -130.80502388 620.87606871 -131.40234375 622.140625 C-131.93730469 623.27371094 -132.47226562 624.40679688 -133.0234375 625.57421875 C-135.69733556 629.8836601 -138.58341718 632.81848849 -143.45703125 634.62890625 C-158.10647252 637.00643852 -169.23409979 634.37539703 -181.96484375 626.703125 C-187.56090315 621.63885487 -191.44333141 616.28913191 -194.58984375 609.453125 C-195.0384375 608.52693359 -195.0384375 608.52693359 -195.49609375 607.58203125 C-200.25072347 597.37851171 -200.80101108 586.25498911 -201.96484375 575.203125 C-202.21385816 572.88126015 -202.46431752 570.55955579 -202.715271 568.23789978 C-202.88194757 566.69114812 -203.04718516 565.14424074 -203.21099854 563.59718323 C-203.61412364 559.8147352 -204.04105889 556.03822944 -204.52636719 552.26538086 C-205.68300596 543.22877525 -206.28173323 534.39251893 -206.21484375 525.265625 C-206.21240662 524.59222076 -206.20996948 523.91881653 -206.2074585 523.2250061 C-206.14246009 507.27517071 -205.60438765 491.33092158 -205.08984375 475.390625 C-205.05072876 474.11760529 -205.01161377 472.84458557 -204.97131348 471.5329895 C-204.85557885 467.84324935 -204.72840191 464.15407935 -204.59765625 460.46484375 C-204.56421112 459.37108429 -204.53076599 458.27732483 -204.49630737 457.15042114 C-204.11408109 447.06858746 -202.65065001 437.21960786 -200.40234375 427.390625 C-197.69764653 414.97360595 -195.55819264 401.66474249 -200.96484375 389.703125 C-201.64546875 387.8778125 -201.64546875 387.8778125 -202.33984375 386.015625 C-205.58505164 380.63210184 -212.30135139 378.63184743 -217.96484375 376.703125 C-224.26305754 375.28791744 -230.48299346 377.61208168 -235.96484375 380.703125 C-239.7076255 385.23983015 -240.07644633 390.02616848 -240.359375 395.75 C-240.42552002 396.97154785 -240.49166504 398.1930957 -240.55981445 399.45166016 C-240.59466949 400.10257629 -240.62952454 400.75349243 -240.66543579 401.4241333 C-241.85609377 423.01183069 -243.62523172 444.74611687 -249.10424805 465.71240234 C-253.67699101 483.81673164 -254.87880107 502.88267287 -256.52734375 521.453125 C-256.58862457 522.14188721 -256.6499054 522.83064941 -256.71304321 523.5402832 C-256.89644329 525.60493582 -257.07921198 527.66964324 -257.26171875 529.734375 C-257.32107101 530.40537231 -257.38042328 531.07636963 -257.4415741 531.7677002 C-257.72646573 534.99201638 -258.0090992 538.21648826 -258.28710938 541.44140625 C-259.64626245 556.83402324 -262.0038596 571.05693429 -266.96484375 585.703125 C-267.41585449 587.07791016 -267.41585449 587.07791016 -267.87597656 588.48046875 C-273.77147533 606.3322594 -281.61906175 627.72192784 -297.96484375 638.703125 C-303.60353247 641.37848308 -308.83293135 641.61938777 -314.96484375 640.703125 C-325.52785463 636.88053648 -333.68616669 631.79571088 -338.67651367 621.47021484 C-342.65546916 612.68269005 -345.18658637 603.58314067 -347.36767578 594.21044922 C-347.95148577 591.75921104 -348.59188507 589.32885792 -349.2421875 586.89453125 C-352.70944714 573.26742511 -353.95384432 559.59211641 -355.13647461 545.62561035 C-356.35081429 531.33111539 -357.96921261 517.15114755 -360.02734375 502.953125 C-360.15140594 502.08674408 -360.27546814 501.22036316 -360.40328979 500.32772827 C-361.56016091 492.29295758 -362.78512546 484.37182616 -364.64453125 476.46484375 C-366.7727642 466.16881654 -366.20918876 455.72788452 -366.02734375 445.265625 C-364.56661516 413.82564165 -364.56661516 413.82564165 -378.33984375 386.8671875 C-386.57597641 380.07728051 -398.4173046 377.10752474 -408.96484375 377.703125 C-412.05840778 378.42290944 -415.02844958 379.41264128 -418.02734375 380.453125 C-418.80400391 380.70578125 -419.58066406 380.9584375 -420.38085938 381.21875 C-428.90367975 384.10539534 -433.7961036 387.77685534 -437.96484375 395.703125 C-445.32776648 412.29854123 -449.18996491 429.68897204 -450.546875 447.72265625 C-450.6690447 449.24638538 -450.7915616 450.7700867 -450.91439819 452.29376221 C-452.23258355 468.9979314 -453.1363402 485.72732854 -453.96578598 502.46178055 C-454.0920442 504.99731474 -454.220853 507.5327089 -454.35025024 510.06808472 C-455.54309896 533.51245509 -456.46733475 556.93603545 -456.75720215 580.41157532 C-457.17726216 613.14788995 -457.17726216 613.14788995 -468.55859375 625.421875 C-474.7082266 631.12426183 -481.21748748 633.38097854 -489.5859375 633.11328125 C-505.01192341 631.24076273 -520.17729403 626.24061971 -531.28125 614.98828125 C-535.33742389 609.4828016 -537.7767549 603.04023264 -539.9140625 596.58984375 C-540.16846603 595.82258469 -540.42286957 595.05532562 -540.6849823 594.26481628 C-543.80138227 584.52050517 -545.76980482 574.53438872 -547.77734375 564.515625 C-548.1741716 562.58508917 -548.57195431 560.65474935 -548.97070312 558.72460938 C-551.40963432 546.83255287 -553.12468977 535.67186016 -553.16796875 523.48828125 C-553.17484711 522.18582458 -553.18172546 520.88336792 -553.18881226 519.54144287 C-553.20812656 515.28283494 -553.2124923 511.02427109 -553.21484375 506.765625 C-553.21572746 506.03764584 -553.21661118 505.30966667 -553.21752167 504.55962753 C-553.24358387 480.36894554 -552.34046573 456.38976639 -550.54920959 432.26028442 C-549.82253132 422.22919997 -549.4164125 412.18788696 -549.02072144 402.13919067 C-547.41832141 361.54960084 -544.36998242 335.4861705 -514.33984375 306.015625 C-511.96921071 303.6818528 -509.60219144 301.34448742 -507.23828125 299.00390625 C-506.39591415 298.1717585 -506.39591415 298.1717585 -505.53652954 297.32279968 C-502.56140859 294.36389836 -499.72339164 291.35507462 -497.01171875 288.1484375 C-488.08608428 277.68470774 -473.92217214 272.70569809 -461.48583984 267.72119141 C-459.82450136 267.05028481 -458.17075596 266.36021262 -456.52587891 265.64990234 C-450.09632451 262.92264081 -443.68551317 261.29259836 -436.83984375 259.953125 C-435.74905518 259.7370459 -434.6582666 259.5209668 -433.53442383 259.29833984 C-414.49328636 255.73717353 -414.49328636 255.73717353 -405.90234375 258.32421875 C-399.88322697 259.50134441 -392.11651541 255.07088553 -387.08984375 252.015625 C-378.49400533 245.80232875 -375.25098518 236.81915265 -373.42602539 226.72192383 C-372.73594818 221.76946795 -372.93683925 216.83485535 -373.04296875 211.84765625 C-373.0746311 209.69159576 -373.10434233 207.53550593 -373.13232422 205.37939453 C-373.14696716 204.25873596 -373.16161011 203.13807739 -373.17669678 201.98345947 C-373.36844072 184.55255494 -373.20666209 168.10047471 -369.46875 151.02734375 C-367.31821341 141.15992469 -366.0989999 131.1463869 -364.77734375 121.140625 C-364.64558746 120.15680847 -364.51383118 119.17299194 -364.37808228 118.15936279 C-362.88032821 106.92475882 -361.62819456 95.77409753 -361.02734375 84.453125 C-359.64778149 60.09043867 -355.01897992 22.04282968 -336.83984375 4.390625 C-329.79044154 -1.05946349 -321.41739445 -4.21482203 -312.48828125 -3.703125 C-304.02634695 -2.34083217 -298.16661656 3.16112087 -292.96484375 9.703125 C-285.3284163 20.76647134 -279.94193556 32.55615009 -275.78417969 45.29150391 C-274.98128107 47.65474365 -274.0856173 49.95974038 -273.16015625 52.27734375 C-265.8511637 71.48882763 -264.90094095 92.40801234 -262.96484375 112.703125 C-262.85009705 113.90388672 -262.85009705 113.90388672 -262.73303223 115.12890625 C-262.13448259 121.42147015 -261.55426705 127.71565544 -260.98291016 134.01074219 C-259.6796165 148.20542999 -257.92221258 162.03966261 -254.52734375 175.890625 C-249.42131374 196.99836545 -247.7762901 219.20793443 -246.7355957 240.85986328 C-246.40537058 246.75578552 -246.09262769 251.60752998 -242.96484375 256.703125 C-237.78604949 259.99347358 -231.0082144 261.65734142 -224.96484375 260.703125 C-216.94465139 257.95634017 -211.2535754 255.7917756 -207.27734375 248.078125 C-202.09515369 236.00219587 -204.37578909 224.61735586 -209.04296875 212.86572266 C-209.69361187 211.26611653 -210.34823348 209.66812287 -211.00683594 208.07177734 C-219.7654857 186.4162167 -225.11340519 163.98576076 -216.21875 141.5234375 C-214.96484375 138.703125 -214.96484375 138.703125 -213.89428711 136.85180664 C-212.76067543 134.23112988 -212.7671225 132.35341775 -212.83984375 129.50390625 C-212.85684326 128.47249512 -212.87384277 127.44108398 -212.89135742 126.37841797 C-212.91560791 125.26869629 -212.9398584 124.15897461 -212.96484375 123.015625 C-213.16639501 103.60448003 -211.22424146 84.53944184 -208.6796875 65.31640625 C-208.10838181 60.96363637 -207.6539061 56.61147081 -207.24731445 52.24072266 C-205.90446365 38.2756705 -201.85263388 22.74729178 -191.27734375 12.765625 C-181.0696511 4.81312026 -170.54751113 1.29337786 -157.77734375 1.828125 C-156.76075684 1.86015015 -156.76075684 1.86015015 -155.72363281 1.89282227 C-149.23356417 2.31896202 -145.71575908 4.86401542 -141.328125 9.47265625 C-138.68280028 12.8544934 -136.87032239 16.47061623 -135.15234375 20.390625 C-134.81831543 21.14811035 -134.48428711 21.9055957 -134.14013672 22.68603516 C-131.1204822 29.82583426 -128.80503172 37.15487244 -126.58984375 44.578125 C-126.25621826 45.69405029 -125.92259277 46.80997559 -125.57885742 47.9597168 C-122.43413187 58.87775778 -120.92165268 69.41199996 -120.2109375 80.7265625 C-120.00754752 83.79511586 -119.80349937 86.86362497 -119.59936523 89.93212891 C-119.46739385 92.03941911 -119.34869846 94.1475804 -119.24291992 96.25634766 C-119.08402811 99.33365562 -118.87112853 102.40329731 -118.6484375 105.4765625 C-118.61366806 106.41414398 -118.57889862 107.35172546 -118.54307556 108.31771851 C-118.21147505 112.32599431 -117.95958733 114.77485375 -114.94216919 117.59063721 C-112.67082621 119.10120319 -110.36016213 120.40255063 -107.96484375 121.703125 C-105.40234375 123.953125 -105.40234375 123.953125 -103.96484375 125.703125 C-103.96484375 126.363125 -103.96484375 127.023125 -103.96484375 127.703125 C-102.97484375 128.033125 -101.98484375 128.363125 -100.96484375 128.703125 C-89.34414718 141.74003334 -84.15594571 155.0666349 -83.91015625 172.60546875 C-84.60263355 180.92407429 -87.40677391 187.08467153 -91.41821289 194.21801758 C-98.30152932 206.47653155 -102.55956506 216.63513458 -98.96484375 230.703125 C-98.72962673 232.3035707 -98.51693928 233.90771 -98.33984375 235.515625 C-98.21609375 236.5675 -98.09234375 237.619375 -97.96484375 238.703125 C-96.97484375 239.033125 -95.98484375 239.363125 -94.96484375 239.703125 C-93.39453125 242.390625 -93.39453125 242.390625 -91.83984375 245.703125 C-90.27971588 249.45113621 -90.27971588 249.45113621 -87.96484375 252.703125 C-84.11647614 253.07316035 -81.75188398 253.17870335 -78.3984375 251.15234375 C-75.40849554 248.14320473 -74.3838548 245.18808575 -73.27734375 241.203125 C-72.97860352 240.23632812 -72.97860352 240.23632812 -72.67382812 239.25 C-69.56416363 228.72811882 -68.6559018 218.12416788 -68.44412231 207.2006073 C-68.40088324 204.97158427 -68.3469325 202.74301523 -68.29077148 200.51428223 C-68.19241815 196.54335384 -68.10316736 192.57228319 -68.01696777 188.60107422 C-67.86441097 181.58274654 -67.7012518 174.56470549 -67.52734375 167.546875 C-67.49890538 166.37789862 -67.49890538 166.37789862 -67.4698925 165.18530655 C-67.18388634 153.70222815 -66.63879219 142.25360975 -65.9375 130.7890625 C-64.83268188 112.62326752 -64.56684463 94.47831217 -64.42224121 76.28283691 C-64.10894192 37.63169956 -64.10894192 37.63169956 -63.625 23.9453125 C-63.59375282 22.69779709 -63.59375282 22.69779709 -63.56187439 21.42507935 C-63.26706384 14.58649325 -62.1002843 8.10549562 -57.46484375 2.890625 C-53.11965132 -0.22844877 -48.03970614 -1.77371437 -42.96484375 -3.296875 C-42.22878906 -3.52503906 -41.49273437 -3.75320312 -40.734375 -3.98828125 C-27.87118892 -7.2439195 -11.28986453 -7.45175949 0 0 Z M-34.83984375 4.515625 C-35.72542969 4.68126953 -36.61101562 4.84691406 -37.5234375 5.01757812 C-46.04321396 6.55951111 -46.04321396 6.55951111 -52.58250427 11.8261261 C-54.28476136 15.36895464 -54.51839209 18.55317596 -54.63696289 22.41088867 C-54.66990228 23.15621699 -54.70284166 23.90154531 -54.73677921 24.66945934 C-55.04129581 32.11956275 -55.14450204 39.57508251 -55.19463921 47.03066444 C-55.21159844 49.47413451 -55.23484307 51.917482 -55.25953674 54.36088562 C-55.32877435 61.29675697 -55.38922719 68.2326826 -55.44165039 75.16870117 C-55.58638464 93.85578731 -55.92826414 112.47688144 -57.07366753 131.13179016 C-57.77539274 142.56682785 -58.2473206 153.98819798 -58.52734375 165.44140625 C-58.54648897 166.2104233 -58.56563419 166.97944035 -58.58535957 167.77176094 C-58.75843415 174.77669685 -58.91598407 181.7819616 -59.06933594 188.78735352 C-59.1555308 192.69997002 -59.24982243 196.6123308 -59.34860229 200.52464867 C-59.4002293 202.66619631 -59.44263989 204.80778468 -59.48461914 206.94953918 C-59.76454948 219.01571827 -60.74316102 231.10551567 -64.27734375 242.703125 C-64.46490234 243.38761719 -64.65246094 244.07210937 -64.84570312 244.77734375 C-66.74560769 251.19181255 -69.79885219 256.01365159 -75.08984375 260.140625 C-80.3729184 262.81676762 -86.37841575 262.45533462 -92.05078125 261.265625 C-95.91134921 259.91695497 -98.54421157 257.60650433 -100.7734375 254.21484375 C-102.76204544 250.02246701 -104.02201355 245.58944088 -105.26611328 241.1262207 C-105.7812968 239.30331321 -106.36769677 237.5008517 -106.96484375 235.703125 C-107.62484375 235.373125 -108.28484375 235.043125 -108.96484375 234.703125 C-109.24158936 235.32243896 -109.51833496 235.94175293 -109.8034668 236.57983398 C-111.08229288 239.43530225 -112.36727739 242.28795997 -113.65234375 245.140625 C-114.08740234 246.11451172 -114.52246094 247.08839844 -114.97070312 248.09179688 C-117.41307833 253.50120566 -119.98529042 258.69927078 -123.05786133 263.78076172 C-124.58608923 267.01986442 -123.97081556 269.37084339 -122.96484375 272.703125 C-122.46726562 273.60160156 -121.9696875 274.50007813 -121.45703125 275.42578125 C-119.7700265 279.13100896 -119.29159921 282.44485263 -119.08984375 286.453125 C-119.03026489 287.51418457 -119.03026489 287.51418457 -118.96948242 288.59667969 C-118.7844926 293.61145033 -119.39218128 297.60981543 -121.15234375 302.26953125 C-122.11050424 305.13940617 -122.42113785 307.88884816 -122.77734375 310.890625 C-123.69030744 316.62609852 -125.31000414 320.14996385 -129.96484375 323.703125 C-135.50878909 327.04383883 -140.60882054 328.02068882 -146.96484375 328.703125 C-147.02019287 329.26185303 -147.07554199 329.82058105 -147.13256836 330.39624023 C-147.3886151 332.97775621 -147.64547555 335.55919064 -147.90234375 338.140625 C-147.98935547 339.01912109 -148.07636719 339.89761719 -148.16601562 340.80273438 C-148.72774635 346.4408465 -149.3290776 352.07287161 -149.96484375 357.703125 C-154.49438256 359.9678944 -157.99532144 360.01865023 -162.96484375 359.703125 C-164.28484375 359.043125 -165.60484375 358.383125 -166.96484375 357.703125 C-166.96484375 347.803125 -166.96484375 337.903125 -166.96484375 327.703125 C-171.25484375 326.383125 -175.54484375 325.063125 -179.96484375 323.703125 C-186.15145503 319.99115823 -189.27796572 315.86338589 -191.21484375 308.890625 C-192.24809446 303.87058619 -192.68555825 298.81469912 -192.96484375 293.703125 C-193.03058594 292.51332031 -193.09632813 291.32351563 -193.1640625 290.09765625 C-193.51411962 278.6423388 -193.51411962 278.6423388 -188.96484375 273.703125 C-186.87149189 271.41767732 -185.98960184 270.31826823 -185.86328125 267.1796875 C-187.32642116 258.42483397 -190.71352202 251.38733219 -194.96484375 243.703125 C-197.59173619 246.33001744 -198.96378017 249.41133774 -200.58984375 252.703125 C-200.9146875 253.34507812 -201.23953125 253.98703125 -201.57421875 254.6484375 C-203.36606876 258.01195578 -203.36606876 258.01195578 -203.96484375 261.703125 C-205.03025391 262.11884766 -205.03025391 262.11884766 -206.1171875 262.54296875 C-209.92140168 264.09283378 -213.623052 265.84295327 -217.34375 267.58203125 C-226.00333066 271.28590554 -233.46439777 269.87589802 -242.16796875 266.87109375 C-246.77651623 264.94657462 -250.09759195 263.43972748 -252.21484375 258.765625 C-252.529375 258.09660156 -252.84390625 257.42757812 -253.16796875 256.73828125 C-254.92701889 252.24580515 -255.26035483 247.80193717 -255.578125 243.01953125 C-255.69002626 241.45056173 -255.80251862 239.88163428 -255.91552734 238.31274414 C-255.97407898 237.48968781 -256.03263062 236.66663147 -256.09295654 235.81863403 C-257.62928545 214.54675925 -259.57879184 193.38252763 -264.46484375 172.578125 C-268.05854369 157.16991437 -269.38559231 141.4179333 -270.96484375 125.703125 C-271.05098938 124.84829529 -271.13713501 123.99346558 -271.22589111 123.11273193 C-272.81323461 107.34352195 -272.81323461 107.34352195 -273.57055664 99.46704102 C-273.94463261 95.58906288 -274.33607294 91.71324582 -274.74313354 87.83859253 C-274.95259091 85.82114182 -275.14870869 83.80231906 -275.34399414 81.78344727 C-276.33998886 72.83712303 -278.5137982 64.71261627 -281.4309082 56.24145508 C-282.15123821 54.14384436 -282.84546718 52.03886178 -283.53710938 49.93164062 C-288.67026015 34.56903446 -296.01588431 13.7525647 -310.96484375 5.703125 C-316.77381826 3.96896132 -320.71978967 6.17741678 -325.96484375 8.703125 C-336.4032817 14.6955616 -339.86490455 25.01447639 -342.88623047 36.07666016 C-345.06472415 44.58342598 -347.06088548 53.13111619 -348.96484375 61.703125 C-349.16440674 62.54915283 -349.36396973 63.39518066 -349.56958008 64.2668457 C-351.10032774 71.1306127 -351.52210513 78.04610372 -351.99755859 85.04483032 C-353.13060008 101.30125027 -355.13849961 117.38996518 -357.46484375 133.515625 C-357.61432465 134.56066193 -357.76380554 135.60569885 -357.91781616 136.68240356 C-358.3542673 139.71762105 -358.79765495 142.75168775 -359.24609375 145.78515625 C-359.38908401 146.7535997 -359.53207428 147.72204315 -359.67939758 148.71983337 C-360.28664118 152.7151338 -360.9114532 156.67558352 -361.8515625 160.60742188 C-364.94725899 173.59335996 -364.15033587 186.61602021 -363.90332031 199.88232422 C-363.25921523 237.90147449 -363.25921523 237.90147449 -375.27734375 254.078125 C-385.61152312 264.17197462 -399.6930706 268.37052012 -413.96484375 268.703125 C-413.96484375 268.043125 -413.96484375 267.383125 -413.96484375 266.703125 C-421.44421649 266.3713456 -428.18218465 267.29488971 -435.46484375 268.953125 C-436.91697266 269.26056641 -436.91697266 269.26056641 -438.3984375 269.57421875 C-444.90198671 271.01460213 -450.86649253 273.04166909 -456.96484375 275.703125 C-457.91697754 276.11159668 -458.86911133 276.52006836 -459.85009766 276.94091797 C-462.92103947 278.27389013 -465.97493808 279.64078909 -469.02734375 281.015625 C-470.56358398 281.68754883 -470.56358398 281.68754883 -472.13085938 282.37304688 C-482.25536918 286.94686696 -489.67711279 292.95812002 -497.02734375 301.203125 C-504.26492615 309.15000975 -504.26492615 309.15000975 -508.08984375 312.328125 C-525.5078022 326.90538636 -536.16932786 343.32104754 -538.27880859 366.09228516 C-538.54276573 369.75294018 -538.76230516 373.41355749 -538.96484375 377.078125 C-539.04675545 378.48194057 -539.12879102 379.88574893 -539.2109375 381.28955078 C-539.99805082 395.0725648 -540.53404907 408.86710382 -541.08883667 422.66101074 C-541.5985786 435.27828561 -542.25402324 447.84787111 -543.28076172 460.43481445 C-544.70824785 478.39615157 -545.35712811 496.54558867 -545.00634766 514.56640625 C-544.97771975 516.04023843 -544.95704458 517.5142392 -544.94287109 518.98828125 C-544.77814165 532.54635222 -542.54820696 545.29694176 -539.64550781 558.51855469 C-538.97430289 561.65886927 -538.36268724 564.80503075 -537.76953125 567.9609375 C-533.7315624 592.52683096 -533.7315624 592.52683096 -520.5546875 612.6796875 C-509.50942076 619.54434518 -496.28682741 625.26744884 -482.96484375 623.703125 C-476.64611311 621.59688145 -472.78476529 617.1465321 -469.734375 611.375 C-465.43252238 601.49782215 -465.85926491 591.13396766 -465.72509766 580.53271484 C-465.42515714 556.89361919 -464.39255578 533.29969917 -463.21902847 509.69098663 C-463.09211456 507.12405391 -462.96764405 504.55701369 -462.84384155 501.9899292 C-462.01144028 484.81132862 -461.07097131 467.64117988 -459.72417831 450.49426651 C-459.60607188 448.98315402 -459.49121885 447.47178263 -459.38010025 445.96014023 C-457.79015182 424.59655276 -453.31293724 395.05121849 -437.58984375 379.328125 C-431.39346771 375.49227317 -425.40888507 373.09238271 -418.46484375 371.015625 C-417.75295898 370.80107666 -417.04107422 370.58652832 -416.30761719 370.36547852 C-411.52385397 368.98808462 -406.91964202 368.19860483 -401.96484375 367.703125 C-401.07539063 367.61289062 -400.1859375 367.52265625 -399.26953125 367.4296875 C-391.4967041 367.10477833 -383.7492376 368.83315386 -376.96484375 372.703125 C-376.296875 375.1796875 -376.296875 375.1796875 -375.96484375 377.703125 C-374.34311772 379.44285518 -374.34311772 379.44285518 -372.27734375 380.890625 C-362.48576868 389.08822273 -359.03575548 400.76866723 -357.70361328 413.12646484 C-356.93721776 422.63381259 -356.91443235 432.15290778 -357.08984375 441.68359375 C-357.39096448 459.57504339 -356.01251868 476.05037153 -352.67919922 493.70361328 C-351.32890766 501.08290053 -350.34504532 508.52055652 -349.33984375 515.953125 C-349.17950653 517.12177094 -349.17950653 517.12177094 -349.01593018 518.31402588 C-347.87683958 526.66843618 -346.87339026 535.0068664 -346.265625 543.41796875 C-346.21464157 544.12264282 -346.16365814 544.82731689 -346.11112976 545.55334473 C-346.03545525 546.6046759 -346.03545525 546.6046759 -345.95825195 547.67724609 C-344.99724434 561.01341867 -343.23915434 573.80434378 -340.15234375 586.828125 C-339.99148285 587.51611176 -339.83062195 588.20409851 -339.66488647 588.91293335 C-335.5177439 609.02602554 -335.5177439 609.02602554 -324.96484375 625.703125 C-316.07544276 631.35477485 -316.07544276 631.35477485 -306.0078125 632.2421875 C-291.38149334 625.0368008 -283.82029919 607.29973803 -278.76008606 592.63644409 C-278.25764623 591.14165791 -277.76053615 589.64506957 -277.26879883 588.14672852 C-276.51987088 585.8678865 -275.74530569 583.59896558 -274.96679688 581.33007812 C-270.33670757 567.67139357 -268.48029852 554.26099024 -267.02734375 539.953125 C-266.8519005 538.26274158 -266.67611431 536.57239372 -266.5 534.88208008 C-265.68243153 526.99171465 -264.89651934 519.09939457 -264.1796875 511.19921875 C-262.53531115 493.15441039 -260.82151042 475.03415275 -256.46191406 457.40380859 C-251.62804781 437.82617542 -249.74974801 416.55771873 -249.29223633 396.42016602 C-249.06239824 388.12415511 -247.63920432 380.03829718 -241.96484375 373.703125 C-235.37294422 368.94622962 -226.00067976 366.54493511 -217.96484375 367.703125 C-214.16004764 368.74746815 -210.58465081 370.14072964 -206.96484375 371.703125 C-206.14242188 372.04214844 -205.32 372.38117188 -204.47265625 372.73046875 C-196.95776395 376.28549356 -193.72513169 381.88233644 -190.93359375 389.52734375 C-187.43585062 401.65609191 -188.78179359 413.49910652 -191.015625 425.6953125 C-191.22602417 426.84954712 -191.22602417 426.84954712 -191.44067383 428.02709961 C-191.82432013 429.98571492 -192.24934645 431.93634899 -192.69799805 433.88110352 C-195.55711594 447.11141139 -195.77280654 460.39764719 -196.15234375 473.890625 C-196.2305453 476.44914001 -196.30883385 479.00765235 -196.38720703 481.56616211 C-196.60557982 488.94458182 -196.78929336 496.32358129 -196.96484375 503.703125 C-196.98996033 504.68937866 -197.0150769 505.67563232 -197.04095459 506.69177246 C-197.5773188 527.8474761 -196.59706432 548.13673762 -193.47753906 569.07470703 C-192.98211702 572.58087957 -192.57558452 576.08390672 -192.20703125 579.60546875 C-190.65934813 594.72166729 -190.65934813 594.72166729 -184.96484375 608.703125 C-184.53429687 609.52683594 -184.10375 610.35054687 -183.66015625 611.19921875 C-178.93122996 619.334575 -171.11693456 623.58838456 -162.2578125 626.23828125 C-156.14477791 627.47755061 -149.62008911 627.53074768 -143.96484375 624.703125 C-119.46323647 598.01476169 -121.50486828 548.46819789 -119.50390625 514.9921875 C-117.6732397 484.73301651 -114.87726302 455.76317818 -106.20043945 426.63720703 C-103.98512841 419.09987663 -102.30563292 411.48584088 -100.7890625 403.77929688 C-98.89388047 394.45795833 -96.50964639 384.85674649 -89.96484375 377.703125 C-84.6619507 375.31162421 -78.70805646 374.82231929 -72.96484375 375.703125 C-67.72498567 377.87816043 -64.18296839 381.04463006 -60.96484375 385.703125 C-59.96071628 388.28556333 -59.10353872 390.74269079 -58.33984375 393.390625 C-58.1274707 394.10686035 -57.91509766 394.8230957 -57.69628906 395.56103516 C-57.10103021 397.60383434 -56.5274308 399.65111797 -55.96484375 401.703125 C-55.72507812 402.57324219 -55.4853125 403.44335938 -55.23828125 404.33984375 C-54.05267235 409.40964898 -53.72320565 414.52110498 -53.44140625 419.70703125 C-53.39833344 420.49460312 -53.35526062 421.28217499 -53.31088257 422.09361267 C-52.87191302 430.67519888 -52.75679541 439.25758174 -52.63354492 447.84832764 C-52.3500956 466.77015318 -51.63377009 485.64470806 -50.67056274 504.543396 C-50.63667576 505.20828789 -50.60278877 505.87317978 -50.56787491 506.55821991 C-50.49922038 507.9041781 -50.43045167 509.25013046 -50.36156845 510.59607697 C-49.47173797 528.04849295 -48.8381653 545.48232551 -48.6171875 562.95703125 C-48.6064835 563.80233902 -48.5957795 564.64764679 -48.58475113 565.51856995 C-48.48298445 573.82699417 -48.40485493 582.13540213 -48.35802364 590.44431782 C-48.33952981 593.51458126 -48.31435197 596.58477277 -48.28845406 599.65498161 C-48.27393396 601.75250152 -48.27031564 603.84984032 -48.26731873 605.94740295 C-48.32344276 616.49845459 -48.32344276 616.49845459 -45.96484375 626.703125 C-41.04341874 630.74595149 -35.45087881 631.84639043 -29.27734375 633.015625 C-28.3953833 633.18586182 -27.51342285 633.35609863 -26.60473633 633.53149414 C-17.37673601 635.18185885 -8.26475823 635.61531929 0.03515625 630.703125 C12.47082504 617.09057904 14.31628212 598.70616805 17.38720703 581.25585938 C18.05855925 577.5748053 18.83550071 573.93387961 19.66943359 570.28710938 C22.48663758 557.96429472 23.93034648 545.43140683 25.48510742 532.89868164 C25.86400804 529.92157994 26.29512852 526.9562163 26.7512207 523.98999023 C29.12857137 508.22710527 30.09916564 492.42148547 30.9788208 476.52093506 C31.17465181 473.01036002 31.37955708 469.50031757 31.58398438 465.99023438 C31.82739731 461.80436977 32.0694337 457.61844936 32.30435181 453.43209839 C32.71968191 446.04597862 33.15986893 438.66223818 33.63623047 431.27978516 C33.7345716 429.73696898 33.83283423 428.1941478 33.93101501 426.65132141 C34.07315223 424.4184326 34.21703391 422.18573465 34.36680794 419.95334435 C34.50358375 417.91426594 34.63368414 415.87474301 34.76342773 413.83520508 C34.84012192 412.67233475 34.9168161 411.50946442 34.99583435 410.31135559 C35.00881058 409.4506395 35.0217868 408.5899234 35.03515625 407.703125 C34.70515625 407.373125 34.37515625 407.043125 34.03515625 406.703125 C33.78894174 403.59641771 33.86974917 400.47066932 33.87890625 397.35546875 C33.88063843 396.40735825 33.88237061 395.45924774 33.88415527 394.48240662 C33.94891374 385.87708872 34.568299 377.37026657 35.31854248 368.80249023 C38.01650446 337.20539481 37.87935449 305.63834079 35.66015625 274.015625 C35.59721375 273.10159912 35.53427124 272.18757324 35.46942139 271.24584961 C35.28763504 268.68489153 35.09098993 266.12565938 34.88671875 263.56640625 C34.83138977 262.80934891 34.77606079 262.05229156 34.71905518 261.27229309 C34.40714176 257.65719773 34.09033001 255.78588564 32.03515625 252.703125 C31.60366458 250.14801749 31.25053226 247.64908218 30.97265625 245.078125 C30.83833727 240.51900439 30.83833727 240.51900439 29.03515625 236.703125 C28.75355709 233.57762453 28.53306735 230.46779977 28.3515625 227.3359375 C28.29181244 226.3667337 28.23206238 225.39752991 28.17050171 224.3989563 C27.97505467 221.20893511 27.78632382 218.01855373 27.59765625 214.828125 C27.46398424 212.62595461 27.32994892 210.42380624 27.19555664 208.22167969 C26.50773474 196.89453692 25.84901314 185.56579288 25.21362305 174.2355957 C24.93779838 169.31752417 24.65347299 164.39995262 24.36634827 159.48252869 C24.18620524 156.38377669 24.01362319 153.28494244 23.85400391 150.18505859 C22.2512125 119.13939314 18.30881443 86.90953169 11.03515625 56.640625 C9.83234958 51.49553729 8.79287426 46.3793423 7.99267578 41.15625 C6.12108333 29.10770181 2.39119155 14.19374439 -7.08984375 5.828125 C-16.48943411 2.15002442 -25.16252195 2.59552147 -34.83984375 4.515625 Z M-187.15234375 21.703125 C-197.14403491 34.47801704 -198.2600813 50.03905211 -199.96484375 65.515625 C-200.14025033 67.08911681 -200.31570644 68.66260309 -200.49121094 70.23608398 C-200.91482617 74.05106333 -201.33126794 77.86678516 -201.74487305 81.68286133 C-201.94107658 83.48484164 -202.14116897 85.28639755 -202.34179688 87.08789062 C-203.66264834 99.00719095 -204.22841432 110.71066391 -203.96484375 122.703125 C-200.5895513 121.45866935 -197.82157715 120.04552351 -194.90234375 117.953125 C-182.0568768 109.22588915 -170.06961481 105.17017798 -154.58984375 105.265625 C-153.44773437 105.24564453 -152.305625 105.22566406 -151.12890625 105.20507812 C-143.92813879 105.20916947 -138.0437816 106.28589955 -131.30615234 108.84350586 C-129.06762211 109.81801076 -129.06762211 109.81801076 -126.96484375 109.703125 C-128.9977121 76.81476218 -128.9977121 76.81476218 -135.96484375 44.703125 C-136.15949219 44.03007324 -136.35414063 43.35702148 -136.5546875 42.66357422 C-138.78136757 35.06406871 -141.60107547 27.98363094 -145.08984375 20.890625 C-145.42669189 20.20202393 -145.76354004 19.51342285 -146.1105957 18.80395508 C-147.7938546 15.50779859 -148.8274395 13.79472784 -151.96484375 11.703125 C-164.08270849 8.13904713 -178.50652695 12.60700524 -187.15234375 21.703125 Z M-196.96484375 124.703125 C-201.15600101 132.93163558 -201.11676266 142.68404973 -199.08984375 151.515625 C-191.7648918 162.50305292 -178.75086786 170.65883354 -165.96484375 173.703125 C-149.12175625 176.99903853 -136.66774701 174.31412767 -121.96484375 165.703125 C-120.82273437 165.06890625 -119.680625 164.4346875 -118.50390625 163.78125 C-112.03821926 159.72502814 -109.0135508 155.42876569 -106.71484375 148.15234375 C-105.37757718 142.0023105 -104.12637235 135.40012384 -107.0390625 129.54296875 C-108.54554634 127.66502314 -110.09494917 126.21741997 -111.96484375 124.703125 C-112.568125 124.18363281 -113.17140625 123.66414062 -113.79296875 123.12890625 C-118.75267739 119.12686493 -124.16012353 116.28492593 -129.96484375 113.703125 C-131.22941406 113.12691406 -131.22941406 113.12691406 -132.51953125 112.5390625 C-152.88404458 104.13945611 -181.16894761 108.90722886 -196.96484375 124.703125 Z M-204.96484375 130.703125 C-210.69392291 140.57623809 -215.46145096 150.14606547 -215.96484375 161.703125 C-216.01640625 162.36183594 -216.06796875 163.02054688 -216.12109375 163.69921875 C-216.3535137 168.82214178 -215.56373814 173.73730212 -214.65234375 178.765625 C-214.5347168 179.4263501 -214.41708984 180.0870752 -214.29589844 180.76782227 C-213.35061904 185.64592328 -211.7831034 190.08977175 -209.96484375 194.703125 C-209.46941718 196.05433319 -208.97861185 197.40724379 -208.4921875 198.76171875 C-201.58789339 217.82666257 -194.46015991 236.7597702 -184.96484375 254.703125 C-184.66320312 255.43660156 -184.3615625 256.17007813 -184.05078125 256.92578125 C-181.13005091 261.70611329 -174.25292244 264.04226303 -169.09765625 265.53125 C-166.04634505 266.11008952 -163.06056839 266.45426041 -159.96484375 266.703125 C-158.83433594 266.80882812 -157.70382812 266.91453125 -156.5390625 267.0234375 C-146.34233472 267.52725004 -134.73332809 266.37390497 -125.96484375 260.703125 C-122.29240622 256.80807903 -120.57542374 251.89072877 -118.80078125 246.92480469 C-117.66593249 243.90870547 -116.25807364 241.05830525 -114.83544922 238.16943359 C-110.35710143 229.05360891 -106.26584173 219.72391115 -103.65234375 209.890625 C-102.31423681 205.18417988 -100.23297353 200.98691019 -98.02734375 196.640625 C-97.67373779 195.93744141 -97.32013184 195.23425781 -96.95581055 194.50976562 C-95.55298827 191.74001557 -94.14801047 189.00958677 -92.5546875 186.34375 C-87.43217019 177.16361145 -88.97353055 163.58543747 -91.38525391 153.70751953 C-93.12421257 147.69368186 -96.05217827 141.70603762 -100.96484375 137.703125 C-101.03960937 138.35796875 -101.114375 139.0128125 -101.19140625 139.6875 C-102.70996398 150.22807716 -106.51241871 159.8689681 -114.92578125 166.75 C-131.06720322 177.12366451 -147.41831408 181.65290265 -166.45727539 177.57617188 C-181.05693415 173.95422078 -194.04301221 165.79478294 -202.94140625 153.52734375 C-206.68588003 146.85303361 -205.22254275 137.93489428 -203.96484375 130.703125 C-204.29484375 130.703125 -204.62484375 130.703125 -204.96484375 130.703125 Z M-181.96484375 262.703125 C-181.90296875 263.734375 -181.84109375 264.765625 -181.77734375 265.828125 C-182.02783518 271.00494793 -183.52286283 274.1614183 -187.0546875 277.9375 C-189.4995515 281.4773031 -189.40646017 283.5628309 -189.27734375 287.828125 C-189.25897461 288.48756104 -189.24060547 289.14699707 -189.22167969 289.82641602 C-189.15799472 291.78615441 -189.06187122 293.74475424 -188.96484375 295.703125 C-188.93261719 296.74082031 -188.90039062 297.77851563 -188.8671875 298.84765625 C-188.4534417 306.43299587 -186.4699552 311.65636783 -181.65234375 317.515625 C-175.97412492 322.13743102 -170.17876244 323.2346894 -163.08984375 323.890625 C-162.33832031 323.97248047 -161.58679688 324.05433594 -160.8125 324.13867188 C-150.33450584 325.20803835 -140.15418109 325.56330242 -131.02734375 319.453125 C-126.73617971 315.47422877 -126.3969972 309.77110066 -125.5703125 304.26171875 C-125.03084442 301.09103863 -124.15534761 298.65715532 -122.96484375 295.703125 C-122.113935 288.03243286 -123.39520542 281.14425519 -126.58984375 274.140625 C-128.09456559 270.37882039 -128.06969783 267.71141053 -127.96484375 263.703125 C-129.02960938 264.0640625 -130.094375 264.425 -131.19140625 264.796875 C-148.2937019 270.3647876 -165.38686358 270.33969135 -181.96484375 262.703125 Z M-161.96484375 328.703125 C-162.16066958 333.01528981 -162.34511449 337.3278659 -162.52734375 341.640625 C-162.58341797 342.87232422 -162.63949219 344.10402344 -162.69726562 345.37304688 C-162.74560547 346.54287109 -162.79394531 347.71269531 -162.84375 348.91796875 C-162.89088135 350.00198975 -162.9380127 351.08601074 -162.98657227 352.20288086 C-163.25746317 354.64415064 -163.25746317 354.64415064 -161.96484375 355.703125 C-159.63186942 355.74405437 -157.2977915 355.74554223 -154.96484375 355.703125 C-153.37385889 352.16109029 -152.68669811 349.27597427 -152.55078125 345.40234375 C-152.49277344 343.93764648 -152.49277344 343.93764648 -152.43359375 342.44335938 C-152.40265625 341.43595703 -152.37171875 340.42855469 -152.33984375 339.390625 C-152.30117188 338.36388672 -152.2625 337.33714844 -152.22265625 336.27929688 C-152.12869886 333.75419191 -152.04569567 331.22868356 -151.96484375 328.703125 C-155.26484375 328.703125 -158.56484375 328.703125 -161.96484375 328.703125 Z " fill="#000000" transform="translate(552.96484375,11.296875)"/>
<path d="M0 0 C0.99 0.33 1.98 0.66 3 1 C3.495 9.415 3.495 9.415 4 18 C8.62 18 13.24 18 18 18 C18 15.36 18 12.72 18 10 C18.99 10 19.98 10 21 10 C21 12.64 21 15.28 21 18 C25.95 18 30.9 18 36 18 C36 15.36 36 12.72 36 10 C36.99 10 37.98 10 39 10 C39 17.26 39 24.52 39 32 C38.01 32 37.02 32 36 32 C36 28.37 36 24.74 36 21 C31.05 21 26.1 21 21 21 C21 24.63 21 28.26 21 32 C20.01 32 19.02 32 18 32 C18 28.37 18 24.74 18 21 C13.05 21 8.1 21 3 21 C3 24.63 3 28.26 3 32 C2.01 32 1.02 32 0 32 C0 28.7 0 25.4 0 22 C-1.216875 22.185625 -2.43375 22.37125 -3.6875 22.5625 C-7.02977939 22.98993182 -9.71968417 22.92258883 -13 22 C-13 25.3 -13 28.6 -13 32 C-13.99 32 -14.98 32 -16 32 C-16 28.04 -16 24.08 -16 20 C-10.57002841 18.6425071 -5.59779635 18.93915439 0 19 C-0.33 15.04 -0.66 11.08 -1 7 C-1.99 7 -2.98 7 -4 7 C-4 6.01 -4 5.02 -4 4 C-3.34 4 -2.68 4 -2 4 C-1.34 2.68 -0.68 1.36 0 0 Z " fill="#000000" transform="translate(386,130)"/>
<path d="M0 0 C1.98 0 3.96 0 6 0 C5.95875 0.78375 5.9175 1.5675 5.875 2.375 C5.71271266 5.16116119 5.71271266 5.16116119 8 7 C8 7.99 8 8.98 8 10 C7.401875 9.79375 6.80375 9.5875 6.1875 9.375 C3.71549154 8.69328085 3.71549154 8.69328085 1 11 C0.34 10.67 -0.32 10.34 -1 10 C-1.125 2.25 -1.125 2.25 0 0 Z " fill="#000000" transform="translate(367,164)"/>
<path d="M0 0 C2.31 0 4.62 0 7 0 C7 0.99 7 1.98 7 3 C5.35 3.33 3.7 3.66 2 4 C3.32 4.66 4.64 5.32 6 6 C6 7.32 6 8.64 6 10 C3.6875 10.625 3.6875 10.625 1 11 C0.01 10.34 -0.98 9.68 -2 9 C-1.125 2.25 -1.125 2.25 0 0 Z " fill="#000000" transform="translate(420,164)"/>
<path d="M0 0 C1.67542976 0.28604898 3.34385343 0.61781233 5 1 C4.67 2.98 4.34 4.96 4 7 C4.99 7.33 5.98 7.66 7 8 C7 8.66 7 9.32 7 10 C0.375 11.25 0.375 11.25 -3 9 C-2.484375 8.608125 -1.96875 8.21625 -1.4375 7.8125 C-0.963125 7.214375 -0.48875 6.61625 0 6 C-0.32041397 3.39719432 -0.32041397 3.39719432 -1 1 C-0.67 0.67 -0.34 0.34 0 0 Z " fill="#000000" transform="translate(384,164)"/>
<path d="M0 0 C0.66 0 1.32 0 2 0 C4.4294516 3.6441774 4.16179575 5.71241272 4 10 C3.01 10 2.02 10 1 10 C1 9.01 1 8.02 1 7 C-0.32 7 -1.64 7 -3 7 C-2.38722388 4.03824877 -1.74627478 2.61941217 0 0 Z " fill="#000000" transform="translate(403,164)"/>
<path d="M0 0 C1.65 0 3.3 0 5 0 C5 2.31 5 4.62 5 7 C3.02 7.99 3.02 7.99 1 9 C-0.61949011 6.42786866 -1.04408751 5.32330841 -0.625 2.25 C-0.41875 1.5075 -0.2125 0.765 0 0 Z " fill="#000000" transform="translate(421,130)"/>
<path d="M0 0 C1.67542976 0.28604898 3.34385343 0.61781233 5 1 C5.33 2.65 5.66 4.3 6 6 C3.625 7.5625 3.625 7.5625 1 9 C0.34 8.67 -0.32 8.34 -1 8 C-1 7.34 -1 6.68 -1 6 C-0.34 6 0.32 6 1 6 C0.34 4.35 -0.32 2.7 -1 1 C-0.67 0.67 -0.34 0.34 0 0 Z " fill="#000000" transform="translate(403,130)"/>
<path d="" fill="#000000" transform="translate(0,0)"/>
<path d="" fill="#000000" transform="translate(0,0)"/>
</svg>
