<?xml version="1.0" encoding="UTF-8"?>
<svg version="1.1" xmlns="http://www.w3.org/2000/svg" width="614" height="657">
<path d="M0 0 C11.93301519 10.13131267 15.71920946 30.3967337 17.82348633 45.01538086 C18.74175226 51.26531693 20.04614304 57.36408834 21.47265625 63.515625 C24.34787021 76.12713861 25.91415237 88.8610203 27.49902344 101.68676758 C27.98150291 105.42856609 28.56905163 109.15060384 29.15951538 112.87664795 C30.84872695 123.61696949 31.84808208 134.2945491 32.53515625 145.140625 C32.65696233 146.95381026 32.77929218 148.76696041 32.90209961 150.58007812 C33.6257654 161.44084588 34.24070283 172.30646322 34.8203125 183.17578125 C34.91830643 184.9915995 34.91830643 184.9915995 35.01828003 186.84410095 C35.34027783 192.82055707 35.65215994 198.79720404 35.9453125 204.77514648 C36.05958619 206.95948888 36.17415477 209.14381587 36.2890625 211.328125 C36.33482925 212.3354921 36.38059601 213.34285919 36.42774963 214.38075256 C36.4780986 215.30440109 36.52844757 216.22804962 36.58032227 217.1796875 C36.64002953 218.3874585 36.64002953 218.3874585 36.70094299 219.61962891 C36.9352521 222.00384241 36.9352521 222.00384241 39.03515625 224.703125 C39.32226562 226.75610352 39.32226562 226.75610352 39.37890625 229.08203125 C39.42337891 230.33983398 39.42337891 230.33983398 39.46875 231.62304688 C39.51311893 233.38866941 39.55738933 235.15429443 39.6015625 236.91992188 C39.64603516 238.17579102 39.64603516 238.17579102 39.69140625 239.45703125 C39.71944336 240.60667358 39.71944336 240.60667358 39.74804688 241.77954102 C39.87553825 243.94015694 39.87553825 243.94015694 42.03515625 245.703125 C42.4140625 247.56542969 42.4140625 247.56542969 42.59765625 249.875 C42.67129395 250.74995117 42.74493164 251.62490234 42.82080078 252.52636719 C42.89153809 253.49219727 42.96227539 254.45802734 43.03515625 255.453125 C43.11491699 256.47825195 43.19467773 257.50337891 43.27685547 258.55957031 C43.44763966 260.78808757 43.61395818 263.01695048 43.77636719 265.24609375 C44.02967662 268.62992545 44.3152047 272.00978679 44.60546875 275.390625 C47.45213955 310.40270582 47.85418171 346.84116601 43.03515625 381.703125 C44.35515625 382.363125 45.67515625 383.023125 47.03515625 383.703125 C46.77453485 387.95766503 46.50789724 392.21177146 46.2355957 396.46557617 C46.14375627 397.91371341 46.0535825 399.36195725 45.96508789 400.81030273 C45.83784319 402.88815899 45.70467744 404.96556233 45.5703125 407.04296875 C45.49176025 408.29456787 45.41320801 409.54616699 45.33227539 410.83569336 C45.03515625 413.703125 45.03515625 413.703125 44.03515625 414.703125 C43.82393485 416.17536602 43.67520854 417.65665148 43.55273438 419.13891602 C43.47341675 420.08459946 43.39409912 421.0302829 43.31237793 422.00462341 C43.19062195 423.55887779 43.19062195 423.55887779 43.06640625 425.14453125 C42.9364325 426.75673302 42.9364325 426.75673302 42.80383301 428.40150452 C41.85631807 440.4701429 41.18766066 452.55311557 40.53515625 464.640625 C38.00667263 511.40364097 38.00667263 511.40364097 34.59765625 532.953125 C34.37285292 534.41360716 34.1489105 535.87422207 33.92578125 537.33496094 C33.59545354 539.49708955 33.26462114 541.65911714 32.9302063 543.82061768 C32.17962342 548.68431365 31.50871481 553.55436507 30.86889648 558.43359375 C29.68971043 567.33571523 27.95581342 576.00760448 25.86889648 584.74145508 C24.69937044 589.65451848 23.68863689 594.53242507 22.92260742 599.52416992 C20.84901389 613.02979153 16.11881875 629.34797131 5.09765625 638.203125 C-1.10614597 642.73413978 -8.13100556 643.0638512 -15.52734375 643.015625 C-16.40559814 643.01143555 -17.28385254 643.00724609 -18.1887207 643.00292969 C-30.36656041 642.7939444 -45.06035971 640.87744189 -53.96484375 631.703125 C-58.16421259 622.88445043 -57.11835126 611.68791925 -57.16448593 602.1484623 C-57.18021745 599.03650847 -57.2079801 595.92468915 -57.23474312 592.81281376 C-57.25621048 590.29897333 -57.27620236 587.78512371 -57.29614258 585.27127075 C-57.54090593 555.4410019 -58.31951481 525.70742822 -59.87402344 495.91772461 C-60.81633037 477.76903981 -61.4104812 459.64208477 -61.67382812 441.47094727 C-61.74850189 421.31739377 -61.74850189 421.31739377 -65.33984375 401.578125 C-65.54867188 400.78148437 -65.7575 399.98484375 -65.97265625 399.1640625 C-67.37140805 394.04667786 -68.9467937 389.72117505 -72.77734375 385.890625 C-75.78242014 384.25929782 -77.59671226 384.14176975 -80.96484375 384.703125 C-84.75135284 388.26689826 -86.8341689 393.02050119 -88.96484375 397.703125 C-89.45210938 398.7240625 -89.939375 399.745 -90.44140625 400.796875 C-92.43056589 405.47454224 -93.29101326 410.36176911 -94.27734375 415.328125 C-95.88548923 423.10755203 -97.74613585 430.71954104 -100.02734375 438.328125 C-108.21086283 466.19723676 -109.625227 494.92885047 -111.27523804 523.7723999 C-114.94855785 587.81575233 -114.94855785 587.81575233 -127.96484375 614.703125 C-128.51011719 615.90453125 -129.05539062 617.1059375 -129.6171875 618.34375 C-130.20999687 619.61042702 -130.80502388 620.87606871 -131.40234375 622.140625 C-131.93730469 623.27371094 -132.47226562 624.40679688 -133.0234375 625.57421875 C-135.69733556 629.8836601 -138.58341718 632.81848849 -143.45703125 634.62890625 C-158.10647252 637.00643852 -169.23409979 634.37539703 -181.96484375 626.703125 C-187.56090315 621.63885487 -191.44333141 616.28913191 -194.58984375 609.453125 C-195.0384375 608.52693359 -195.0384375 608.52693359 -195.49609375 607.58203125 C-200.25072347 597.37851171 -200.80101108 586.25498911 -201.96484375 575.203125 C-202.21385816 572.88126015 -202.46431752 570.55955579 -202.715271 568.23789978 C-202.88194757 566.69114812 -203.04718516 565.14424074 -203.21099854 563.59718323 C-203.61412364 559.8147352 -204.04105889 556.03822944 -204.52636719 552.26538086 C-205.68300596 543.22877525 -206.28173323 534.39251893 -206.21484375 525.265625 C-206.21240662 524.59222076 -206.20996948 523.91881653 -206.2074585 523.2250061 C-206.14246009 507.27517071 -205.60438765 491.33092158 -205.08984375 475.390625 C-205.05072876 474.11760529 -205.01161377 472.84458557 -204.97131348 471.5329895 C-204.85557885 467.84324935 -204.72840191 464.15407935 -204.59765625 460.46484375 C-204.56421112 459.37108429 -204.53076599 458.27732483 -204.49630737 457.15042114 C-204.11408109 447.06858746 -202.65065001 437.21960786 -200.40234375 427.390625 C-197.69764653 414.97360595 -195.55819264 401.66474249 -200.96484375 389.703125 C-201.64546875 387.8778125 -201.64546875 387.8778125 -202.33984375 386.015625 C-205.58505164 380.63210184 -212.30135139 378.63184743 -217.96484375 376.703125 C-224.26305754 375.28791744 -230.48299346 377.61208168 -235.96484375 380.703125 C-239.7076255 385.23983015 -240.07644633 390.02616848 -240.359375 395.75 C-240.42552002 396.97154785 -240.49166504 398.1930957 -240.55981445 399.45166016 C-240.59466949 400.10257629 -240.62952454 400.75349243 -240.66543579 401.4241333 C-241.8554258 422.99971973 -243.60645727 444.74418994 -249.10205078 465.69482422 C-253.30866748 482.30365137 -254.70249135 499.90361009 -255.96484375 516.953125 C-259.48497586 564.32482538 -259.48497586 564.32482538 -266.96484375 585.703125 C-267.5813261 587.56751105 -268.1971888 589.4321021 -268.8125 591.296875 C-274.55454302 608.25852034 -282.46237663 628.28847198 -297.96484375 638.703125 C-303.60353247 641.37848308 -308.83293135 641.61938777 -314.96484375 640.703125 C-325.52785463 636.88053648 -333.68616669 631.79571088 -338.67651367 621.47021484 C-342.65546916 612.68269005 -345.18658637 603.58314067 -347.36767578 594.21044922 C-347.95148577 591.75921104 -348.59188507 589.32885792 -349.2421875 586.89453125 C-352.70944714 573.26742511 -353.95384432 559.59211641 -355.13647461 545.62561035 C-356.35081429 531.33111539 -357.96921261 517.15114755 -360.02734375 502.953125 C-360.15140594 502.08674408 -360.27546814 501.22036316 -360.40328979 500.32772827 C-361.56016091 492.29295758 -362.78512546 484.37182616 -364.64453125 476.46484375 C-366.7727642 466.16881654 -366.20918876 455.72788452 -366.02734375 445.265625 C-364.56661516 413.82564165 -364.56661516 413.82564165 -378.33984375 386.8671875 C-386.55705724 380.09287757 -398.43395353 377.0773139 -408.96484375 377.703125 C-412.09888736 378.49092695 -415.11375063 379.54592987 -418.15234375 380.640625 C-419.72876198 381.19256347 -421.30557198 381.74338452 -422.8828125 382.29296875 C-423.57141357 382.53909912 -424.26001465 382.78522949 -424.96948242 383.03881836 C-426.95111047 383.69855284 -428.93285357 384.22348775 -430.96484375 384.703125 C-430.75859375 385.63125 -430.55234375 386.559375 -430.33984375 387.515625 C-428.98805709 397.49096415 -433.26495648 406.14101779 -437.71484375 414.765625 C-444.10414023 427.68895314 -449.73847591 439.92066993 -450.984375 454.4140625 C-451.06368759 455.29405914 -451.14300018 456.17405579 -451.22471619 457.08071899 C-452.4798395 471.8598287 -453.15095559 486.68876535 -453.89712143 501.50047684 C-454.02845251 504.10007196 -454.16169824 506.69956337 -454.2953186 509.29904175 C-455.5093144 532.99992475 -456.46321389 556.67677088 -456.75706482 580.40965271 C-457.17865309 613.14938998 -457.17865309 613.14938998 -468.55859375 625.421875 C-474.7082266 631.12426183 -481.21748748 633.38097854 -489.5859375 633.11328125 C-505.01192341 631.24076273 -520.17729403 626.24061971 -531.28125 614.98828125 C-535.33742389 609.4828016 -537.7767549 603.04023264 -539.9140625 596.58984375 C-540.16846603 595.82258469 -540.42286957 595.05532562 -540.6849823 594.26481628 C-543.80138227 584.52050517 -545.76980482 574.53438872 -547.77734375 564.515625 C-548.1741716 562.58508917 -548.57195431 560.65474935 -548.97070312 558.72460938 C-549.69274568 555.20398077 -550.41430407 551.68329605 -551.12036133 548.15942383 C-551.25992752 547.46536942 -551.39949371 546.771315 -551.54328918 546.05622864 C-552.49720929 540.73147818 -553.09030178 535.59232675 -553.09423828 530.1796875 C-553.09739044 528.92728271 -553.1005426 527.67487793 -553.10379028 526.38452148 C-553.10199857 525.03238896 -553.09994714 523.68025677 -553.09765625 522.328125 C-553.09833153 520.91674788 -553.09930341 519.50537087 -553.10055542 518.09399414 C-553.10202571 515.13866059 -553.09990196 512.18335735 -553.09521484 509.22802734 C-553.08955999 505.48441099 -553.09277368 501.74086703 -553.09878731 497.99725342 C-553.10244714 495.08001182 -553.10122911 492.1627866 -553.09865952 489.24554443 C-553.09800293 487.86798087 -553.09877302 486.4904157 -553.10113907 485.112854 C-553.1138909 475.59158252 -552.6953356 466.19071027 -551.96484375 456.703125 C-551.19794866 446.27907876 -552.07967369 438.81360783 -556.375 429.3046875 C-558.75282943 423.9180567 -560.31587837 418.34510073 -561.96484375 412.703125 C-562.38056641 411.42888672 -562.38056641 411.42888672 -562.8046875 410.12890625 C-568.43604364 392.73053729 -568.93375536 374.40800922 -560.96484375 357.703125 C-559.16264028 354.52385323 -557.20632791 351.58667112 -554.96484375 348.703125 C-554.34996094 347.88585937 -553.73507812 347.06859375 -553.1015625 346.2265625 C-550.86843428 343.58926665 -548.54556067 341.53500662 -545.83984375 339.390625 C-544.53660156 338.34455078 -544.53660156 338.34455078 -543.20703125 337.27734375 C-540.96484375 335.703125 -540.96484375 335.703125 -538.96484375 335.703125 C-538.7126709 334.98036377 -538.46049805 334.25760254 -538.20068359 333.51293945 C-533.49358584 322.81084778 -522.57173111 314.0941162 -514.33984375 306.015625 C-511.96921071 303.6818528 -509.60219144 301.34448742 -507.23828125 299.00390625 C-506.39591415 298.1717585 -506.39591415 298.1717585 -505.53652954 297.32279968 C-502.56140859 294.36389836 -499.72339164 291.35507462 -497.01171875 288.1484375 C-488.08608428 277.68470774 -473.92217214 272.70569809 -461.48583984 267.72119141 C-459.82450136 267.05028481 -458.17075596 266.36021262 -456.52587891 265.64990234 C-450.09632451 262.92264081 -443.68551317 261.29259836 -436.83984375 259.953125 C-435.74905518 259.7370459 -434.6582666 259.5209668 -433.53442383 259.29833984 C-414.49328636 255.73717353 -414.49328636 255.73717353 -405.90234375 258.32421875 C-399.88322697 259.50134441 -392.11651541 255.07088553 -387.08984375 252.015625 C-378.49400533 245.80232875 -375.25098518 236.81915265 -373.42602539 226.72192383 C-372.73594818 221.76946795 -372.93683925 216.83485535 -373.04296875 211.84765625 C-373.0746311 209.69159576 -373.10434233 207.53550593 -373.13232422 205.37939453 C-373.14696716 204.25873596 -373.16161011 203.13807739 -373.17669678 201.98345947 C-373.36844072 184.55255494 -373.20666209 168.10047471 -369.46875 151.02734375 C-367.31821341 141.15992469 -366.0989999 131.1463869 -364.77734375 121.140625 C-364.64558746 120.15680847 -364.51383118 119.17299194 -364.37808228 118.15936279 C-362.88032821 106.92475882 -361.62819456 95.77409753 -361.02734375 84.453125 C-359.64778149 60.09043867 -355.01897992 22.04282968 -336.83984375 4.390625 C-329.79044154 -1.05946349 -321.41739445 -4.21482203 -312.48828125 -3.703125 C-304.02634695 -2.34083217 -298.16661656 3.16112087 -292.96484375 9.703125 C-285.3284163 20.76647134 -279.94193556 32.55615009 -275.78417969 45.29150391 C-274.98128107 47.65474365 -274.0856173 49.95974038 -273.16015625 52.27734375 C-265.8511637 71.48882763 -264.90094095 92.40801234 -262.96484375 112.703125 C-262.85009705 113.90388672 -262.85009705 113.90388672 -262.73303223 115.12890625 C-262.13448259 121.42147015 -261.55426705 127.71565544 -260.98291016 134.01074219 C-259.6796165 148.20542999 -257.92221258 162.03966261 -254.52734375 175.890625 C-249.42131374 196.99836545 -247.7762901 219.20793443 -246.7355957 240.85986328 C-246.40537058 246.75578552 -246.09262769 251.60752998 -242.96484375 256.703125 C-237.78604949 259.99347358 -231.0082144 261.65734142 -224.96484375 260.703125 C-217.11092814 258.01328724 -211.31205386 255.81596538 -207.27734375 248.328125 C-201.41349071 234.7111532 -204.91790848 218.55048713 -208.09716797 204.66943359 C-210.82491452 192.70476914 -211.12630004 180.61346541 -211.53515625 168.3828125 C-211.55755245 167.7223505 -211.57994865 167.0618885 -211.60302353 166.38141251 C-211.72178862 162.87497951 -211.8372092 159.36845588 -211.94970703 155.86181641 C-212.04103341 153.03085972 -212.13810134 150.20019834 -212.24072266 147.36962891 C-213.1136459 123.21461185 -213.43785155 99.13373611 -210.02734375 75.140625 C-209.75095684 73.10495281 -209.47844199 71.06878527 -209.20614624 69.03256226 C-208.94601216 67.0908799 -208.68229504 65.14967862 -208.41845703 63.20849609 C-207.9219517 59.37166963 -207.53148209 55.53442163 -207.17480469 51.68261719 C-205.87844525 37.9170888 -201.67143721 22.57626622 -191.27734375 12.765625 C-181.0696511 4.81312026 -170.54751113 1.29337786 -157.77734375 1.828125 C-156.76075684 1.86015015 -156.76075684 1.86015015 -155.72363281 1.89282227 C-149.23356417 2.31896202 -145.71575908 4.86401542 -141.328125 9.47265625 C-138.68280028 12.8544934 -136.87032239 16.47061623 -135.15234375 20.390625 C-134.81831543 21.14811035 -134.48428711 21.9055957 -134.14013672 22.68603516 C-131.1204822 29.82583426 -128.80503172 37.15487244 -126.58984375 44.578125 C-126.25621826 45.69405029 -125.92259277 46.80997559 -125.57885742 47.9597168 C-121.88477398 60.78505044 -120.48833602 73.57328111 -119.46484375 86.828125 C-119.33469654 88.46305825 -119.20448705 90.09798655 -119.07421875 91.73291016 C-118.28317496 101.80801873 -117.63356308 111.88585859 -117.08041382 121.9765625 C-115.4621078 151.4043485 -113.02811367 180.16751709 -104.13891602 208.4440918 C-102.31317047 214.30851753 -100.84925238 220.19197051 -99.58984375 226.203125 C-99.42218506 226.99887939 -99.25452637 227.79463379 -99.08178711 228.61450195 C-98.38503149 232.06823127 -97.96484375 235.16529853 -97.96484375 238.703125 C-96.97484375 239.033125 -95.98484375 239.363125 -94.96484375 239.703125 C-93.39453125 242.390625 -93.39453125 242.390625 -91.83984375 245.703125 C-90.27971588 249.45113621 -90.27971588 249.45113621 -87.96484375 252.703125 C-84.11647614 253.07316035 -81.75188398 253.17870335 -78.3984375 251.15234375 C-75.40849554 248.14320473 -74.3838548 245.18808575 -73.27734375 241.203125 C-72.97860352 240.23632812 -72.97860352 240.23632812 -72.67382812 239.25 C-69.56416363 228.72811882 -68.6559018 218.12416788 -68.44412231 207.2006073 C-68.40088324 204.97158427 -68.3469325 202.74301523 -68.29077148 200.51428223 C-68.19241815 196.54335384 -68.10316736 192.57228319 -68.01696777 188.60107422 C-67.86441097 181.58274654 -67.7012518 174.56470549 -67.52734375 167.546875 C-67.49890538 166.37789862 -67.49890538 166.37789862 -67.4698925 165.18530655 C-67.18388634 153.70222815 -66.63879219 142.25360975 -65.9375 130.7890625 C-64.83268188 112.62326752 -64.56684463 94.47831217 -64.42224121 76.28283691 C-64.10894192 37.63169956 -64.10894192 37.63169956 -63.625 23.9453125 C-63.59375282 22.69779709 -63.59375282 22.69779709 -63.56187439 21.42507935 C-63.26706384 14.58649325 -62.1002843 8.10549562 -57.46484375 2.890625 C-53.11965132 -0.22844877 -48.03970614 -1.77371437 -42.96484375 -3.296875 C-42.22878906 -3.52503906 -41.49273438 -3.75320313 -40.734375 -3.98828125 C-27.87118892 -7.2439195 -11.28986453 -7.45175949 0 0 Z M-34.83984375 4.515625 C-35.72542969 4.68126953 -36.61101562 4.84691406 -37.5234375 5.01757812 C-46.04321396 6.55951111 -46.04321396 6.55951111 -52.58250427 11.8261261 C-54.28476136 15.36895464 -54.51839209 18.55317596 -54.63696289 22.41088867 C-54.66990228 23.15621699 -54.70284166 23.90154531 -54.73677921 24.66945934 C-55.04129581 32.11956275 -55.14450204 39.57508251 -55.19463921 47.03066444 C-55.21159844 49.47413451 -55.23484307 51.917482 -55.25953674 54.36088562 C-55.32877435 61.29675697 -55.38922719 68.2326826 -55.44165039 75.16870117 C-55.58638464 93.85578731 -55.92826414 112.47688144 -57.07366753 131.13179016 C-57.77539274 142.56682785 -58.2473206 153.98819798 -58.52734375 165.44140625 C-58.54648897 166.2104233 -58.56563419 166.97944035 -58.58535957 167.77176094 C-58.75843415 174.77669685 -58.91598407 181.7819616 -59.06933594 188.78735352 C-59.1555308 192.69997002 -59.24982243 196.6123308 -59.34860229 200.52464867 C-59.4002293 202.66619631 -59.44263989 204.80778468 -59.48461914 206.94953918 C-59.76454948 219.01571827 -60.74316102 231.10551567 -64.27734375 242.703125 C-64.46490234 243.38761719 -64.65246094 244.07210937 -64.84570312 244.77734375 C-66.74560769 251.19181255 -69.79885219 256.01365159 -75.08984375 260.140625 C-80.3729184 262.81676762 -86.37841575 262.45533462 -92.05078125 261.265625 C-97.00140699 259.53614876 -99.74853711 256.26049727 -101.96484375 251.703125 C-105.76149224 241.90108597 -107.89328012 231.74623361 -110.01733398 221.48095703 C-111.17027401 216.01559945 -112.47870702 210.67176639 -114.16064453 205.34423828 C-114.58966064 203.97501221 -114.58966064 203.97501221 -115.02734375 202.578125 C-115.25151474 201.86455338 -115.47568573 201.15098175 -115.70664978 200.41578674 C-117.48312347 194.62638748 -118.89477678 188.85231146 -120.015625 182.90234375 C-120.27138809 181.54611656 -120.27138809 181.54611656 -120.53231812 180.16249084 C-122.30676217 170.37159839 -123.2619472 160.54925929 -124.08984375 150.640625 C-124.25810514 148.72198089 -124.42664882 146.80336153 -124.59545898 144.88476562 C-125.63521984 132.83427171 -126.41800679 120.78228563 -127.02734375 108.703125 C-128.13017942 86.97896078 -129.4204906 65.57162336 -135.96484375 44.703125 C-136.34989417 43.39350396 -136.73403483 42.08361502 -137.1171875 40.7734375 C-139.25562393 33.84691949 -141.89424374 27.38759129 -145.08984375 20.890625 C-145.59511597 19.85772339 -145.59511597 19.85772339 -146.1105957 18.80395508 C-147.7938546 15.50779859 -148.8274395 13.79472784 -151.96484375 11.703125 C-161.86571023 8.79110545 -170.75764754 11.43873145 -179.65234375 15.953125 C-188.77616834 21.3387159 -193.82480473 30.63291514 -196.50976562 40.75805664 C-198.27907504 48.90841146 -199.05276558 57.23538378 -199.96484375 65.515625 C-200.14025033 67.08911681 -200.31570644 68.66260309 -200.49121094 70.23608398 C-200.91482617 74.05106333 -201.33126794 77.86678516 -201.74487305 81.68286133 C-201.94107658 83.48484164 -202.14116897 85.28639755 -202.34179688 87.08789062 C-204.15047198 103.40928815 -204.20061402 119.29437207 -203.38916016 135.68115234 C-203.0773179 142.22558239 -202.88153451 148.76643753 -202.74609375 155.31640625 C-202.72771957 156.16736374 -202.7093454 157.01832123 -202.69041443 157.89506531 C-202.54231454 164.79026117 -202.54231454 164.79026117 -202.4861145 168.21713257 C-202.26711464 181.53921243 -201.24592731 194.36623376 -198.36523438 207.42236328 C-194.2320403 226.34824359 -193.88111296 242.7768626 -203.96484375 259.703125 C-203.96484375 260.363125 -203.96484375 261.023125 -203.96484375 261.703125 C-205.03025391 262.11884766 -205.03025391 262.11884766 -206.1171875 262.54296875 C-209.92140168 264.09283378 -213.623052 265.84295327 -217.34375 267.58203125 C-226.00333066 271.28590554 -233.46439777 269.87589802 -242.16796875 266.87109375 C-246.77651623 264.94657462 -250.09759195 263.43972748 -252.21484375 258.765625 C-252.529375 258.09660156 -252.84390625 257.42757812 -253.16796875 256.73828125 C-254.92701889 252.24580515 -255.26035483 247.80193717 -255.578125 243.01953125 C-255.69002626 241.45056173 -255.80251862 239.88163428 -255.91552734 238.31274414 C-255.97407898 237.48968781 -256.03263062 236.66663147 -256.09295654 235.81863403 C-257.62928545 214.54675925 -259.57879184 193.38252763 -264.46484375 172.578125 C-268.05854369 157.16991437 -269.38559231 141.4179333 -270.96484375 125.703125 C-271.05098938 124.84829529 -271.13713501 123.99346558 -271.22589111 123.11273193 C-272.81323461 107.34352195 -272.81323461 107.34352195 -273.57055664 99.46704102 C-273.94463261 95.58906288 -274.33607294 91.71324582 -274.74313354 87.83859253 C-274.95259091 85.82114182 -275.14870869 83.80231906 -275.34399414 81.78344727 C-276.33998886 72.83712303 -278.5137982 64.71261627 -281.4309082 56.24145508 C-282.15123821 54.14384436 -282.84546718 52.03886178 -283.53710938 49.93164062 C-288.67026015 34.56903446 -296.01588431 13.7525647 -310.96484375 5.703125 C-316.77381826 3.96896132 -320.71978967 6.17741678 -325.96484375 8.703125 C-336.4032817 14.6955616 -339.86490455 25.01447639 -342.88623047 36.07666016 C-345.06472415 44.58342598 -347.06088548 53.13111619 -348.96484375 61.703125 C-349.16440674 62.54915283 -349.36396973 63.39518066 -349.56958008 64.2668457 C-351.10032774 71.1306127 -351.52210513 78.04610372 -351.99755859 85.04483032 C-353.13060008 101.30125027 -355.13849961 117.38996518 -357.46484375 133.515625 C-357.61432465 134.56066193 -357.76380554 135.60569885 -357.91781616 136.68240356 C-358.3542673 139.71762105 -358.79765495 142.75168775 -359.24609375 145.78515625 C-359.38908401 146.7535997 -359.53207428 147.72204315 -359.67939758 148.71983337 C-360.28664118 152.7151338 -360.9114532 156.67558352 -361.8515625 160.60742188 C-364.94725899 173.59335996 -364.15033587 186.61602021 -363.90332031 199.88232422 C-363.25921523 237.90147449 -363.25921523 237.90147449 -375.27734375 254.078125 C-385.61152312 264.17197462 -399.6930706 268.37052012 -413.96484375 268.703125 C-413.96484375 268.043125 -413.96484375 267.383125 -413.96484375 266.703125 C-421.44421649 266.3713456 -428.18218465 267.29488971 -435.46484375 268.953125 C-436.91697266 269.26056641 -436.91697266 269.26056641 -438.3984375 269.57421875 C-444.90198671 271.01460213 -450.86649253 273.04166909 -456.96484375 275.703125 C-457.91697754 276.11159668 -458.86911133 276.52006836 -459.85009766 276.94091797 C-462.92103947 278.27389013 -465.97493808 279.64078909 -469.02734375 281.015625 C-470.05150391 281.46357422 -471.07566406 281.91152344 -472.13085938 282.37304688 C-482.25522249 286.94680069 -489.67741409 292.95794392 -497.02734375 301.203125 C-501.20261758 305.78955772 -505.36262327 310.10999633 -510.14453125 314.07421875 C-513.74674372 317.2976578 -516.83305054 321.02993137 -519.96484375 324.703125 C-516.57530422 325.83297151 -514.41772818 325.41149044 -510.96484375 324.703125 C-488.66304482 322.87206897 -470.49657274 328.84082766 -452.96484375 342.703125 C-452.63484375 343.363125 -452.30484375 344.023125 -451.96484375 344.703125 C-451.30484375 344.703125 -450.64484375 344.703125 -449.96484375 344.703125 C-449.96484375 345.363125 -449.96484375 346.023125 -449.96484375 346.703125 C-449.30484375 346.703125 -448.64484375 346.703125 -447.96484375 346.703125 C-447.70316406 347.27804687 -447.44148438 347.85296875 -447.171875 348.4453125 C-445.88678627 350.84913543 -444.39432957 352.73465202 -442.65234375 354.828125 C-437.84549088 360.89677674 -434.77559001 367.5299988 -431.96484375 374.703125 C-426.66158152 373.78263767 -421.59430941 372.12331086 -416.46679688 370.51953125 C-411.6123836 369.0479692 -407.01681459 368.19421627 -401.96484375 367.703125 C-401.07539063 367.61289062 -400.1859375 367.52265625 -399.26953125 367.4296875 C-391.4967041 367.10477833 -383.7492376 368.83315386 -376.96484375 372.703125 C-376.296875 375.1796875 -376.296875 375.1796875 -375.96484375 377.703125 C-374.34311772 379.44285518 -374.34311772 379.44285518 -372.27734375 380.890625 C-362.48576868 389.08822273 -359.03575548 400.76866723 -357.70361328 413.12646484 C-356.93721776 422.63381259 -356.91443235 432.15290778 -357.08984375 441.68359375 C-357.39096448 459.57504339 -356.01251868 476.05037153 -352.67919922 493.70361328 C-351.32890766 501.08290053 -350.34504532 508.52055652 -349.33984375 515.953125 C-349.17950653 517.12177094 -349.17950653 517.12177094 -349.01593018 518.31402588 C-347.87683958 526.66843618 -346.87339026 535.0068664 -346.265625 543.41796875 C-346.21464157 544.12264282 -346.16365814 544.82731689 -346.11112976 545.55334473 C-346.03545525 546.6046759 -346.03545525 546.6046759 -345.95825195 547.67724609 C-344.99724434 561.01341867 -343.23915434 573.80434378 -340.15234375 586.828125 C-339.99148285 587.51611176 -339.83062195 588.20409851 -339.66488647 588.91293335 C-335.5177439 609.02602554 -335.5177439 609.02602554 -324.96484375 625.703125 C-316.07544276 631.35477485 -316.07544276 631.35477485 -306.0078125 632.2421875 C-291.38149334 625.0368008 -283.82029919 607.29973803 -278.76008606 592.63644409 C-278.25764623 591.14165791 -277.76053615 589.64506957 -277.26879883 588.14672852 C-276.51987088 585.8678865 -275.74530569 583.59896558 -274.96679688 581.33007812 C-270.33670757 567.67139357 -268.48029852 554.26099024 -267.02734375 539.953125 C-266.8519005 538.26274158 -266.67611431 536.57239372 -266.5 534.88208008 C-265.68243153 526.99171465 -264.89651934 519.09939457 -264.1796875 511.19921875 C-262.53531115 493.15441039 -260.82151042 475.03415275 -256.46191406 457.40380859 C-251.62804781 437.82617542 -249.74974801 416.55771873 -249.29223633 396.42016602 C-249.06239824 388.12415511 -247.63920432 380.03829718 -241.96484375 373.703125 C-235.37294422 368.94622962 -226.00067976 366.54493511 -217.96484375 367.703125 C-214.16004764 368.74746815 -210.58465081 370.14072964 -206.96484375 371.703125 C-206.14242188 372.04214844 -205.32 372.38117188 -204.47265625 372.73046875 C-196.95776395 376.28549356 -193.72513169 381.88233644 -190.93359375 389.52734375 C-187.43585062 401.65609191 -188.78179359 413.49910652 -191.015625 425.6953125 C-191.22602417 426.84954712 -191.22602417 426.84954712 -191.44067383 428.02709961 C-191.82432013 429.98571492 -192.24934645 431.93634899 -192.69799805 433.88110352 C-195.55711594 447.11141139 -195.77280654 460.39764719 -196.15234375 473.890625 C-196.2305453 476.44914001 -196.30883385 479.00765235 -196.38720703 481.56616211 C-196.60557982 488.94458182 -196.78929336 496.32358129 -196.96484375 503.703125 C-196.98996033 504.68937866 -197.0150769 505.67563232 -197.04095459 506.69177246 C-197.5773188 527.8474761 -196.59706432 548.13673762 -193.47753906 569.07470703 C-192.98211702 572.58087957 -192.57558452 576.08390672 -192.20703125 579.60546875 C-190.65934813 594.72166729 -190.65934813 594.72166729 -184.96484375 608.703125 C-184.53429687 609.52683594 -184.10375 610.35054687 -183.66015625 611.19921875 C-178.93122996 619.334575 -171.11693456 623.58838456 -162.2578125 626.23828125 C-156.14477791 627.47755061 -149.62008911 627.53074768 -143.96484375 624.703125 C-119.46323647 598.01476169 -121.50486828 548.46819789 -119.50390625 514.9921875 C-117.6732397 484.73301651 -114.87726302 455.76317818 -106.20043945 426.63720703 C-103.98512841 419.09987663 -102.30563292 411.48584088 -100.7890625 403.77929688 C-98.89388047 394.45795833 -96.50964639 384.85674649 -89.96484375 377.703125 C-84.6619507 375.31162421 -78.70805646 374.82231929 -72.96484375 375.703125 C-67.72498567 377.87816043 -64.18296839 381.04463006 -60.96484375 385.703125 C-59.96071628 388.28556333 -59.10353872 390.74269079 -58.33984375 393.390625 C-58.1274707 394.10686035 -57.91509766 394.8230957 -57.69628906 395.56103516 C-57.10103021 397.60383434 -56.5274308 399.65111797 -55.96484375 401.703125 C-55.72507812 402.57324219 -55.4853125 403.44335938 -55.23828125 404.33984375 C-54.05267235 409.40964898 -53.72320565 414.52110498 -53.44140625 419.70703125 C-53.39833344 420.49460312 -53.35526062 421.28217499 -53.31088257 422.09361267 C-52.87191302 430.67519888 -52.75679541 439.25758174 -52.63354492 447.84832764 C-52.3500956 466.77015318 -51.63377009 485.64470806 -50.67056274 504.543396 C-50.63667576 505.20828789 -50.60278877 505.87317978 -50.56787491 506.55821991 C-50.49922038 507.9041781 -50.43045167 509.25013046 -50.36156845 510.59607697 C-49.47173797 528.04849295 -48.8381653 545.48232551 -48.6171875 562.95703125 C-48.6064835 563.80233902 -48.5957795 564.64764679 -48.58475113 565.51856995 C-48.48298445 573.82699417 -48.40485493 582.13540213 -48.35802364 590.44431782 C-48.33952981 593.51458126 -48.31435197 596.58477277 -48.28845406 599.65498161 C-48.27393396 601.75250152 -48.27031564 603.84984032 -48.26731873 605.94740295 C-48.32344276 616.49845459 -48.32344276 616.49845459 -45.96484375 626.703125 C-41.04341874 630.74595149 -35.45087881 631.84639043 -29.27734375 633.015625 C-27.95440308 633.27098022 -27.95440308 633.27098022 -26.60473633 633.53149414 C-17.37673601 635.18185885 -8.26475823 635.61531929 0.03515625 630.703125 C12.47082504 617.09057904 14.31628212 598.70616805 17.38720703 581.25585938 C18.05855925 577.5748053 18.83550071 573.93387961 19.66943359 570.28710938 C22.48663758 557.96429472 23.93034648 545.43140683 25.48510742 532.89868164 C25.86400804 529.92157994 26.29512852 526.9562163 26.7512207 523.98999023 C29.12857137 508.22710527 30.09916564 492.42148547 30.9788208 476.52093506 C31.17465181 473.01036002 31.37955708 469.50031757 31.58398438 465.99023438 C31.82739731 461.80436977 32.0694337 457.61844936 32.30435181 453.43209839 C32.71968191 446.04597862 33.15986893 438.66223818 33.63623047 431.27978516 C33.7345716 429.73696898 33.83283423 428.1941478 33.93101501 426.65132141 C34.07315223 424.4184326 34.21703391 422.18573465 34.36680794 419.95334435 C34.50358375 417.91426594 34.63368414 415.87474301 34.76342773 413.83520508 C34.84012192 412.67233475 34.9168161 411.50946442 34.99583435 410.31135559 C35.00881058 409.4506395 35.0217868 408.5899234 35.03515625 407.703125 C34.70515625 407.373125 34.37515625 407.043125 34.03515625 406.703125 C33.78894174 403.59641771 33.86974917 400.47066932 33.87890625 397.35546875 C33.88063843 396.40735825 33.88237061 395.45924774 33.88415527 394.48240662 C33.94891374 385.87708872 34.568299 377.37026657 35.31854248 368.80249023 C38.01650446 337.20539481 37.87935449 305.63834079 35.66015625 274.015625 C35.59721375 273.10159912 35.53427124 272.18757324 35.46942139 271.24584961 C35.28763504 268.68489153 35.09098993 266.12565938 34.88671875 263.56640625 C34.83138977 262.80934891 34.77606079 262.05229156 34.71905518 261.27229309 C34.40714176 257.65719773 34.09033001 255.78588564 32.03515625 252.703125 C31.60366458 250.14801749 31.25053226 247.64908218 30.97265625 245.078125 C30.83833727 240.51900439 30.83833727 240.51900439 29.03515625 236.703125 C28.75355709 233.57762453 28.53306735 230.46779977 28.3515625 227.3359375 C28.29181244 226.3667337 28.23206238 225.39752991 28.17050171 224.3989563 C27.97505467 221.20893511 27.78632382 218.01855373 27.59765625 214.828125 C27.46398424 212.62595461 27.32994892 210.42380624 27.19555664 208.22167969 C26.50773474 196.89453692 25.84901314 185.56579288 25.21362305 174.2355957 C24.93779838 169.31752417 24.65347299 164.39995262 24.36634827 159.48252869 C24.18620524 156.38377669 24.01362319 153.28494244 23.85400391 150.18505859 C22.2512125 119.13939314 18.30881443 86.90953169 11.03515625 56.640625 C9.83234958 51.49553729 8.79287426 46.3793423 7.99267578 41.15625 C6.12108333 29.10770181 2.39119155 14.19374439 -7.08984375 5.828125 C-16.48943411 2.15002442 -25.16252195 2.59552147 -34.83984375 4.515625 Z M-523.96484375 332.703125 C-524.88136719 333.03570312 -525.79789063 333.36828125 -526.7421875 333.7109375 C-529.12373017 334.4921907 -529.12373017 334.4921907 -529.96484375 336.703125 C-531.74456003 337.78009617 -533.56376654 338.79254187 -535.40234375 339.765625 C-536.39105469 340.29285156 -537.37976563 340.82007813 -538.3984375 341.36328125 C-539.91458081 342.15481421 -541.43508168 342.93824397 -542.96484375 343.703125 C-547.20344043 350.94277189 -547.8623286 358.47965913 -546.96484375 366.703125 C-546.35564899 368.7213733 -545.70378113 370.72868432 -544.96484375 372.703125 C-544.30484375 372.703125 -543.64484375 372.703125 -542.96484375 372.703125 C-542.96484375 373.693125 -542.96484375 374.683125 -542.96484375 375.703125 C-542.30484375 375.703125 -541.64484375 375.703125 -540.96484375 375.703125 C-540.96484375 376.363125 -540.96484375 377.023125 -540.96484375 377.703125 C-539.38703125 378.569375 -539.38703125 378.569375 -537.77734375 379.453125 C-535.51520975 380.73740426 -533.65860152 381.95970633 -531.65234375 383.640625 C-519.20284491 393.19489155 -504.18818784 395.31370342 -488.92578125 394.15136719 C-478.14280154 392.51898339 -467.00066186 385.96398388 -458.96484375 378.703125 C-453.46158269 371.19191734 -450.66149191 363.18828743 -451.24609375 353.82421875 C-452.5234216 348.27756141 -455.37963937 345.84764106 -459.96484375 342.703125 C-460.50125488 342.33348633 -461.03766602 341.96384766 -461.59033203 341.58300781 C-480.64257407 328.71173541 -502.02310805 323.52444472 -523.96484375 332.703125 Z M-551.96484375 352.703125 C-558.46526123 361.13675214 -561.65706146 371.14619253 -561.96484375 381.703125 C-561.9896582 382.35587402 -562.01447266 383.00862305 -562.04003906 383.68115234 C-562.16623389 389.35868222 -561.44639219 394.54549121 -560.21484375 400.078125 C-560.0336499 400.9124707 -559.85245605 401.74681641 -559.66577148 402.60644531 C-558.47389527 407.91032023 -557.01769033 412.97161018 -555 418.02734375 C-553.8242207 421.06662232 -552.91311312 424.14788326 -551.96484375 427.265625 C-548.85740411 436.99023485 -544.32043781 446.13548712 -539.94140625 455.3359375 C-538.12125106 459.16682213 -536.40779005 462.99549689 -534.86328125 466.9453125 C-531.99414085 474.12116782 -529.73021391 479.13099695 -522.40234375 482.703125 C-508.41127037 487.90910579 -489.27832477 488.10346093 -475.53515625 481.9375 C-469.65709234 478.69380305 -467.3499318 473.20383694 -464.98388672 467.21875 C-463.79188198 464.27614894 -462.48014561 461.40125228 -461.15625 458.515625 C-455.20870577 445.48399041 -455.20870577 445.48399041 -450.61157227 431.93920898 C-449.69409933 428.76701774 -448.54634303 425.71331761 -447.33984375 422.640625 C-447.09476074 422.01196533 -446.84967773 421.38330566 -446.59716797 420.7355957 C-445.15853581 417.18356311 -443.54404242 413.88301322 -441.57421875 410.59375 C-435.40779671 400.2564219 -432.89161225 391.76944623 -434.96484375 379.703125 C-437.00970488 371.61740327 -440.6747993 364.18175538 -445.96484375 357.703125 C-446.29484375 357.703125 -446.62484375 357.703125 -446.96484375 357.703125 C-447.05121094 358.38117188 -447.13757813 359.05921875 -447.2265625 359.7578125 C-448.80871504 370.23775866 -452.20290681 378.40115172 -460.68359375 385.05078125 C-463.0390099 386.74939866 -465.46390056 388.2257602 -467.96484375 389.703125 C-468.52123535 390.04875488 -469.07762695 390.39438477 -469.65087891 390.75048828 C-483.29153398 399.0293306 -497.615247 399.86529565 -513.1875 397.02734375 C-525.52293227 393.92641006 -537.7070944 387.10836628 -544.7890625 376.3515625 C-545.91635431 374.64012259 -545.91635431 374.64012259 -547.546875 373.3046875 C-550.76378082 369.6712677 -550.22531859 364.00729526 -550.52734375 359.390625 C-550.65302734 357.50923828 -550.65302734 357.50923828 -550.78125 355.58984375 C-550.84183594 354.63722656 -550.90242187 353.68460937 -550.96484375 352.703125 C-551.29484375 352.703125 -551.62484375 352.703125 -551.96484375 352.703125 Z M-542.96484375 461.703125 C-544.04450632 468.97950636 -544.29643171 476.2312261 -544.52734375 483.578125 C-544.56907715 484.87226318 -544.61081055 486.16640137 -544.65380859 487.49975586 C-544.92986245 496.52333677 -545.18207016 505.53892715 -545.00634766 514.56640625 C-544.97771975 516.04023843 -544.95704458 517.5142392 -544.94287109 518.98828125 C-544.77814165 532.54635222 -542.54820696 545.29694176 -539.64550781 558.51855469 C-538.97430289 561.65886927 -538.36268724 564.80503075 -537.76953125 567.9609375 C-533.7315624 592.52683096 -533.7315624 592.52683096 -520.5546875 612.6796875 C-509.50942076 619.54434518 -496.28682741 625.26744884 -482.96484375 623.703125 C-476.64611311 621.59688145 -472.78476529 617.1465321 -469.734375 611.375 C-465.89615439 602.56233462 -465.83484997 593.31904802 -465.68359375 583.82421875 C-465.66550156 582.90549484 -465.64740936 581.98677094 -465.62876892 581.04020691 C-465.59050671 579.08284659 -465.55395852 577.12545212 -465.51901245 575.16802979 C-465.42726201 570.04024001 -465.32263786 564.91271219 -465.21875 559.78515625 C-465.19829117 558.76194275 -465.17783234 557.73872925 -465.15675354 556.68450928 C-464.9639171 547.23048723 -464.70026943 537.7793616 -464.40234375 528.328125 C-464.38010742 527.61945282 -464.35787109 526.91078064 -464.33496094 526.18063354 C-464.21445738 522.35470171 -464.09117697 518.52886861 -463.96484375 514.703125 C-466.48628062 519.70575603 -468.13408178 524.04494084 -468.83984375 529.640625 C-469.65579273 534.60938896 -470.34821693 537.99608251 -473.96484375 541.703125 C-479.95484861 545.55615516 -485.99965046 547.4673649 -492.96484375 548.703125 C-493.74537318 552.28555495 -494.20692887 555.78778617 -494.5 559.44140625 C-494.58701172 560.50810547 -494.67402344 561.57480469 -494.76367188 562.67382812 C-494.89418945 564.32801758 -494.89418945 564.32801758 -495.02734375 566.015625 C-495.11822266 567.13775391 -495.20910156 568.25988281 -495.30273438 569.41601562 C-495.52605875 572.17818547 -495.74667006 574.94054434 -495.96484375 577.703125 C-499.03441473 578.72631533 -501.18924698 578.83684439 -504.40234375 578.828125 C-505.82353516 578.83199219 -505.82353516 578.83199219 -507.2734375 578.8359375 C-509.66624834 578.71785975 -511.67820528 578.38425135 -513.96484375 577.703125 C-513.80113281 576.79433594 -513.63742187 575.88554688 -513.46875 574.94921875 C-512.70090796 569.57432444 -512.85862885 564.18290955 -512.90234375 558.765625 C-512.90685547 557.70021484 -512.91136719 556.63480469 -512.91601562 555.53710938 C-512.92772588 552.92572209 -512.94412651 550.31445376 -512.96484375 547.703125 C-514.03863281 547.37441406 -515.11242187 547.04570313 -516.21875 546.70703125 C-530.27209656 542.12147998 -530.27209656 542.12147998 -534.83984375 534.984375 C-536.53168466 531.5536976 -537.49414389 528.49641207 -537.96484375 524.703125 C-538.073125 523.89359375 -538.18140625 523.0840625 -538.29296875 522.25 C-538.60956389 519.40064373 -538.80440268 516.56553947 -538.96484375 513.703125 C-539.0421875 512.53652344 -539.11953125 511.36992188 -539.19921875 510.16796875 C-539.49607115 502.45805221 -538.93275029 497.67966711 -533.96484375 491.703125 C-531.26736778 487.65691104 -531.99856804 485.73122722 -532.91796875 481.109375 C-535.02514753 474.25318136 -538.56953339 467.99629328 -541.96484375 461.703125 C-542.29484375 461.703125 -542.62484375 461.703125 -542.96484375 461.703125 Z M-462.96484375 471.703125 C-464.17285623 473.90224996 -465.35566322 476.10974319 -466.52734375 478.328125 C-466.86958984 478.94558594 -467.21183594 479.56304687 -467.56445312 480.19921875 C-469.79381189 484.47778607 -470.32888416 487.07065927 -468.96484375 491.703125 C-468.46984375 492.79625 -467.97484375 493.889375 -467.46484375 495.015625 C-465.72505507 499.29260551 -465.26532863 503.13368255 -464.96484375 507.703125 C-464.30484375 507.703125 -463.64484375 507.703125 -462.96484375 507.703125 C-462.2261608 495.68633623 -461.82610519 483.74254933 -461.96484375 471.703125 C-462.29484375 471.703125 -462.62484375 471.703125 -462.96484375 471.703125 Z M-527.96484375 481.703125 C-527.90296875 482.92 -527.84109375 484.136875 -527.77734375 485.390625 C-527.78648766 490.59350937 -529.70936756 493.30416582 -533.15234375 497.140625 C-536.04084396 502.81802197 -535.30298842 508.45421148 -534.96484375 514.703125 C-534.92101562 515.72921875 -534.8771875 516.7553125 -534.83203125 517.8125 C-534.35466043 525.32590157 -532.81406954 531.51490936 -527.6796875 537.3515625 C-519.67988192 543.65664845 -508.36294193 543.91254009 -498.65234375 544.015625 C-497.75322266 544.04462891 -496.85410156 544.07363281 -495.92773438 544.10351562 C-488.1114712 544.17698737 -482.45498243 542.07938963 -476.02734375 537.703125 C-473.33875623 533.79245224 -473.0251523 530.34814802 -472.43359375 525.6953125 C-472.01499874 523.02328103 -471.40767114 520.97756037 -470.33984375 518.515625 C-467.47399698 511.47466136 -468.74520243 503.79252486 -470.96484375 496.703125 C-471.50109375 495.671875 -472.03734375 494.640625 -472.58984375 493.578125 C-474.25157832 490.10358908 -474.19311402 487.50762944 -473.96484375 483.703125 C-477.15628269 484.21787322 -479.99669604 485.08589656 -483.00390625 486.2265625 C-488.19424322 487.97067958 -492.96633252 488.11503998 -498.40234375 488.015625 C-499.7181543 488.02045898 -499.7181543 488.02045898 -501.06054688 488.02539062 C-508.99578063 487.9610667 -516.87088154 487.07117123 -524.08984375 483.578125 C-524.83492187 483.22492188 -525.58 482.87171875 -526.34765625 482.5078125 C-526.88132812 482.24226563 -527.415 481.97671875 -527.96484375 481.703125 Z M-507.96484375 547.703125 C-508.29484375 556.613125 -508.62484375 565.523125 -508.96484375 574.703125 C-505.99484375 574.703125 -503.02484375 574.703125 -499.96484375 574.703125 C-499.21968476 571.31676191 -498.79713812 568.08369397 -498.6484375 564.62109375 C-498.60654297 563.68974609 -498.56464844 562.75839844 -498.52148438 561.79882812 C-498.48216797 560.83912109 -498.44285156 559.87941406 -498.40234375 558.890625 C-498.35916016 557.91158203 -498.31597656 556.93253906 -498.27148438 555.92382812 C-498.16582209 553.51707602 -498.0648691 551.11011797 -497.96484375 548.703125 C-501.26484375 548.373125 -504.56484375 548.043125 -507.96484375 547.703125 Z " fill="#000000" transform="translate(566.96484375,13.296875)"/>
<path d="M0 0 C0.66 0 1.32 0 2 0 C3.65497356 3.30994713 3.10084335 6.99123 3.0625 10.625 C3.05798828 11.42679687 3.05347656 12.22859375 3.04882812 13.0546875 C3.03703168 15.03649006 3.01909605 17.01825433 3 19 C3.71542969 18.83628906 4.43085937 18.67257812 5.16796875 18.50390625 C7.95828394 18.00742258 10.4835503 17.89978067 13.3125 17.9375 C14.19550781 17.94652344 15.07851562 17.95554687 15.98828125 17.96484375 C16.98408203 17.98224609 16.98408203 17.98224609 18 18 C18 15.36 18 12.72 18 10 C18.99 10 19.98 10 21 10 C21 12.64 21 15.28 21 18 C25.62 18 30.24 18 35 18 C35.33 15.36 35.66 12.72 36 10 C36.99 10.33 37.98 10.66 39 11 C39 18.26 39 25.52 39 33 C38.01 33 37.02 33 36 33 C36 29.37 36 25.74 36 22 C31.05 21.67 26.1 21.34 21 21 C21 24.96 21 28.92 21 33 C20.01 33 19.02 33 18 33 C18 29.04 18 25.08 18 21 C13.05 21.33 8.1 21.66 3 22 C3 25.63 3 29.26 3 33 C2.01 33 1.02 33 0 33 C-0.33 29.7 -0.66 26.4 -1 23 C-4.96 23 -8.92 23 -13 23 C-13 26.3 -13 29.6 -13 33 C-13.99 33 -14.98 33 -16 33 C-16 28.71 -16 24.42 -16 20 C-11.05 19.67 -6.1 19.34 -1 19 C-1 15.04 -1 11.08 -1 7 C-1.99 7 -2.98 7 -4 7 C-2.79618552 4.50638429 -1.54571278 2.31856917 0 0 Z " fill="#000000" transform="translate(54,351)"/>
<path d="M0 0 C0.78375 0.04125 1.5675 0.0825 2.375 0.125 C2.705 1.115 3.035 2.105 3.375 3.125 C1.725 3.125 0.075 3.125 -1.625 3.125 C-1.625 3.785 -1.625 4.445 -1.625 5.125 C-0.305 5.455 1.015 5.785 2.375 6.125 C2.045 7.775 1.715 9.425 1.375 11.125 C-1 11.25 -1 11.25 -3.625 11.125 C-4.285 10.465 -4.945 9.805 -5.625 9.125 C-4.99018771 0.23762799 -4.99018771 0.23762799 0 0 Z " fill="#000000" transform="translate(91.625,384.875)"/>
<path d="M0 0 C2.625 0.375 2.625 0.375 5 1 C5.66 3.97 6.32 6.94 7 10 C5.68 9.67 4.36 9.34 3 9 C0.78228936 9.85790183 0.78228936 9.85790183 -1 11 C-2.89488952 9.10511048 -2.18019112 6.42860854 -2.23046875 3.91015625 C-2 2 -2 2 0 0 Z " fill="#000000" transform="translate(36,385)"/>
<path d="M0 0 C1.65 0.33 3.3 0.66 5 1 C4.67 2.98 4.34 4.96 4 7 C4.99 7.33 5.98 7.66 7 8 C6.67 8.99 6.34 9.98 6 11 C3.36 11 0.72 11 -2 11 C-2 8 -2 8 -1 5 C-0.65179959 3.33637583 -0.31595508 1.67004829 0 0 Z " fill="#000000" transform="translate(52,385)"/>
<path d="M0 0 C1.2065625 0.0309375 1.2065625 0.0309375 2.4375 0.0625 C3.41870464 3.11513664 3.41870464 5.00986336 2.4375 8.0625 C0.7875 8.3925 -0.8625 8.7225 -2.5625 9.0625 C-3.44140625 2.91015625 -3.44140625 2.91015625 -3.5625 1.0625 C-2.5625 0.0625 -2.5625 0.0625 0 0 Z " fill="#000000" transform="translate(91.5625,350.9375)"/>
<path d="M0 0 C0.66 0 1.32 0 2 0 C2 0.99 2 1.98 2 3 C2.66 3 3.32 3 4 3 C4 5.31 4 7.62 4 10 C3.01 10.33 2.02 10.66 1 11 C0.67 10.01 0.34 9.02 0 8 C-0.99 7.67 -1.98 7.34 -3 7 C-2.38722388 4.03824877 -1.74627478 2.61941217 0 0 Z " fill="#000000" transform="translate(71,385)"/>
<path d="M0 0 C1.67542976 0.28604898 3.34385343 0.61781233 5 1 C5.33 2.98 5.66 4.96 6 7 C3 9 3 9 -1 9 C-1 8.01 -1 7.02 -1 6 C-0.34 5.67 0.32 5.34 1 5 C0.34 3.68 -0.32 2.36 -1 1 C-0.67 0.67 -0.34 0.34 0 0 Z " fill="#000000" transform="translate(71,351)"/>
</svg>
