<svg width="824" height="492" viewBox="0 0 824 492" fill="none" xmlns="http://www.w3.org/2000/svg">
<path d="M29.8281 41.4783C29.8281 54.5298 29.8281 71.2594 29.6106 88.3779C29.3931 95.4903 28.958 99.4058 28.2988 156.457C27.6397 213.507 29.1953 347.346 28.2988 460.749" stroke="black" stroke-width="4" stroke-linecap="round"/>
<path d="M33.7831 38.8416C44.7516 37.0882 60.4661 36.205 94.1824 35.1107C117.262 34.3617 161.213 34.8866 185.371 34.6691C209.53 34.4516 212.575 34.0165 215.667 33.7924C218.758 33.5683 221.803 33.5683 251.65 32.4807C281.497 31.3931 338.054 29.2178 368.494 27.8797C398.934 26.5416 401.545 26.1065 441.391 26.535C481.238 26.9635 558.241 28.2686 599.215 29.1585C640.189 30.0484 642.799 30.4834 648.277 30.7075C673.135 31.7246 688.888 32.25 705.617 33.3442C721.287 34.3691 736.4 34.4384 747.138 35.7567C758.311 36.205 765.443 36.64 772.206 37.2992C777.664 37.5233 787.235 37.5233 797.096 37.5233" stroke="black" stroke-width="4" stroke-linecap="round"/>
<path d="M782.595 49.3883C782.595 49.8234 782.595 50.2584 783.03 115.957C783.465 181.656 784.335 312.606 786.55 448.842" stroke="black" stroke-width="4" stroke-linecap="round"/>
<path d="M30.2444 461.249C30.6809 461.249 31.1174 461.249 136.545 457.355C241.973 453.461 452.379 445.672 562.734 442.05C673.089 438.427 677.018 439.206 690.173 439.607C725.587 440.687 750.711 440.787 756.201 441.967C769.68 443.147 774.522 444.728 778.484 445.118C780.263 445.507 781.572 446.286 784.244 449.448" stroke="black" stroke-width="4" stroke-linecap="round"/>
<path d="M11.3715 3.90289C11.7989 3.90289 12.2263 3.90289 113.1 3.23888C213.974 2.57488 415.28 1.24686 542.491 2.55475C669.702 3.86264 716.716 7.84668 742.218 10.2311C777.219 13.5037 790.152 15.2916 797.722 16.3077C799.671 16.6397 801.808 17.3037 804.191 17.6458C806.575 17.9879 809.139 17.9879 814.371 20" stroke="black" stroke-width="4" stroke-linecap="round"/>
<path d="M11 2.24854C8.69981 16.4943 6.39963 30.7401 5.21469 82.3742C4.02974 134.008 4.02974 222.599 3.79972 269.795C3.5545 320.111 2.63569 325.989 2.40567 332.039C1.57813 353.807 2.16171 380.813 2.86571 390.958C3.09573 393.44 3.55576 396.111 3.79275 412.401C4.02974 428.691 4.02974 458.518 4.02974 489.249" stroke="black" stroke-width="4" stroke-linecap="round"/>
<path d="M814.244 20.2485C814.645 43.0863 815.03 65.0013 815.318 81.4376C815.465 89.8067 815.593 97.0921 815.75 106.05C815.862 112.421 815.953 117.623 816.48 147.689C816.963 175.206 817.883 227.659 818.376 255.732C818.906 285.933 819.003 291.482 819.104 297.243C819.169 300.941 819.399 314.038 819.732 333.037C819.895 342.331 820.178 358.445 820.56 380.225C820.697 388.049 820.72 389.318 820.935 401.602C821.151 413.886 821.559 437.147 821.979 461.112" stroke="black" stroke-width="4" stroke-linecap="round"/>
<path d="M14.7651 487.831C24.2202 487.359 51.6696 483.565 64.3241 481.632C67.7477 481.109 72.6631 480.215 151.497 476.894C230.331 473.572 382.94 467.903 463.068 465.218C543.196 462.534 546.218 463.006 567.417 463.25C588.617 463.493 627.902 463.493 649.273 463.257C672.917 462.996 680.157 462.062 688.541 461.825C693.933 461.673 706.805 460.63 724.347 460.866C744.235 461.134 766.408 463.006 780.883 463.729C792.702 464.925 806.873 465.397 810.667 466.113C813.329 466.356 817.484 466.356 821.765 466.356" stroke="black" stroke-width="4" stroke-linecap="round"/>
</svg>
