<!-- created by svgstack.com | Attribution is required. --><svg width="120" height="120" viewBox="0 0 120 120" fill="none" xmlns="http://www.w3.org/2000/svg"><g clip-path="url(#clip0_10_5023)"><path d="M94 0H26C11.6406 0 0 11.6406 0 26V94C0 108.359 11.6406 120 26 120H94C108.359 120 120 108.359 120 94V26C120 11.6406 108.359 0 94 0Z" fill="url(#paint0_linear_10_5023)"/><path d="M61 13H65V107H61V13Z" fill="#2AAEF5"/><path d="M57.49 72.5C57.0939 72.4974 56.7149 72.3382 56.4358 72.0571C56.1567 71.7761 56 71.3961 56 71V49C56 48.6022 56.158 48.2206 56.4393 47.9393C56.7206 47.658 57.1022 47.5 57.5 47.5C57.8978 47.5 58.2794 47.658 58.5607 47.9393C58.842 48.2206 59 48.6022 59 49V71C59 71.1978 58.9609 71.3937 58.8849 71.5763C58.8089 71.759 58.6975 71.9248 58.5571 72.0642C58.4168 72.2036 58.2502 72.3139 58.0671 72.3887C57.884 72.4635 57.6878 72.5013 57.49 72.5ZM52.49 74.5C52.0939 74.4974 51.7149 74.3382 51.4358 74.0571C51.1567 73.7761 51 73.3961 51 73V47C51 46.6022 51.158 46.2206 51.4393 45.9393C51.7206 45.658 52.1022 45.5 52.5 45.5C52.8978 45.5 53.2794 45.658 53.5607 45.9393C53.842 46.2206 54 46.6022 54 47V73C54 73.1978 53.9609 73.3937 53.8849 73.5763C53.8089 73.759 53.6975 73.9248 53.5571 74.0642C53.4168 74.2036 53.2502 74.3139 53.0671 74.3887C52.884 74.4635 52.6878 74.5013 52.49 74.5ZM47.49 91.5C47.0939 91.4974 46.7149 91.3382 46.4358 91.0571C46.1567 90.7761 46 90.3961 46 90V30C46 29.6022 46.158 29.2206 46.4393 28.9393C46.7206 28.658 47.1022 28.5 47.5 28.5C47.8978 28.5 48.2794 28.658 48.5607 28.9393C48.842 29.2206 49 29.6022 49 30V90C49 90.1978 48.9609 90.3937 48.8849 90.5763C48.8089 90.759 48.6975 90.9248 48.5571 91.0642C48.4168 91.2036 48.2502 91.3139 48.0671 91.3887C47.884 91.4635 47.6878 91.5013 47.49 91.5ZM37.49 99.5C37.0939 99.4974 36.7149 99.3382 36.4358 99.0571C36.1567 98.7761 36 98.3961 36 98V22C36 21.6022 36.158 21.2206 36.4393 20.9393C36.7206 20.658 37.1022 20.5 37.5 20.5C37.8978 20.5 38.2794 20.658 38.5607 20.9393C38.842 21.2206 39 21.6022 39 22V98C39 98.1978 38.9609 98.3937 38.8849 98.5763C38.8089 98.759 38.6975 98.9248 38.5571 99.0642C38.4168 99.2036 38.2502 99.3139 38.0671 99.3887C37.884 99.4635 37.6878 99.5013 37.49 99.5ZM42.49 88.5C42.0939 88.4974 41.7149 88.3382 41.4358 88.0571C41.1567 87.7761 41 87.3961 41 87V33C41 32.6022 41.158 32.2206 41.4393 31.9393C41.7206 31.658 42.1022 31.5 42.5 31.5C42.8978 31.5 43.2794 31.658 43.5607 31.9393C43.842 32.2206 44 32.6022 44 33V87C44 87.1978 43.9609 87.3937 43.8849 87.5763C43.8089 87.759 43.6975 87.9248 43.5571 88.0642C43.4168 88.2036 43.2502 88.3139 43.0671 88.3887C42.884 88.4635 42.6878 88.5013 42.49 88.5ZM32.49 82.5C32.0939 82.4974 31.7149 82.3382 31.4358 82.0571C31.1567 81.7761 31 81.3961 31 81V39C31 38.6022 31.158 38.2206 31.4393 37.9393C31.7206 37.658 32.1022 37.5 32.5 37.5C32.8978 37.5 33.2794 37.658 33.5607 37.9393C33.842 38.2206 34 38.6022 34 39V81C34 81.1978 33.9609 81.3937 33.8849 81.5763C33.8089 81.759 33.6975 81.9248 33.5571 82.0642C33.4168 82.2036 33.2502 82.3139 33.0671 82.3887C32.884 82.4635 32.6878 82.5013 32.49 82.5ZM27.49 75.5C27.0939 75.4974 26.7149 75.3382 26.4358 75.0571C26.1567 74.7761 26 74.3961 26 74V46C26 45.6022 26.158 45.2206 26.4393 44.9393C26.7206 44.658 27.1022 44.5 27.5 44.5C27.8978 44.5 28.2794 44.658 28.5607 44.9393C28.842 45.2206 29 45.6022 29 46V74C29 74.1978 28.9609 74.3937 28.8849 74.5763C28.8089 74.759 28.6975 74.9248 28.5571 75.0642C28.4168 75.2036 28.2502 75.3139 28.0671 75.3887C27.884 75.4635 27.6878 75.5013 27.49 75.5ZM22.49 65.5C22.0939 65.4974 21.7149 65.3382 21.4358 65.0571C21.1567 64.7761 21 64.3961 21 64V56C21 55.6022 21.158 55.2206 21.4393 54.9393C21.7206 54.658 22.1022 54.5 22.5 54.5C22.8978 54.5 23.2794 54.658 23.5607 54.9393C23.842 55.2206 24 55.6022 24 56V64C24 64.1978 23.9609 64.3937 23.8849 64.5763C23.8089 64.759 23.6975 64.9248 23.5571 65.0642C23.4168 65.2036 23.2502 65.3139 23.0671 65.3887C22.884 65.4635 22.6878 65.5013 22.49 65.5ZM17.49 63.5C17.0939 63.4974 16.7149 63.3382 16.4358 63.0571C16.1567 62.7761 16 62.3961 16 62V58C16 57.6022 16.158 57.2206 16.4393 56.9393C16.7206 56.658 17.1022 56.5 17.5 56.5C17.8978 56.5 18.2794 56.658 18.5607 56.9393C18.842 57.2206 19 57.6022 19 58V62C19 62.1978 18.9609 62.3937 18.8849 62.5763C18.8089 62.759 18.6975 62.9248 18.5571 63.0642C18.4168 63.2036 18.2502 63.3139 18.0671 63.3887C17.884 63.4635 17.6878 63.5013 17.49 63.5ZM12.49 62C12.0939 61.9974 11.7149 61.8382 11.4358 61.5571C11.1567 61.2761 11 60.8961 11 60.5V59.5C11 59.1022 11.158 58.7206 11.4393 58.4393C11.7206 58.158 12.1022 58 12.5 58C12.8978 58 13.2794 58.158 13.5607 58.4393C13.842 58.7206 14 59.1022 14 59.5V60.5C14 60.6978 13.9609 60.8937 13.8849 61.0763C13.8089 61.259 13.6975 61.4248 13.5571 61.5642C13.4168 61.7036 13.2502 61.8139 13.0671 61.8887C12.884 61.9635 12.6878 62.0013 12.49 62ZM2.49 62C2.09391 61.9974 1.71494 61.8382 1.4358 61.5571C1.15665 61.2761 0.999991 60.8961 1 60.5V59.5C1 59.1022 1.15804 58.7206 1.43934 58.4393C1.72064 58.158 2.10218 58 2.5 58C2.89782 58 3.27936 58.158 3.56066 58.4393C3.84196 58.7206 4 59.1022 4 59.5V60.5C4 60.6978 3.96088 60.8937 3.88487 61.0763C3.80886 61.259 3.69748 61.4248 3.55713 61.5642C3.41678 61.7036 3.25024 61.8139 3.0671 61.8887C2.88395 61.9635 2.68782 62.0013 2.49 62ZM7.49 62.5C7.09391 62.4974 6.71494 62.3382 6.4358 62.0571C6.15665 61.7761 5.99999 61.3961 6 61V59C6 58.6022 6.15804 58.2206 6.43934 57.9393C6.72064 57.658 7.10218 57.5 7.5 57.5C7.89782 57.5 8.27936 57.658 8.56066 57.9393C8.84196 58.2206 9 58.6022 9 59V61C9 61.1978 8.96088 61.3937 8.88487 61.5763C8.80886 61.759 8.69748 61.9248 8.55713 62.0642C8.41678 62.2036 8.25024 62.3139 8.0671 62.3887C7.88395 62.4635 7.68782 62.5013 7.49 62.5Z" fill="#FC3D39"/><path d="M87.49 64.5C87.0939 64.4974 86.7149 64.3382 86.4358 64.0571C86.1567 63.7761 86 63.3961 86 63V57C86 56.6022 86.158 56.2206 86.4393 55.9393C86.7206 55.658 87.1022 55.5 87.5 55.5C87.8978 55.5 88.2794 55.658 88.5607 55.9393C88.842 56.2206 89 56.6022 89 57V63C89 63.1978 88.9609 63.3937 88.8849 63.5763C88.8089 63.759 88.6975 63.9248 88.5571 64.0642C88.4168 64.2036 88.2502 64.3139 88.0671 64.3887C87.8839 64.4635 87.6878 64.5013 87.49 64.5ZM78.49 65.5C78.0939 65.4974 77.7149 65.3382 77.4358 65.0571C77.1567 64.7761 77 64.3961 77 64V56C77 55.6022 77.158 55.2206 77.4393 54.9393C77.7206 54.658 78.1022 54.5 78.5 54.5C78.8978 54.5 79.2794 54.658 79.5607 54.9393C79.842 55.2206 80 55.6022 80 56V64C80 64.1978 79.9609 64.3937 79.8849 64.5763C79.8089 64.759 79.6975 64.9248 79.5571 65.0642C79.4168 65.2036 79.2502 65.3139 79.0671 65.3887C78.8839 65.4635 78.6878 65.5013 78.49 65.5Z" fill="#FEFEFE"/><path d="M68.49 74.5C68.0939 74.4974 67.7149 74.3382 67.4358 74.0571C67.1567 73.7761 67 73.3961 67 73V47C67 46.6022 67.158 46.2206 67.4393 45.9393C67.7206 45.658 68.1022 45.5 68.5 45.5C68.8978 45.5 69.2794 45.658 69.5607 45.9393C69.842 46.2206 70 46.6022 70 47V73C70 73.1978 69.9609 73.3937 69.8849 73.5763C69.8089 73.759 69.6975 73.9248 69.5571 74.0642C69.4168 74.2036 69.2502 74.3139 69.0671 74.3887C68.8839 74.4635 68.6878 74.5013 68.49 74.5Z" fill="#C7C7CC"/><path d="M73.49 68.5C73.0939 68.4974 72.7149 68.3382 72.4358 68.0571C72.1567 67.7761 72 67.3961 72 67V53C72 52.6022 72.158 52.2206 72.4393 51.9393C72.7206 51.658 73.1022 51.5 73.5 51.5C73.8978 51.5 74.2794 51.658 74.5607 51.9393C74.842 52.2206 75 52.6022 75 53V67C75 67.1978 74.9609 67.3937 74.8849 67.5763C74.8089 67.759 74.6975 67.9248 74.5571 68.0642C74.4168 68.2036 74.2502 68.3139 74.0671 68.3887C73.8839 68.4635 73.6878 68.5013 73.49 68.5ZM92.49 62.5C92.0939 62.4974 91.7149 62.3382 91.4358 62.0571C91.1567 61.7761 91 61.3961 91 61V59C91 58.6022 91.158 58.2206 91.4393 57.9393C91.7206 57.658 92.1022 57.5 92.5 57.5C92.8978 57.5 93.2794 57.658 93.5607 57.9393C93.842 58.2206 94 58.6022 94 59V61C94 61.1978 93.9609 61.3937 93.8849 61.5763C93.8089 61.759 93.6975 61.9248 93.5571 62.0642C93.4168 62.2036 93.2502 62.3139 93.0671 62.3887C92.8839 62.4635 92.6878 62.5013 92.49 62.5ZM83.49 63.5C83.0939 63.4974 82.7149 63.3382 82.4358 63.0571C82.1567 62.7761 82 62.3961 82 62V58C82 57.6022 82.158 57.2206 82.4393 56.9393C82.7206 56.658 83.1022 56.5 83.5 56.5C83.8978 56.5 84.2794 56.658 84.5607 56.9393C84.842 57.2206 85 57.6022 85 58V62C85 62.1978 84.9609 62.3937 84.8849 62.5763C84.8089 62.759 84.6975 62.9248 84.5571 63.0642C84.4168 63.2036 84.2502 63.3139 84.0671 63.3887C83.8839 63.4635 83.6878 63.5013 83.49 63.5ZM117.49 62C117.092 62 116.711 61.842 116.429 61.5607C116.148 61.2794 115.99 60.8978 115.99 60.5V59.5C115.99 59.1022 116.148 58.7206 116.429 58.4393C116.711 58.158 117.092 58 117.49 58C117.888 58 118.269 58.158 118.551 58.4393C118.832 58.7206 118.99 59.1022 118.99 59.5V60.5C118.99 60.8978 118.832 61.2794 118.551 61.5607C118.269 61.842 117.888 62 117.49 62ZM107.49 62C107.092 62 106.711 61.842 106.429 61.5607C106.148 61.2794 105.99 60.8978 105.99 60.5V59.5C105.99 59.1022 106.148 58.7206 106.429 58.4393C106.711 58.158 107.092 58 107.49 58C107.888 58 108.269 58.158 108.551 58.4393C108.832 58.7206 108.99 59.1022 108.99 59.5V60.5C108.99 60.8978 108.832 61.2794 108.551 61.5607C108.269 61.842 107.888 62 107.49 62ZM97.49 62C97.0939 61.9974 96.7149 61.8382 96.4358 61.5571C96.1567 61.2761 96 60.8961 96 60.5V59.5C96 59.1022 96.158 58.7206 96.4393 58.4393C96.7206 58.158 97.1022 58 97.5 58C97.8978 58 98.2794 58.158 98.5607 58.4393C98.842 58.7206 99 59.1022 99 59.5V60.5C99 60.6978 98.9609 60.8937 98.8849 61.0763C98.8089 61.259 98.6975 61.4248 98.5571 61.5642C98.4168 61.7036 98.2502 61.8139 98.0671 61.8887C97.8839 61.9635 97.6878 62.0013 97.49 62ZM102.49 63.5C102.094 63.4974 101.715 63.3382 101.436 63.0571C101.157 62.7761 101 62.3961 101 62V58C101 57.6022 101.158 57.2206 101.439 56.9393C101.721 56.658 102.102 56.5 102.5 56.5C102.898 56.5 103.279 56.658 103.561 56.9393C103.842 57.2206 104 57.6022 104 58V62C104 62.1978 103.961 62.3937 103.885 62.5763C103.809 62.759 103.697 62.9248 103.557 63.0642C103.417 63.2036 103.25 63.3139 103.067 63.3887C102.884 63.4635 102.688 63.5013 102.49 63.5ZM112.49 62.5C112.094 62.4974 111.715 62.3382 111.436 62.0571C111.157 61.7761 111 61.3961 111 61V59C111 58.6022 111.158 58.2206 111.439 57.9393C111.721 57.658 112.102 57.5 112.5 57.5C112.898 57.5 113.279 57.658 113.561 57.9393C113.842 58.2206 114 58.6022 114 59V61C114 61.1978 113.961 61.3937 113.885 61.5763C113.809 61.759 113.697 61.9248 113.557 62.0642C113.417 62.2036 113.25 62.3139 113.067 62.3887C112.884 62.4635 112.688 62.5013 112.49 62.5Z" fill="#FEFEFE"/><path d="M62.99 111C65.7514 111 67.99 108.761 67.99 106C67.99 103.239 65.7514 101 62.99 101C60.2286 101 57.99 103.239 57.99 106C57.99 108.761 60.2286 111 62.99 111Z" fill="#2AAEF5"/><path d="M62.99 19C65.7514 19 67.99 16.7614 67.99 14C67.99 11.2386 65.7514 9 62.99 9C60.2286 9 57.99 11.2386 57.99 14C57.99 16.7614 60.2286 19 62.99 19Z" fill="#2AAEF5"/></g><defs><linearGradient id="paint0_linear_10_5023" x1="63.94" y1="-0.21" x2="55.98" y2="121.47" gradientUnits="userSpaceOnUse"><stop stop-color="#1A1A1B"/><stop offset="1" stop-color="#1A1A1B"/></linearGradient><clipPath id="clip0_10_5023"><rect width="120" height="120" fill="white"/></clipPath></defs></svg> 