<?xml version="1.0" encoding="UTF-8" standalone="no"?>
<svg xmlns="http://www.w3.org/2000/svg"
     xmlns:svg="http://www.w3.org/2000/svg"
     version="1.1"
     width="56.8889in" height="32in"
     viewBox="0 0 4096 2304">
  <path id="path1"
        fill="none" stroke="black" stroke-width="1"
        d="M 1710.52,1334.55
           C 1709.57,1331.24 1692.91,1312.99 1692.96,1309.07
             1693.17,1293.74 1708.38,1286.89 1714.65,1276.91
             1720.74,1267.23 1719.35,1262.35 1717.37,1252.00
             1716.38,1246.82 1717.47,1245.74 1714.62,1240.00
             1712.46,1235.63 1706.20,1225.61 1702.83,1222.28
             1692.07,1211.66 1692.73,1205.60 1680.51,1196.40
             1677.78,1194.34 1673.75,1186.28 1671.45,1183.94
             1661.50,1173.85 1665.27,1174.00 1657.29,1162.43
             1648.78,1150.08 1639.53,1153.19 1639.74,1137.51
             1639.96,1121.12 1643.48,1126.65 1654.46,1119.39
             1654.46,1119.39 1666.35,1112.03 1666.35,1112.03
             1666.35,1112.03 1682.20,1105.24 1682.20,1105.24
             1685.47,1102.73 1691.26,1096.52 1696.93,1091.65
             1696.93,1091.65 1712.78,1080.33 1712.78,1080.33
             1712.78,1080.33 1720.50,1065.50 1722.97,1065.60
             1724.75,1058.75 1726.25,1058.00 1730.33,1052.01
             1736.00,1050.25 1740.50,1049.00 1743.00,1051.25
             1747.00,1054.75 1750.15,1056.30 1751.50,1057.75
             1754.40,1060.87 1754.75,1060.50 1758.00,1062.25
             1767.00,1068.75 1764.00,1066.25 1768.25,1070.00
             1770.62,1071.62 1776.78,1074.70 1780.00,1075.50
             1780.00,1075.50 1793.75,1076.25 1793.75,1076.25
             1793.75,1076.25 1808.25,1080.75 1808.25,1080.75
             1808.25,1080.75 1826.25,1084.50 1826.25,1084.50
             1826.25,1084.50 1837.25,1087.25 1837.25,1087.25
             1837.25,1087.25 1853.75,1091.75 1853.75,1091.75
             1853.75,1091.75 1869.75,1097.50 1869.75,1097.50
             1869.75,1097.50 1885.75,1103.00 1885.75,1103.00
             1885.75,1103.00 1908.50,1107.50 1908.50,1107.50
             1908.50,1107.50 1930.25,1102.25 1930.25,1102.25
             1941.75,1096.50 1940.75,1097.75 1949.50,1090.75
             1959.25,1083.75 1961.00,1081.25 1963.25,1076.25
             1973.50,1063.00 1973.75,1059.25 1981.00,1049.50
             1983.60,1048.76 1992.83,1048.00 1995.50,1048.00
             1995.50,1048.00 2015.75,1047.75 2015.75,1047.75
             2025.96,1047.77 2035.50,1051.79 2044.00,1057.50
             2048.08,1060.24 2059.97,1071.75 2062.50,1075.00
             2064.80,1077.95 2072.83,1090.18 2074.50,1093.25
             2076.59,1097.08 2083.88,1100.83 2089.26,1102.07
             2092.85,1104.99 2098.60,1104.94 2102.89,1105.99
             2114.67,1105.17 2113.84,1104.96 2127.07,1109.50
             2133.38,1109.42 2157.95,1103.53 2163.64,1100.62
             2163.64,1100.62 2186.98,1085.12 2186.98,1085.12
             2196.78,1078.58 2207.08,1072.27 2219.21,1072.11
             2223.36,1072.05 2233.99,1077.96 2237.40,1078.93
             2245.30,1081.17 2254.93,1091.06 2264.26,1095.87
             2264.26,1095.87 2301.86,1115.50 2301.86,1115.50
             2301.86,1115.50 2326.65,1122.31 2326.65,1122.31
             2341.19,1129.58 2334.92,1123.35 2338.43,1140.08
             2338.28,1151.56 2332.36,1147.68 2325.00,1155.58
             2314.90,1166.41 2303.30,1173.68 2291.94,1183.26
             2286.06,1188.23 2263.38,1210.82 2261.98,1219.21
             2261.36,1222.99 2272.42,1232.74 2275.00,1234.71
             2281.67,1239.80 2287.12,1250.31 2292.77,1255.99
             2292.77,1255.99 2300.00,1268.18 2300.00,1268.18
             2311.16,1281.25 2303.15,1270.70 2313.02,1285.54
             2319.07,1294.64 2315.48,1292.25 2315.50,1303.51
             2315.50,1303.51 2305.79,1314.26 2305.79,1314.26
             2301.24,1318.80 2302.64,1316.98 2294.01,1325.62
             2285.70,1333.93 2285.74,1338.64 2281.82,1348.97
             2281.82,1348.97 2276.03,1357.64 2276.03,1357.64
             2274.17,1363.02 2275.26,1368.44 2272.00,1373.00
             2272.00,1373.00 2288.84,1391.32 2288.84,1391.32
             2288.84,1391.32 2303.72,1401.03 2303.72,1401.03
             2303.72,1401.03 2324.38,1414.88 2324.38,1414.88
             2324.38,1414.88 2351.65,1432.23 2351.65,1432.23
             2354.96,1434.71 2357.12,1434.48 2361.98,1447.93
             2363.08,1451.54 2352.86,1459.13 2351.65,1462.81
             2349.75,1470.08 2345.14,1474.35 2340.08,1481.20
             2329.96,1494.90 2323.47,1502.84 2310.54,1514.05
             2310.54,1514.05 2290.70,1518.60 2290.70,1518.60
             2290.70,1518.60 2279.13,1512.60 2279.13,1512.60
             2279.13,1512.60 2272.93,1520.66 2272.93,1520.66
             2263.83,1527.76 2262.54,1542.21 2252.07,1546.69
             2245.77,1549.39 2245.08,1555.48 2238.02,1555.58
             2238.02,1555.58 2230.48,1563.90 2230.48,1563.90
             2220.21,1563.76 2214.04,1561.17 2203.83,1557.08
             2203.83,1557.08 2184.98,1549.60 2184.98,1549.60
             2184.98,1549.60 2155.08,1534.98 2155.08,1534.98
             2141.46,1526.70 2139.90,1527.97 2126.48,1517.10
             2126.48,1517.10 2094.63,1493.70 2094.63,1493.70
             2085.91,1486.62 2070.43,1477.81 2060.50,1472.58
             2060.50,1472.58 2044.90,1463.48 2044.90,1463.48
             2038.17,1459.98 2020.78,1452.99 2014.03,1451.45
             2011.39,1451.11 1996.58,1450.57 1993.55,1450.80
             1985.68,1450.72 1972.62,1453.79 1964.63,1456.65
             1964.63,1456.65 1951.95,1460.88 1951.95,1460.88
             1939.64,1466.19 1927.77,1469.70 1913.93,1477.45
             1904.83,1482.54 1904.74,1482.74 1897.68,1488.83
             1897.68,1488.83 1885.00,1495.33 1885.00,1495.33
             1885.00,1495.33 1859.65,1518.08 1859.65,1518.08
             1859.65,1518.08 1830.08,1549.28 1830.08,1549.28
             1823.29,1558.47 1818.38,1568.45 1808.30,1581.45
             1805.24,1582.32 1780.18,1618.55 1776.78,1618.50
             1768.71,1618.39 1787.73,1579.87 1780.68,1576.25
             1780.68,1576.25 1758.58,1563.58 1758.58,1563.58
             1758.58,1563.58 1735.18,1551.23 1735.18,1551.23
             1735.18,1551.23 1710.80,1539.53 1710.80,1539.53
             1696.15,1533.54 1694.44,1531.24 1680.90,1522.63
             1668.92,1515.00 1648.73,1524.25 1637.68,1515.80
             1623.05,1508.65 1605.27,1499.72 1605.50,1482.33
             1605.69,1468.06 1647.39,1460.00 1657.13,1450.91
             1657.13,1450.91 1675.70,1440.40 1675.70,1440.40
             1675.70,1440.40 1697.80,1431.30 1697.80,1431.30
             1697.80,1431.30 1717.95,1409.53 1717.95,1409.53
             1729.65,1390.03 1729.31,1394.44 1737.13,1376.38
             1741.14,1367.08 1717.31,1355.38 1712.33,1348.00
             1707.83,1341.33 1712.63,1342.00 1710.52,1334.55 Z" />
</svg>
