<?xml version="1.0" encoding="UTF-8" standalone="no"?>
<svg xmlns="http://www.w3.org/2000/svg"
     xmlns:svg="http://www.w3.org/2000/svg"
     version="1.1"
     width="56.8889in" height="32in"
     viewBox="0 0 4096 2304">
  <path id="path1"
        fill="none" stroke="black" stroke-width="1"
        d="M 547.17,853.32
           C 547.17,853.32 594.36,879.45 594.36,879.45
             594.36,879.45 666.51,916.50 666.51,916.50
             666.51,916.50 731.64,951.60 731.64,951.60
             731.64,951.60 809.25,987.87 809.25,987.87
             809.25,987.87 877.11,1017.51 877.11,1017.51
             877.11,1017.51 940.29,1050.27 940.29,1050.27
             940.29,1050.27 967.98,1063.92 967.98,1063.92
             967.98,1063.92 986.16,1073.97 991.38,1081.86
             1003.86,1086.15 996.84,1128.66 996.84,1128.66
             998.30,1136.26 993.45,1194.84 993.33,1203.54
             993.16,1216.43 993.35,1275.39 993.33,1287.00
             993.33,1287.00 992.16,1383.33 992.16,1383.33
             992.14,1393.38 988.65,1418.43 988.65,1418.43
             986.99,1427.06 964.81,1454.43 958.62,1457.43
             958.62,1457.43 837.33,1509.30 837.33,1509.30
             837.33,1509.30 788.19,1547.52 788.19,1547.52
             788.19,1547.52 747.24,1576.38 747.24,1576.38
             739.12,1580.43 728.15,1580.73 721.50,1576.77
             721.50,1576.77 683.28,1558.83 683.28,1558.83
             683.28,1558.83 645.45,1536.21 645.45,1536.21
             645.45,1536.21 591.63,1498.89 586.17,1496.04
             586.17,1496.04 535.86,1468.74 535.86,1468.74
             535.86,1468.74 497.25,1446.12 497.25,1446.12
             488.89,1443.51 405.55,1390.68 400.14,1389.96
             397.12,1389.56 381.76,1394.85 379.00,1395.99
             379.00,1395.99 361.00,1403.80 361.00,1403.80
             343.07,1411.18 340.36,1408.16 321.36,1407.90
             310.00,1407.75 283.53,1388.01 283.53,1388.01
             283.53,1388.01 260.68,1380.16 257.79,1370.85
             256.77,1367.55 258.18,1287.00 258.18,1287.00
             258.18,1287.00 264.71,1200.44 267.54,1189.50
             267.54,1189.50 287.82,1136.07 287.82,1136.07
             287.82,1136.07 303.81,1106.43 303.81,1106.43
             303.81,1106.43 308.10,1074.84 308.10,1074.84
             308.10,1074.84 302.25,1048.71 302.25,1048.71
             302.25,1048.71 295.79,1027.00 295.79,1027.00
             295.79,1027.00 292.60,1009.89 292.60,1009.89
             292.60,1009.89 317.61,970.91 324.37,962.24
             326.39,959.64 378.30,932.10 378.30,932.10
             378.30,932.10 404.43,916.50 404.43,916.50
             404.43,916.50 475.02,874.77 475.02,874.77
             480.62,872.62 514.02,854.88 514.02,854.88
             523.40,847.04 537.26,847.41 547.17,853.32 Z" />
</svg>
